<?xml version="1.0" encoding="utf-8"?>
<!-- Generator: Adobe Illustrator 16.0.0, SVG Export Plug-In . SVG Version: 6.00 Build 0)  -->
<!DOCTYPE svg PUBLIC "-//W3C//DTD SVG 1.1//EN" "http://www.w3.org/Graphics/SVG/1.1/DTD/svg11.dtd">
<svg version="1.1" id="Layer_1" xmlns="http://www.w3.org/2000/svg" xmlns:xlink="http://www.w3.org/1999/xlink" x="0px" y="0px"
	 width="375px" height="368px" viewBox="0 218.5 375 368" enable-background="new 0 218.5 375 368" xml:space="preserve">
<g id="chart-financial-business-finance-8">
	<path fill="#FFFFFF" d="M363.281,482.172V230.219H11.719v251.953h134.766v52.734h-5.859c-22.642,0.025-40.99,18.374-41.016,41.016
		v5.859h175.781v-5.859c-0.025-22.642-18.374-40.99-41.016-41.016h-5.859v-52.734H363.281z M23.438,470.453V241.938h328.125v228.516
		H23.438z M234.375,546.625c13.918,0.016,25.91,9.805,28.711,23.438H111.914c2.801-13.633,14.793-23.422,28.711-23.438H234.375z
		 M216.797,534.906h-58.594v-52.734h58.594V534.906z"/>
	<path fill="#FFFFFF" d="M328.125,447.016v-11.719h-17.578V265.375h-35.156v169.922h-17.578V288.812h-35.156v146.484h-17.578
		v-82.031h-35.156v82.031h-17.578V329.828h-35.156v105.469h-11.719v-64.453H70.312v64.453H52.734V265.375H41.016v181.641H328.125z
		 M287.109,277.094h11.719v158.203h-11.719V277.094z M82.031,435.297v-52.734H93.75v52.734H82.031z M128.906,435.297v-93.75h11.719
		v93.75H128.906z M181.641,435.297v-70.312h11.719v70.312H181.641z M234.375,435.297V300.531h11.719v134.766H234.375z"/>
</g>
</svg>
