<?xml version="1.0" ?><svg id="Layer_1" style="enable-background:new 0 0 512 512;" version="1.1" viewBox="0 0 512 512" xml:space="preserve" xmlns="http://www.w3.org/2000/svg" xmlns:xlink="http://www.w3.org/1999/xlink"><style type="text/css">
	.st0{fill:#1E8184;}
	.st1{fill:#27A1AA;}
	.st2{fill:#44C3D4;}
	.st3{fill:#FFFFFF;}
	.st4{fill:#6A7C25;}
	.st5{fill:#78932C;}
	.st6{fill:#95BC3D;}
	.st7{fill:#891616;}
	.st8{fill:#C12D29;}
	.st9{fill:#EE4A40;}
</style><g id="XMLID_550_"><g id="XMLID_541_"><polygon class="st0" id="XMLID_542_" points="222.7,20.2 222.7,44.8 206.9,44.9   "/><rect class="st1" height="74.3" id="XMLID_538_" width="74.9" x="148" y="44.8"/><rect class="st2" height="120.5" id="XMLID_537_" width="142.1" x="6" y="20"/><polygon class="st2" id="XMLID_539_" points="452,140.5 222.7,140.5 222.7,20 452,20 506,77.9   "/><polygon class="st0" id="XMLID_540_" points="148.1,140.7 148.1,119.1 163.9,119.1   "/><g id="XMLID_1419_"><path class="st3" d="M334.6,64.4c1.2,0,2.3,0.1,3.3,0.3c1,0.2,2,0.5,3,1l-1.1,4.5c-1-0.3-1.8-0.6-2.6-0.7     c-0.8-0.2-1.6-0.2-2.6-0.2c-1.8,0-3.3,0.7-4.4,2.1c-1.1,1.4-1.7,3.3-1.7,5.8v1c0.8-0.8,1.8-1.4,2.9-1.9c1.1-0.4,2.4-0.7,3.8-0.7     c2.6,0,4.7,0.9,6.2,2.8c1.5,1.9,2.2,4.3,2.2,7.3c0,3.1-1,5.6-2.9,7.5c-1.9,1.9-4.4,2.9-7.5,2.9c-3.2,0-5.8-1.1-7.9-3.3     c-2-2.2-3-5.2-3-9v-6.5c0-3.9,1.1-7,3.4-9.4C328.2,65.6,331.1,64.4,334.6,64.4z M333.3,80.2c-1.1,0-2.1,0.2-2.8,0.5     c-0.8,0.4-1.4,0.9-1.8,1.5v1.7c0,2.4,0.4,4.2,1.3,5.5c0.9,1.3,2,1.9,3.4,1.9c1.3,0,2.3-0.5,3.1-1.6s1.1-2.4,1.1-4.1     c0-1.7-0.4-3-1.2-4C335.7,80.7,334.6,80.2,333.3,80.2z" id="XMLID_369_"/><path class="st3" d="M368.5,69.6c-3.5,4.1-5.9,7.8-7.1,11c-1.3,3.3-1.9,7-1.9,11.2v3.8h-6.2v-3.8     c0-4.3,0.8-8.2,2.4-11.7c1.6-3.5,3.9-7,6.9-10.5h-15.7v-4.8h21.7V69.6z" id="XMLID_367_"/><path class="st3" d="M372.2,70.8c0-1.8,0.6-3.3,1.8-4.6c1.2-1.2,2.8-1.8,4.9-1.8c2.1,0,3.8,0.6,5,1.8     c1.2,1.2,1.8,2.7,1.8,4.6v1.6c0,1.8-0.6,3.3-1.8,4.5c-1.2,1.2-2.8,1.8-4.9,1.8c-2.1,0-3.8-0.6-5-1.8c-1.2-1.2-1.8-2.7-1.8-4.5     V70.8z M376.4,72.4c0,0.8,0.2,1.5,0.7,2.1c0.5,0.6,1.1,0.8,1.9,0.8c0.8,0,1.5-0.3,1.9-0.8c0.4-0.6,0.7-1.2,0.7-2.1v-1.6     c0-0.8-0.2-1.5-0.7-2.1c-0.5-0.6-1.1-0.9-1.9-0.9c-0.8,0-1.5,0.3-1.9,0.9c-0.4,0.6-0.7,1.3-0.7,2.1V72.4z M380,93.4l-3-1.6     L392,67.7l3,1.6L380,93.4z M387,88.1c0-1.8,0.6-3.3,1.8-4.5c1.2-1.2,2.8-1.8,4.9-1.8c2.1,0,3.8,0.6,4.9,1.8     c1.2,1.2,1.8,2.7,1.8,4.5v1.6c0,1.8-0.6,3.4-1.8,4.6c-1.2,1.2-2.8,1.8-4.9,1.8c-2.1,0-3.8-0.6-5-1.8c-1.2-1.2-1.8-2.7-1.8-4.5     V88.1z M391.1,89.7c0,0.8,0.2,1.5,0.7,2.1c0.5,0.6,1.1,0.9,1.9,0.9c0.9,0,1.6-0.3,2-0.8c0.4-0.5,0.6-1.2,0.6-2.1v-1.6     c0-0.8-0.2-1.5-0.7-2.1c-0.5-0.6-1.1-0.9-1.9-0.9c-0.8,0-1.5,0.3-1.9,0.9c-0.4,0.6-0.7,1.3-0.7,2.1V89.7z" id="XMLID_215_"/></g><path class="st3" d="M87.2,95.8H69.5l-3.7,11.8H54.4L72.8,53H84l18.3,54.6H90.9L87.2,95.8z M72.2,87.2h12.3    l-6-19.2h-0.2L72.2,87.2z" id="XMLID_444_"/></g><g id="XMLID_543_"><polygon class="st4" id="XMLID_549_" points="222.7,196.5 222.7,221 206.9,221.2   "/><rect class="st5" height="74.3" id="XMLID_548_" width="74.9" x="148" y="221.1"/><rect class="st6" height="120.5" id="XMLID_547_" width="142.1" x="6" y="195.1"/><polygon class="st6" id="XMLID_546_" points="440.1,315.6 222.7,315.6 222.7,195.1 440.1,195.1 494,253   "/><polygon class="st4" id="XMLID_545_" points="148.1,317 148.1,295.4 163.9,295.4   "/><g id="XMLID_1414_"><path class="st3" d="M340.3,239.5c1.2,0,2.3,0.1,3.3,0.3c1,0.2,2,0.5,3,1l-1.1,4.5c-1-0.3-1.8-0.6-2.6-0.7     c-0.8-0.2-1.6-0.2-2.6-0.2c-1.8,0-3.3,0.7-4.4,2.1c-1.1,1.4-1.7,3.3-1.7,5.8v1c0.8-0.8,1.8-1.4,2.9-1.9c1.1-0.4,2.4-0.7,3.8-0.7     c2.6,0,4.7,0.9,6.2,2.8c1.5,1.9,2.2,4.3,2.2,7.3c0,3.1-1,5.6-2.9,7.5c-1.9,1.9-4.4,2.9-7.5,2.9c-3.2,0-5.8-1.1-7.9-3.3     c-2-2.2-3-5.2-3-9v-6.5c0-3.9,1.1-7,3.4-9.4C333.9,240.7,336.8,239.5,340.3,239.5z M339,255.3c-1.1,0-2.1,0.2-2.8,0.5     c-0.8,0.4-1.4,0.9-1.8,1.5v1.7c0,2.4,0.4,4.2,1.3,5.5c0.9,1.3,2,1.9,3.4,1.9c1.3,0,2.3-0.5,3.1-1.6c0.8-1.1,1.1-2.4,1.1-4.1     c0-1.7-0.4-3-1.2-4C341.4,255.8,340.3,255.3,339,255.3z" id="XMLID_431_"/><path class="st3" d="M365.2,239.5c1.2,0,2.3,0.1,3.3,0.3c1,0.2,2,0.5,3,1l-1.1,4.5c-1-0.3-1.8-0.6-2.6-0.7     c-0.8-0.2-1.6-0.2-2.6-0.2c-1.8,0-3.3,0.7-4.4,2.1c-1.1,1.4-1.7,3.3-1.7,5.8v1c0.8-0.8,1.8-1.4,2.9-1.9c1.1-0.4,2.4-0.7,3.8-0.7     c2.6,0,4.7,0.9,6.2,2.8c1.5,1.9,2.2,4.3,2.2,7.3c0,3.1-1,5.6-2.9,7.5c-1.9,1.9-4.4,2.9-7.5,2.9c-3.2,0-5.8-1.1-7.9-3.3     c-2-2.2-3-5.2-3-9v-6.5c0-3.9,1.1-7,3.4-9.4C358.8,240.7,361.7,239.5,365.2,239.5z M363.9,255.3c-1.1,0-2.1,0.2-2.8,0.5     c-0.8,0.4-1.4,0.9-1.8,1.5v1.7c0,2.4,0.4,4.2,1.3,5.5c0.9,1.3,2,1.9,3.4,1.9c1.3,0,2.3-0.5,3.1-1.6c0.8-1.1,1.1-2.4,1.1-4.1     c0-1.7-0.4-3-1.2-4C366.3,255.8,365.2,255.3,363.9,255.3z" id="XMLID_434_"/><path class="st3" d="M378,245.9c0-1.8,0.6-3.3,1.8-4.6c1.2-1.2,2.8-1.8,4.9-1.8c2.1,0,3.8,0.6,5,1.8     c1.2,1.2,1.8,2.7,1.8,4.6v1.6c0,1.8-0.6,3.3-1.8,4.5c-1.2,1.2-2.8,1.8-4.9,1.8c-2.1,0-3.8-0.6-5-1.8c-1.2-1.2-1.8-2.7-1.8-4.5     V245.9z M382.1,247.5c0,0.8,0.2,1.5,0.7,2.1c0.5,0.6,1.1,0.8,1.9,0.8c0.8,0,1.5-0.3,1.9-0.8c0.4-0.6,0.7-1.2,0.7-2.1v-1.6     c0-0.8-0.2-1.5-0.7-2.1c-0.5-0.6-1.1-0.9-1.9-0.9c-0.8,0-1.5,0.3-1.9,0.9c-0.4,0.6-0.7,1.3-0.7,2.1V247.5z M385.7,268.5l-3-1.6     l15.1-24.1l3,1.6L385.7,268.5z M392.7,263.2c0-1.8,0.6-3.3,1.8-4.5c1.2-1.2,2.8-1.8,4.9-1.8c2.1,0,3.8,0.6,4.9,1.8     c1.2,1.2,1.8,2.7,1.8,4.5v1.6c0,1.8-0.6,3.4-1.8,4.6c-1.2,1.2-2.8,1.8-4.9,1.8c-2.1,0-3.8-0.6-5-1.8c-1.2-1.2-1.8-2.7-1.8-4.5     V263.2z M396.8,264.9c0,0.8,0.2,1.5,0.7,2.1c0.5,0.6,1.1,0.9,1.9,0.9c0.9,0,1.6-0.3,2-0.8c0.4-0.5,0.6-1.2,0.6-2.1v-1.6     c0-0.8-0.2-1.5-0.7-2.1c-0.5-0.6-1.1-0.9-1.9-0.9c-0.8,0-1.5,0.3-1.9,0.9c-0.4,0.6-0.7,1.3-0.7,2.1V264.9z" id="XMLID_372_"/></g><path class="st3" d="M50.8,285.3v-59.9h19.6c7.1,0,12.6,1.4,16.5,4.1s5.9,6.9,5.9,12.3c0,2.7-0.7,5.2-2.1,7.4    c-1.4,2.2-3.5,3.8-6.3,4.9c3.7,0.7,6.5,2.3,8.4,4.9c1.9,2.6,2.8,5.5,2.8,8.9c0,5.7-1.9,10.1-5.7,13c-3.8,3-9.2,4.4-16.1,4.4H50.8z     M62.8,250.5h8c3.2,0,5.7-0.7,7.4-2c1.7-1.3,2.6-3.2,2.6-5.8c0-2.8-0.9-4.8-2.6-6.1c-1.7-1.3-4.3-2-7.8-2h-7.6V250.5z M62.8,258.8    v17.3H74c3.2,0,5.6-0.7,7.3-2.1c1.7-1.4,2.5-3.4,2.5-6.2c0-2.9-0.8-5.1-2.5-6.7c-1.6-1.6-4.1-2.3-7.5-2.3H62.8z" id="XMLID_440_"/></g><g id="XMLID_544_"><polygon class="st7" id="XMLID_555_" points="222.7,371.5 222.7,396.1 206.9,396.2   "/><rect class="st8" height="74.3" id="XMLID_554_" width="74.9" x="148" y="396.1"/><rect class="st9" height="120.5" id="XMLID_553_" width="142.1" x="6" y="371.4"/><polygon class="st9" id="XMLID_552_" points="440.1,491.9 222.7,491.9 222.7,371.4 428.1,371.4 482,429.3   "/><polygon class="st7" id="XMLID_551_" points="148.1,492 148.1,470.4 163.9,470.4   "/><g id="XMLID_1413_"><path class="st3" d="M335.6,415.8c1.2,0,2.3,0.1,3.3,0.3c1,0.2,2,0.5,3,1l-1.1,4.5c-1-0.3-1.8-0.6-2.6-0.7     c-0.8-0.2-1.6-0.2-2.6-0.2c-1.8,0-3.3,0.7-4.4,2.1c-1.1,1.4-1.7,3.3-1.7,5.8v1c0.8-0.8,1.8-1.4,2.9-1.9c1.1-0.4,2.4-0.7,3.8-0.7     c2.6,0,4.7,0.9,6.2,2.8c1.5,1.9,2.2,4.3,2.2,7.3c0,3.1-1,5.6-2.9,7.5c-1.9,1.9-4.4,2.9-7.5,2.9c-3.2,0-5.8-1.1-7.9-3.3     c-2-2.2-3-5.2-3-9v-6.5c0-3.9,1.1-7,3.4-9.4C329.2,417,332.1,415.8,335.6,415.8z M334.3,431.7c-1.1,0-2.1,0.2-2.8,0.5     c-0.8,0.4-1.4,0.9-1.8,1.5v1.7c0,2.4,0.4,4.2,1.3,5.5c0.9,1.3,2,1.9,3.4,1.9c1.3,0,2.3-0.5,3.1-1.6s1.1-2.4,1.1-4.1     c0-1.7-0.4-3-1.2-4C336.6,432.1,335.6,431.7,334.3,431.7z" id="XMLID_420_"/><path class="st3" d="M349.3,433.5l1.8-17.2h17.2v5h-12.1l-0.8,7.2c0.6-0.4,1.3-0.8,2.2-1     c0.9-0.3,1.8-0.4,2.9-0.5c2.9,0,5.1,0.8,6.7,2.7c1.6,1.8,2.4,4.4,2.4,7.6c0,3-0.9,5.5-2.6,7.4c-1.7,1.9-4.3,2.9-7.8,2.9     c-2.8,0-5.3-0.8-7.3-2.3c-2-1.5-3-3.6-2.9-6.2l0-0.1l6-0.3c0,1.3,0.4,2.3,1.2,3c0.8,0.7,1.8,1.1,3,1.1c1.5,0,2.5-0.5,3.2-1.4     c0.7-1,1-2.3,1-4.1c0-1.8-0.4-3.2-1.1-4.2c-0.7-1.1-1.8-1.6-3.3-1.6c-1.2,0-2.1,0.2-2.7,0.7c-0.6,0.4-1.1,1-1.3,1.8L349.3,433.5z     " id="XMLID_423_"/><path class="st3" d="M373.2,422.2c0-1.8,0.6-3.3,1.8-4.6c1.2-1.2,2.8-1.8,4.9-1.8c2.1,0,3.8,0.6,5,1.8     c1.2,1.2,1.8,2.7,1.8,4.6v1.6c0,1.8-0.6,3.3-1.8,4.5c-1.2,1.2-2.8,1.8-4.9,1.8c-2.1,0-3.8-0.6-5-1.8c-1.2-1.2-1.8-2.7-1.8-4.5     V422.2z M377.3,423.8c0,0.8,0.2,1.5,0.7,2.1c0.5,0.6,1.1,0.8,1.9,0.8c0.8,0,1.5-0.3,1.9-0.8c0.4-0.6,0.7-1.2,0.7-2.1v-1.6     c0-0.8-0.2-1.5-0.7-2.1c-0.5-0.6-1.1-0.9-1.9-0.9c-0.8,0-1.5,0.3-1.9,0.9c-0.4,0.6-0.7,1.3-0.7,2.1V423.8z M381,444.8l-3-1.6     l15.1-24.1l3,1.6L381,444.8z M387.9,439.5c0-1.8,0.6-3.3,1.8-4.5c1.2-1.2,2.8-1.8,4.9-1.8c2.1,0,3.8,0.6,4.9,1.8     c1.2,1.2,1.8,2.7,1.8,4.5v1.6c0,1.8-0.6,3.4-1.8,4.6c-1.2,1.2-2.8,1.8-4.9,1.8c-2.1,0-3.8-0.6-5-1.8c-1.2-1.2-1.8-2.7-1.8-4.5     V439.5z M392.1,441.2c0,0.8,0.2,1.5,0.7,2.1c0.5,0.6,1.1,0.9,1.9,0.9c0.9,0,1.6-0.3,2-0.8c0.4-0.5,0.6-1.2,0.6-2.1v-1.6     c0-0.8-0.2-1.5-0.7-2.1c-0.5-0.6-1.1-0.9-1.9-0.9c-0.8,0-1.5,0.3-1.9,0.9c-0.4,0.6-0.7,1.3-0.7,2.1V441.2z" id="XMLID_425_"/></g><path class="st3" d="M91.9,440.8l0.1,0.2c0.1,5.8-1.7,10.3-5.3,13.5c-3.6,3.3-8.6,4.9-15,4.9    c-6.5,0-11.7-2.1-15.7-6.3c-4-4.2-6-9.6-6-16.2v-10.7c0-6.6,1.9-12,5.8-16.2c3.9-4.2,9-6.3,15.3-6.3c6.6,0,11.7,1.6,15.4,4.8    c3.7,3.2,5.5,7.7,5.4,13.6l-0.1,0.2H81.4c0-3.5-0.8-6-2.5-7.7c-1.7-1.7-4.2-2.5-7.7-2.5c-3.2,0-5.8,1.3-7.6,3.9    c-1.8,2.6-2.7,6-2.7,10.1v10.8c0,4.2,1,7.5,2.9,10.2c1.9,2.6,4.6,3.9,8,3.9c3.2,0,5.7-0.8,7.3-2.5c1.6-1.7,2.4-4.3,2.4-7.8H91.9z" id="XMLID_438_"/></g></g></svg>