<?xml version="1.0" encoding="utf-8"?>
<!-- Generator: Adobe Illustrator 16.0.0, SVG Export Plug-In . SVG Version: 6.00 Build 0)  -->
<!DOCTYPE svg PUBLIC "-//W3C//DTD SVG 1.1//EN" "http://www.w3.org/Graphics/SVG/1.1/DTD/svg11.dtd">
<svg version="1.1" id="Layer_1" xmlns="http://www.w3.org/2000/svg" xmlns:xlink="http://www.w3.org/1999/xlink" x="0px" y="0px"
	 width="375px" height="372px" viewBox="0 218.5 375 372" enable-background="new 0 218.5 375 372" xml:space="preserve">
<g id="XMLID_497_">
	<g id="XMLID_499_">
		<path id="XMLID_511_" fill="#FC478F" d="M195.337,268.671c0-2.49-2.051-4.541-4.541-4.541s-4.541,2.051-4.541,4.541
			c0,2.051,1.318,3.735,3.149,4.321v27.1h2.71v-27.1C194.019,272.406,195.337,270.722,195.337,268.671z"/>
		<path id="XMLID_502_" fill="#FC478F" d="M195.337,542.67c0,2.49-2.051,4.541-4.541,4.541s-4.541-2.051-4.541-4.541
			c0-2.051,1.318-3.735,3.149-4.321v-27.1h2.71v27.1C194.019,538.935,195.337,540.619,195.337,542.67z"/>
	</g>
	<path id="XMLID_525_" fill="#00B5FF" d="M97.119,305.585c-1.758-1.758-4.614-1.758-6.372,0s-1.758,4.614,0,6.372
		c1.392,1.392,3.589,1.685,5.273,0.806l19.116,19.116l1.904-1.904l-19.116-19.116C98.877,309.174,98.584,307.05,97.119,305.585z"/>
	<path id="XMLID_520_" fill="#00FFB2" d="M290.845,499.311c1.758,1.758,1.758,4.614,0,6.372s-4.614,1.758-6.372,0
		c-1.392-1.392-1.685-3.589-0.806-5.273l-19.116-19.116l1.904-1.904l19.116,19.116C287.256,497.626,289.453,497.919,290.845,499.311
		z"/>
	<path id="XMLID_545_" fill="#FFFFFF" d="M53.833,401.166c-2.49,0-4.541,2.051-4.541,4.541s2.051,4.541,4.541,4.541
		c2.051,0,3.735-1.318,4.321-3.149h27.1v-2.71h-27.1C57.568,402.484,55.884,401.166,53.833,401.166z"/>
	<path id="XMLID_544_" fill="#FFFFFF" d="M327.832,401.166c2.49,0,4.541,2.051,4.541,4.541s-2.051,4.541-4.541,4.541
		c-2.051,0-3.735-1.318-4.321-3.149h-27.1v-2.71h27.1C324.097,402.484,325.781,401.166,327.832,401.166z"/>
	<path id="XMLID_548_" fill="#00FFB2" d="M90.747,499.311c-1.758,1.758-1.758,4.614,0,6.372s4.614,1.758,6.372,0
		c1.392-1.392,1.685-3.589,0.806-5.273l19.116-19.116l-1.904-1.904l-19.116,19.116C94.336,497.626,92.212,497.919,90.747,499.311z"
		/>
	<path id="XMLID_547_" fill="#00B5FF" d="M284.473,305.585c1.758-1.758,4.614-1.758,6.372,0s1.758,4.614,0,6.372
		c-1.392,1.392-3.589,1.685-5.273,0.806l-19.116,19.116l-1.904-1.904l19.116-19.116C282.788,309.174,283.081,307.05,284.473,305.585
		z"/>
	<g id="XMLID_473_">
		<path id="XMLID_535_" fill="#00B5FF" d="M282.275,274.164c-2.563,0-4.541,0.806-6.079,2.417s-2.271,3.882-2.271,6.738v6.372
			c0,2.856,0.732,5.127,2.271,6.738s3.589,2.417,6.079,2.417s4.541-0.806,6.079-2.417s2.271-3.882,2.271-6.738v-6.372
			c0-2.856-0.806-5.127-2.344-6.738C286.816,274.97,284.766,274.164,282.275,274.164z M285.059,290.058
			c0,1.465-0.22,2.637-0.732,3.369s-1.172,1.172-2.051,1.172s-1.611-0.366-2.124-1.172c-0.513-0.732-0.732-1.904-0.732-3.369v-7.104
			c0-1.465,0.22-2.563,0.732-3.369s1.172-1.172,2.051-1.172s1.538,0.366,2.051,1.172s0.732,1.904,0.732,3.369v7.104H285.059z"/>
		<path id="XMLID_536_" fill="#00B5FF" d="M301.172,294.232v-0.073l2.93-3.516c2.124-2.271,3.589-4.028,4.395-5.2
			s1.172-2.49,1.172-4.028c0-2.271-0.732-4.028-2.124-5.347c-1.465-1.318-3.442-1.904-6.079-1.904c-2.49,0-4.541,0.806-6.079,2.344
			s-2.271,3.442-2.197,5.64v0.073h5.493c0-1.099,0.22-1.978,0.732-2.71s1.172-1.099,2.051-1.099c0.952,0,1.611,0.293,2.051,0.806
			s0.659,1.318,0.659,2.197c0,0.659-0.22,1.392-0.659,2.271s-1.172,1.904-2.197,3.003l-7.397,8.13v3.662h16.699v-4.321h-9.448
			V294.232z"/>
	</g>
	<g id="XMLID_514_">
		<path id="XMLID_517_" fill="#00FFB2" d="M282.275,510.004c-2.563,0-4.541,0.806-6.079,2.417s-2.271,3.882-2.271,6.738v6.372
			c0,2.856,0.732,5.127,2.271,6.738s3.589,2.417,6.079,2.417s4.541-0.806,6.079-2.417s2.271-3.882,2.271-6.738v-6.372
			c0-2.856-0.806-5.127-2.344-6.738C286.816,510.81,284.766,510.004,282.275,510.004z M285.059,525.897
			c0,1.465-0.22,2.637-0.732,3.369s-1.172,1.172-2.051,1.172s-1.611-0.366-2.124-1.172c-0.513-0.732-0.732-1.904-0.732-3.369v-7.104
			c0-1.465,0.22-2.563,0.732-3.369s1.172-1.172,2.051-1.172s1.538,0.366,2.051,1.172s0.732,1.904,0.732,3.369v7.104H285.059z"/>
		<path id="XMLID_540_" fill="#00FFB2" d="M308.35,525.019V510.37h-5.566v0.073l-9.888,15.527l0.366,3.442h9.595v5.054h5.566v-5.054
			h2.417v-4.321h-2.49V525.019z M302.783,525.019h-5.127l4.395-6.226l0.586-1.245h0.073v7.471H302.783z"/>
	</g>
	<g id="XMLID_503_">
		<path id="XMLID_506_" fill="#00FFB2" d="M67.529,510.004c-2.563,0-4.541,0.806-6.079,2.417s-2.271,3.882-2.271,6.738v6.372
			c0,2.856,0.732,5.127,2.271,6.738s3.589,2.417,6.079,2.417s4.541-0.806,6.079-2.417s2.271-3.882,2.271-6.738v-6.372
			c0-2.856-0.806-5.127-2.344-6.738C72.07,510.81,70.093,510.004,67.529,510.004z M70.386,525.897c0,1.465-0.22,2.637-0.732,3.369
			s-1.172,1.172-2.051,1.172s-1.611-0.366-2.124-1.172c-0.513-0.732-0.732-1.904-0.732-3.369v-7.104c0-1.465,0.22-2.563,0.732-3.369
			s1.172-1.172,2.051-1.172s1.538,0.366,2.051,1.172s0.732,1.904,0.732,3.369v7.104H70.386z"/>
		<path id="XMLID_541_" fill="#00FFB2" d="M94.116,520.771c-1.099-1.465-2.71-2.271-4.761-2.271c-1.099,0-2.124,0.146-3.003,0.513
			s-1.611,0.806-2.271,1.392v-0.22c0-1.904,0.439-3.369,1.245-4.321s1.904-1.465,3.296-1.465c0.732,0,1.392,0.073,1.904,0.146
			c0.586,0.146,1.245,0.293,1.978,0.513l0.952-4.028c-0.879-0.366-1.685-0.586-2.417-0.732s-1.538-0.22-2.49-0.22
			c-2.93,0-5.347,0.879-7.251,2.71s-2.783,4.321-2.783,7.471v4.834c0,3.003,0.806,5.347,2.417,7.104s3.735,2.563,6.372,2.563
			c2.49,0,4.468-0.732,6.079-2.271c1.538-1.538,2.344-3.516,2.344-5.859C95.874,524.213,95.288,522.235,94.116,520.771z
			 M89.429,529.34c-0.513,0.732-1.245,1.099-2.051,1.099c-1.025,0-1.831-0.439-2.417-1.392s-0.879-2.271-0.879-4.028v-1.099
			c0.293-0.366,0.732-0.659,1.318-0.879s1.245-0.293,2.051-0.293s1.465,0.366,1.978,1.025s0.732,1.611,0.732,2.856
			C90.234,527.655,90.015,528.607,89.429,529.34z"/>
	</g>
	<g id="XMLID_491_">
		<path id="XMLID_494_" fill="#00B5FF" d="M67.31,275.849c-2.563,0-4.541,0.806-6.079,2.417s-2.271,3.882-2.271,6.738v6.372
			c0,2.856,0.732,5.127,2.271,6.738s3.589,2.417,6.079,2.417s4.541-0.806,6.079-2.417s2.271-3.882,2.271-6.738v-6.372
			c0-2.856-0.806-5.127-2.344-6.738C71.851,276.654,69.873,275.849,67.31,275.849z M70.166,291.742c0,1.465-0.22,2.637-0.732,3.369
			s-1.172,1.172-2.051,1.172s-1.611-0.366-2.124-1.172c-0.513-0.732-0.732-1.904-0.732-3.369v-7.104c0-1.465,0.22-2.563,0.732-3.369
			s1.172-1.172,2.051-1.172s1.538,0.366,2.051,1.172s0.732,1.904,0.732,3.369v7.104H70.166z"/>
		<path id="XMLID_542_" fill="#00B5FF" d="M94.702,290.058c-0.732-1.025-1.758-1.758-3.003-2.344
			c1.025-0.513,1.831-1.245,2.417-2.197c0.586-0.879,0.879-1.904,0.879-3.076c0-2.124-0.732-3.809-2.124-4.907
			c-1.392-1.172-3.296-1.685-5.566-1.685c-2.417,0-4.321,0.586-5.786,1.758s-2.197,2.783-2.197,4.907
			c0,1.172,0.293,2.197,0.952,3.076c0.586,0.879,1.465,1.611,2.563,2.124c-1.318,0.586-2.417,1.318-3.149,2.344
			c-0.806,1.025-1.172,2.124-1.172,3.442c0,2.271,0.806,3.955,2.49,5.2s3.809,1.904,6.445,1.904c2.49,0,4.541-0.659,6.152-1.904
			s2.417-3.003,2.417-5.273C95.874,292.182,95.435,291.083,94.702,290.058z M85.474,280.829c0.439-0.439,1.025-0.659,1.758-0.659
			c0.659,0,1.172,0.22,1.611,0.659c0.366,0.439,0.586,1.099,0.586,1.978s-0.22,1.538-0.586,2.051s-0.879,0.732-1.538,0.732
			c-0.732,0-1.392-0.22-1.831-0.732s-0.659-1.172-0.659-2.051S85.034,281.269,85.474,280.829z M89.429,295.478
			c-0.586,0.586-1.245,0.879-2.124,0.879c-0.952,0-1.758-0.293-2.417-0.879s-0.952-1.318-0.952-2.271s0.293-1.758,0.952-2.344
			s1.392-0.879,2.344-0.879c0.879,0,1.611,0.293,2.124,0.879c0.586,0.586,0.879,1.392,0.879,2.344S89.941,294.892,89.429,295.478z"
			/>
	</g>
	<path id="XMLID_513_" fill="#ED746B" d="M179.81,235.858c-2.563,0-4.541,0.806-6.079,2.417s-2.271,3.882-2.271,6.738v6.445
		c0,2.856,0.732,5.127,2.271,6.738s3.589,2.417,6.079,2.417s4.541-0.806,6.079-2.417c1.611-1.611,2.344-3.882,2.344-6.738v-6.372
		c0-2.856-0.806-5.127-2.344-6.738C184.351,236.664,182.373,235.858,179.81,235.858z M182.666,251.752
		c0,1.465-0.22,2.637-0.732,3.369s-1.172,1.172-2.051,1.172s-1.611-0.366-2.124-1.172c-0.513-0.732-0.732-1.904-0.732-3.369v-7.104
		c0-1.465,0.22-2.563,0.732-3.369s1.172-1.172,2.051-1.172s1.538,0.366,2.051,1.172s0.732,1.904,0.732,3.369v7.104H182.666z"/>
	<polygon id="XMLID_530_" fill="#ED746B" points="197.9,260.248 203.54,260.248 203.54,235.858 193.066,236.737 193.066,240.985 
		197.9,240.985 	"/>
	<path id="XMLID_534_" fill="#D32D33" d="M177.612,551.386c-2.563,0-4.541,0.806-6.079,2.417s-2.271,3.882-2.271,6.738v6.372
		c0,2.856,0.732,5.127,2.271,6.738s3.589,2.417,6.079,2.417s4.541-0.806,6.079-2.417s2.271-3.882,2.271-6.738v-6.372
		c0-2.856-0.806-5.127-2.344-6.738C182.153,552.191,180.176,551.386,177.612,551.386z M180.469,567.279
		c0,1.465-0.22,2.637-0.732,3.369s-1.172,1.172-2.051,1.172s-1.611-0.366-2.124-1.172c-0.513-0.732-0.732-1.904-0.732-3.369v-7.104
		c0-1.465,0.22-2.563,0.732-3.369s1.172-1.172,2.051-1.172s1.538,0.366,2.051,1.172s0.732,1.904,0.732,3.369v7.104H180.469z"/>
	<path id="XMLID_537_" fill="#D32D33" d="M203.906,562.006c-1.172-1.392-2.93-2.124-5.127-2.051c-0.806,0-1.611,0.146-2.271,0.366
		c-0.732,0.22-1.245,0.439-1.758,0.806l0.586-4.98h9.595v-4.395h-14.062l-1.392,13.477l4.98,0.293
		c0.146-0.513,0.513-0.879,0.952-1.172s1.025-0.513,1.758-0.513c1.025,0,1.758,0.366,2.271,1.172
		c0.439,0.732,0.732,1.831,0.732,3.149c0,1.245-0.22,2.197-0.586,2.856c-0.439,0.659-1.099,0.952-2.197,0.952
		c-0.879,0-1.611-0.22-2.124-0.732s-0.806-1.172-0.806-1.978l-5.493,0.366v0.073c-0.073,1.978,0.732,3.589,2.417,4.761
		s3.662,1.831,6.006,1.831c2.856,0,4.98-0.732,6.372-2.271c1.318-1.538,2.051-3.442,2.051-5.786
		C205.737,565.448,205.151,563.397,203.906,562.006z"/>
	<g id="XMLID_495_">
		<path id="XMLID_507_" fill="#FFFFFF" d="M342.188,393.622c-2.563,0-4.541,0.806-6.079,2.417s-2.271,3.882-2.271,6.738v6.372
			c0,2.856,0.732,5.127,2.271,6.738s3.589,2.417,6.079,2.417s4.541-0.806,6.079-2.417s2.271-3.882,2.271-6.738v-6.372
			c0-2.856-0.806-5.127-2.344-6.738C346.729,394.428,344.678,393.622,342.188,393.622z M344.971,409.516
			c0,1.465-0.22,2.637-0.732,3.369s-1.172,1.172-2.051,1.172s-1.611-0.366-2.124-1.172c-0.513-0.732-0.732-1.904-0.732-3.369v-7.104
			c0-1.465,0.22-2.563,0.732-3.369s1.172-1.172,2.051-1.172s1.538,0.366,2.051,1.172s0.732,1.904,0.732,3.369v7.104H344.971z"/>
		<path id="XMLID_518_" fill="#FFFFFF" d="M369.58,407.831c-0.732-0.952-1.685-1.685-3.003-2.124
			c1.099-0.513,2.051-1.245,2.71-2.197c0.659-0.879,1.025-1.904,1.025-3.003c0-2.197-0.806-3.882-2.344-5.054
			s-3.662-1.758-6.299-1.758c-2.271,0-4.175,0.586-5.713,1.758s-2.344,2.71-2.271,4.688v0.073h5.42c0-0.659,0.22-1.245,0.732-1.611
			c0.513-0.439,1.099-0.586,1.758-0.586c0.952,0,1.685,0.293,2.197,0.806c0.586,0.513,0.806,1.172,0.806,1.904
			c0,0.952-0.293,1.685-0.806,2.271c-0.513,0.513-1.318,0.806-2.344,0.806h-2.563v4.175h2.637c1.099,0,1.978,0.293,2.563,0.806
			s0.952,1.392,0.952,2.563c0,0.806-0.293,1.538-0.952,2.051c-0.659,0.586-1.465,0.806-2.49,0.806c-0.806,0-1.538-0.293-2.051-0.806
			s-0.806-1.172-0.806-1.978h-5.42v0.073c-0.073,2.271,0.732,3.955,2.417,5.127s3.662,1.758,5.933,1.758
			c2.637,0,4.761-0.659,6.445-1.904s2.563-3.003,2.563-5.2C370.605,409.955,370.239,408.783,369.58,407.831z"/>
	</g>
	<path id="XMLID_524_" fill="#FFFFFF" d="M12.744,393.622c-2.563,0-4.541,0.806-6.079,2.417c-1.538,1.685-2.271,3.882-2.271,6.738
		v6.372c0,2.856,0.732,5.127,2.271,6.738s3.589,2.417,6.079,2.417s4.541-0.806,6.079-2.417s2.271-3.882,2.271-6.738v-6.372
		c0-2.856-0.806-5.127-2.344-6.738C17.285,394.428,15.234,393.622,12.744,393.622z M15.601,409.516c0,1.465-0.22,2.637-0.732,3.369
		s-1.172,1.172-2.051,1.172s-1.611-0.366-2.124-1.172c-0.513-0.732-0.732-1.904-0.732-3.369v-7.104c0-1.465,0.22-2.563,0.732-3.369
		s1.172-1.172,2.051-1.172s1.538,0.366,2.051,1.172s0.732,1.904,0.732,3.369v7.104H15.601z"/>
	<path id="XMLID_526_" fill="#FFFFFF" d="M23.511,398.236h12.012c-2.271,2.49-3.955,5.054-5.127,7.764s-1.758,5.64-1.758,8.862
		v3.149h5.566v-3.149c0-3.296,0.439-6.079,1.392-8.569c0.952-2.417,2.71-5.127,5.273-8.057v-4.321H23.511V398.236z"/>
	<g id="XMLID_454_">
		<polygon id="XMLID_478_" fill="#FFFFFF" points="286.743,364.984 286.743,447.162 307.031,455.585 307.031,356.562 		"/>
		<polygon id="XMLID_471_" fill="#FC478F" points="137.988,286.542 146.411,306.83 228.589,306.83 237.012,286.542 		"/>
		<polygon id="XMLID_472_" fill="#00B5FF" points="237.012,286.542 228.589,306.83 286.743,364.984 307.031,356.562 		"/>
		<polygon id="XMLID_480_" fill="#00B5FF" points="137.988,286.542 146.411,306.83 88.257,364.984 67.969,356.562 		"/>
		<polygon id="XMLID_484_" fill="#FC478F" points="137.988,525.458 146.411,505.17 228.589,505.17 237.012,525.458 		"/>
		<polygon id="XMLID_483_" fill="#00FFB2" points="237.012,525.458 228.589,505.17 286.743,447.016 307.031,455.438 		"/>
		<polygon id="XMLID_482_" fill="#00FFB2" points="137.988,525.458 146.411,505.17 88.257,447.016 67.969,455.438 		"/>
		<polygon id="XMLID_479_" fill="#FFFFFF" points="88.257,364.984 88.257,447.162 67.969,455.585 67.969,356.562 		"/>
	</g>
</g>
</svg>
