<?xml version="1.0" encoding="utf-8"?>
<!-- Generator: Adobe Illustrator 16.0.0, SVG Export Plug-In . SVG Version: 6.00 Build 0)  -->
<!DOCTYPE svg PUBLIC "-//W3C//DTD SVG 1.1//EN" "http://www.w3.org/Graphics/SVG/1.1/DTD/svg11.dtd">
<svg version="1.1" id="Layer_1" xmlns="http://www.w3.org/2000/svg" xmlns:xlink="http://www.w3.org/1999/xlink" x="0px" y="0px"
	 width="375px" height="374px" viewBox="0 216.5 375 374" enable-background="new 0 216.5 375 374" xml:space="preserve">
<g id="XMLID_550_">
	<g id="XMLID_541_">
		<polygon id="XMLID_542_" fill="#1E8184" points="163.11,233.295 163.11,251.312 151.538,251.386 		"/>
		<rect id="XMLID_538_" x="108.398" y="251.312" fill="#27A1AA" width="54.858" height="54.419"/>
		<rect id="XMLID_537_" x="4.395" y="233.148" fill="#00AAF1" width="104.077" height="88.257"/>
		<polygon id="XMLID_539_" fill="#00AAF1" points="331.055,321.405 163.11,321.405 163.11,233.148 331.055,233.148 370.605,275.556 
					"/>
		<polygon id="XMLID_540_" fill="#1E8184" points="108.472,321.552 108.472,305.731 120.044,305.731 		"/>
		<g id="XMLID_1419_">
			<path id="XMLID_369_" fill="#FFFFFF" d="M245.068,265.668c0.879,0,1.685,0.073,2.417,0.22s1.465,0.366,2.197,0.732l-0.806,3.296
				c-0.732-0.22-1.318-0.439-1.904-0.513c-0.586-0.146-1.172-0.146-1.904-0.146c-1.318,0-2.417,0.513-3.223,1.538
				s-1.245,2.417-1.245,4.248v0.732c0.586-0.586,1.318-1.025,2.124-1.392c0.806-0.293,1.758-0.513,2.783-0.513
				c1.904,0,3.442,0.659,4.541,2.051s1.611,3.149,1.611,5.347c0,2.271-0.732,4.102-2.124,5.493s-3.223,2.124-5.493,2.124
				c-2.344,0-4.248-0.806-5.786-2.417c-1.465-1.611-2.197-3.809-2.197-6.592v-4.761c0-2.856,0.806-5.127,2.49-6.885
				C240.381,266.547,242.505,265.668,245.068,265.668z M244.116,277.24c-0.806,0-1.538,0.146-2.051,0.366
				c-0.586,0.293-1.025,0.659-1.318,1.099v1.245c0,1.758,0.293,3.076,0.952,4.028s1.465,1.392,2.49,1.392
				c0.952,0,1.685-0.366,2.271-1.172s0.806-1.758,0.806-3.003s-0.293-2.197-0.879-2.93
				C245.874,277.606,245.068,277.24,244.116,277.24z"/>
			<path id="XMLID_367_" fill="#FFFFFF" d="M269.897,269.477c-2.563,3.003-4.321,5.713-5.2,8.057
				c-0.952,2.417-1.392,5.127-1.392,8.203v2.783h-4.541v-2.783c0-3.149,0.586-6.006,1.758-8.569s2.856-5.127,5.054-7.69h-11.499
				v-3.516h15.894v3.516H269.897z"/>
			<path id="XMLID_215_" fill="#FFFFFF" d="M272.607,270.355c0-1.318,0.439-2.417,1.318-3.369c0.879-0.879,2.051-1.318,3.589-1.318
				s2.783,0.439,3.662,1.318s1.318,1.978,1.318,3.369v1.172c0,1.318-0.439,2.417-1.318,3.296s-2.051,1.318-3.589,1.318
				s-2.783-0.439-3.662-1.318s-1.318-1.978-1.318-3.296V270.355z M275.684,271.527c0,0.586,0.146,1.099,0.513,1.538
				s0.806,0.586,1.392,0.586s1.099-0.22,1.392-0.586c0.293-0.439,0.513-0.879,0.513-1.538v-1.172c0-0.586-0.146-1.099-0.513-1.538
				s-0.806-0.659-1.392-0.659s-1.099,0.22-1.392,0.659s-0.513,0.952-0.513,1.538V271.527z M278.32,286.908l-2.197-1.172
				l10.986-17.651l2.197,1.172L278.32,286.908z M283.447,283.026c0-1.318,0.439-2.417,1.318-3.296s2.051-1.318,3.589-1.318
				s2.783,0.439,3.589,1.318c0.879,0.879,1.318,1.978,1.318,3.296v1.172c0,1.318-0.439,2.49-1.318,3.369s-2.051,1.318-3.589,1.318
				s-2.783-0.439-3.662-1.318s-1.318-1.978-1.318-3.296v-1.245H283.447z M286.45,284.198c0,0.586,0.146,1.099,0.513,1.538
				s0.806,0.659,1.392,0.659c0.659,0,1.172-0.22,1.465-0.586s0.439-0.879,0.439-1.538V283.1c0-0.586-0.146-1.099-0.513-1.538
				s-0.806-0.659-1.392-0.659s-1.099,0.22-1.392,0.659s-0.513,0.952-0.513,1.538V284.198z"/>
		</g>
		<path id="XMLID_444_" fill="#FFFFFF" d="M63.867,288.666H50.903l-2.71,8.643h-8.35l13.477-39.99h8.203l13.403,39.99h-8.35
			L63.867,288.666z M52.881,282.367h9.009l-4.395-14.062h-0.146L52.881,282.367z"/>
	</g>
	<g id="XMLID_543_">
		<polygon id="XMLID_549_" fill="#1E8184" points="163.11,362.421 163.11,380.365 151.538,380.512 		"/>
		<rect id="XMLID_548_" x="108.398" y="380.438" fill="#27A1AA" width="54.858" height="54.419"/>
		<rect id="XMLID_547_" x="4.395" y="361.396" fill="#00AAF1" width="104.077" height="88.257"/>
		<polygon id="XMLID_546_" fill="#00AAF1" points="322.339,449.652 163.11,449.652 163.11,361.396 322.339,361.396 361.816,403.803 
					"/>
		<polygon id="XMLID_545_" fill="#1E8184" points="108.472,450.678 108.472,434.857 120.044,434.857 		"/>
		<g id="XMLID_1414_">
			<path id="XMLID_431_" fill="#FFFFFF" d="M249.243,393.915c0.879,0,1.685,0.073,2.417,0.22s1.465,0.366,2.197,0.732l-0.806,3.296
				c-0.732-0.22-1.318-0.439-1.904-0.513c-0.586-0.146-1.172-0.146-1.904-0.146c-1.318,0-2.417,0.513-3.223,1.538
				s-1.245,2.417-1.245,4.248v0.732c0.586-0.586,1.318-1.025,2.124-1.392c0.806-0.293,1.758-0.513,2.783-0.513
				c1.904,0,3.442,0.659,4.541,2.051s1.611,3.149,1.611,5.347c0,2.271-0.732,4.102-2.124,5.493s-3.223,2.124-5.493,2.124
				c-2.344,0-4.248-0.806-5.786-2.417c-1.465-1.611-2.197-3.809-2.197-6.592v-4.761c0-2.856,0.806-5.127,2.49-6.885
				C244.556,394.794,246.68,393.915,249.243,393.915z M248.291,405.487c-0.806,0-1.538,0.146-2.051,0.366
				c-0.586,0.293-1.025,0.659-1.318,1.099v1.245c0,1.758,0.293,3.076,0.952,4.028s1.465,1.392,2.49,1.392
				c0.952,0,1.685-0.366,2.271-1.172s0.806-1.758,0.806-3.003s-0.293-2.197-0.879-2.93
				C250.049,405.854,249.243,405.487,248.291,405.487z"/>
			<path id="XMLID_434_" fill="#FFFFFF" d="M267.48,393.915c0.879,0,1.685,0.073,2.417,0.22s1.465,0.366,2.197,0.732l-0.806,3.296
				c-0.732-0.22-1.318-0.439-1.904-0.513c-0.586-0.146-1.172-0.146-1.904-0.146c-1.318,0-2.417,0.513-3.223,1.538
				s-1.245,2.417-1.245,4.248v0.732c0.586-0.586,1.318-1.025,2.124-1.392c0.806-0.293,1.758-0.513,2.783-0.513
				c1.904,0,3.442,0.659,4.541,2.051s1.611,3.149,1.611,5.347c0,2.271-0.732,4.102-2.124,5.493s-3.223,2.124-5.493,2.124
				c-2.344,0-4.248-0.806-5.786-2.417c-1.465-1.611-2.197-3.809-2.197-6.592v-4.761c0-2.856,0.806-5.127,2.49-6.885
				C262.793,394.794,264.917,393.915,267.48,393.915z M266.528,405.487c-0.806,0-1.538,0.146-2.051,0.366
				c-0.586,0.293-1.025,0.659-1.318,1.099v1.245c0,1.758,0.293,3.076,0.952,4.028s1.465,1.392,2.49,1.392
				c0.952,0,1.685-0.366,2.271-1.172s0.806-1.758,0.806-3.003s-0.293-2.197-0.879-2.93
				C268.286,405.854,267.48,405.487,266.528,405.487z"/>
			<path id="XMLID_372_" fill="#FFFFFF" d="M276.855,398.603c0-1.318,0.439-2.417,1.318-3.369c0.879-0.879,2.051-1.318,3.589-1.318
				s2.783,0.439,3.662,1.318s1.318,1.978,1.318,3.369v1.172c0,1.318-0.439,2.417-1.318,3.296s-2.051,1.318-3.589,1.318
				s-2.783-0.439-3.662-1.318s-1.318-1.978-1.318-3.296V398.603z M279.858,399.774c0,0.586,0.146,1.099,0.513,1.538
				s0.806,0.586,1.392,0.586s1.099-0.22,1.392-0.586c0.293-0.439,0.513-0.879,0.513-1.538v-1.172c0-0.586-0.146-1.099-0.513-1.538
				s-0.806-0.659-1.392-0.659s-1.099,0.22-1.392,0.659s-0.513,0.952-0.513,1.538V399.774z M282.495,415.155l-2.197-1.172
				l11.06-17.651l2.197,1.172L282.495,415.155z M287.622,411.273c0-1.318,0.439-2.417,1.318-3.296s2.051-1.318,3.589-1.318
				s2.783,0.439,3.589,1.318c0.879,0.879,1.318,1.978,1.318,3.296v1.172c0,1.318-0.439,2.49-1.318,3.369s-2.051,1.318-3.589,1.318
				s-2.783-0.439-3.662-1.318s-1.318-1.978-1.318-3.296v-1.245H287.622z M290.625,412.519c0,0.586,0.146,1.099,0.513,1.538
				s0.806,0.659,1.392,0.659c0.659,0,1.172-0.22,1.465-0.586s0.439-0.879,0.439-1.538v-1.172c0-0.586-0.146-1.099-0.513-1.538
				s-0.806-0.659-1.392-0.659s-1.099,0.22-1.392,0.659s-0.513,0.952-0.513,1.538V412.519z"/>
		</g>
		<path id="XMLID_440_" fill="#FFFFFF" d="M37.207,427.46v-43.872h14.355c5.2,0,9.229,1.025,12.085,3.003s4.321,5.054,4.321,9.009
			c0,1.978-0.513,3.809-1.538,5.42s-2.563,2.783-4.614,3.589c2.71,0.513,4.761,1.685,6.152,3.589s2.051,4.028,2.051,6.519
			c0,4.175-1.392,7.397-4.175,9.521c-2.783,2.197-6.738,3.223-11.792,3.223H37.207z M45.996,401.972h5.859
			c2.344,0,4.175-0.513,5.42-1.465s1.904-2.344,1.904-4.248c0-2.051-0.659-3.516-1.904-4.468s-3.149-1.465-5.713-1.465h-5.566
			V401.972z M45.996,408.051v12.671h8.203c2.344,0,4.102-0.513,5.347-1.538s1.831-2.49,1.831-4.541c0-2.124-0.586-3.735-1.831-4.907
			c-1.172-1.172-3.003-1.685-5.493-1.685H45.996L45.996,408.051z"/>
	</g>
	<g id="XMLID_544_">
		<polygon id="XMLID_555_" fill="#1E8184" points="163.11,490.595 163.11,508.612 151.538,508.686 		"/>
		<rect id="XMLID_554_" x="108.398" y="508.612" fill="#27A1AA" width="54.858" height="54.419"/>
		<rect id="XMLID_553_" x="4.395" y="490.521" fill="#00AAF1" width="104.077" height="88.257"/>
		<polygon id="XMLID_552_" fill="#00AAF1" points="322.339,578.778 163.11,578.778 163.11,490.521 313.55,490.521 353.027,532.929 
					"/>
		<polygon id="XMLID_551_" fill="#1E8184" points="108.472,578.852 108.472,563.031 120.044,563.031 		"/>
		<g id="XMLID_1413_">
			<path id="XMLID_420_" fill="#FFFFFF" d="M245.801,523.041c0.879,0,1.685,0.073,2.417,0.22s1.465,0.366,2.197,0.732l-0.806,3.296
				c-0.732-0.22-1.318-0.439-1.904-0.513c-0.586-0.146-1.172-0.146-1.904-0.146c-1.318,0-2.417,0.513-3.223,1.538
				s-1.245,2.417-1.245,4.248v0.732c0.586-0.586,1.318-1.025,2.124-1.392c0.806-0.293,1.758-0.513,2.783-0.513
				c1.904,0,3.442,0.659,4.541,2.051s1.611,3.149,1.611,5.347c0,2.271-0.732,4.102-2.124,5.493s-3.223,2.124-5.493,2.124
				c-2.344,0-4.248-0.806-5.786-2.417c-1.465-1.611-2.197-3.809-2.197-6.592v-4.761c0-2.856,0.806-5.127,2.49-6.885
				C241.113,523.92,243.237,523.041,245.801,523.041z M244.849,534.687c-0.806,0-1.538,0.146-2.051,0.366
				c-0.586,0.293-1.025,0.659-1.318,1.099v1.245c0,1.758,0.293,3.076,0.952,4.028s1.465,1.392,2.49,1.392
				c0.952,0,1.685-0.366,2.271-1.172s0.806-1.758,0.806-3.003s-0.293-2.197-0.879-2.93S245.801,534.687,244.849,534.687z"/>
			<path id="XMLID_423_" fill="#FFFFFF" d="M255.835,536.005l1.318-12.598h12.598v3.662h-8.862l-0.586,5.273
				c0.439-0.293,0.952-0.586,1.611-0.732c0.659-0.22,1.318-0.293,2.124-0.366c2.124,0,3.735,0.586,4.907,1.978
				c1.172,1.318,1.758,3.223,1.758,5.566c0,2.197-0.659,4.028-1.904,5.42s-3.149,2.124-5.713,2.124
				c-2.051,0-3.882-0.586-5.347-1.685s-2.197-2.637-2.124-4.541v-0.073l4.395-0.22c0,0.952,0.293,1.685,0.879,2.197
				s1.318,0.806,2.197,0.806c1.099,0,1.831-0.366,2.344-1.025c0.513-0.732,0.732-1.685,0.732-3.003s-0.293-2.344-0.806-3.076
				c-0.513-0.806-1.318-1.172-2.417-1.172c-0.879,0-1.538,0.146-1.978,0.513c-0.439,0.293-0.806,0.732-0.952,1.318L255.835,536.005z
				"/>
			<path id="XMLID_425_" fill="#FFFFFF" d="M273.34,527.729c0-1.318,0.439-2.417,1.318-3.369c0.879-0.879,2.051-1.318,3.589-1.318
				s2.783,0.439,3.662,1.318s1.318,1.978,1.318,3.369v1.172c0,1.318-0.439,2.417-1.318,3.296s-2.051,1.318-3.589,1.318
				s-2.783-0.439-3.662-1.318s-1.318-1.978-1.318-3.296V527.729z M276.343,528.9c0,0.586,0.146,1.099,0.513,1.538
				s0.806,0.586,1.392,0.586s1.099-0.22,1.392-0.586c0.293-0.439,0.513-0.879,0.513-1.538v-1.172c0-0.586-0.146-1.099-0.513-1.538
				s-0.806-0.659-1.392-0.659s-1.099,0.22-1.392,0.659s-0.513,0.952-0.513,1.538V528.9z M279.053,544.281l-2.197-1.172l11.06-17.651
				l2.197,1.172L279.053,544.281z M284.106,540.399c0-1.318,0.439-2.417,1.318-3.296s2.051-1.318,3.589-1.318
				s2.783,0.439,3.589,1.318c0.879,0.879,1.318,1.978,1.318,3.296v1.172c0,1.318-0.439,2.49-1.318,3.369s-2.051,1.318-3.589,1.318
				s-2.783-0.439-3.662-1.318s-1.318-1.978-1.318-3.296v-1.245H284.106z M287.183,541.645c0,0.586,0.146,1.099,0.513,1.538
				s0.806,0.659,1.392,0.659c0.659,0,1.172-0.22,1.465-0.586s0.439-0.879,0.439-1.538v-1.172c0-0.586-0.146-1.099-0.513-1.538
				s-0.806-0.659-1.392-0.659s-1.099,0.22-1.392,0.659s-0.513,0.952-0.513,1.538V541.645z"/>
		</g>
		<path id="XMLID_438_" fill="#FFFFFF" d="M67.31,541.352l0.073,0.146c0.073,4.248-1.245,7.544-3.882,9.888
			c-2.637,2.417-6.299,3.589-10.986,3.589c-4.761,0-8.569-1.538-11.499-4.614s-4.395-7.031-4.395-11.865v-7.837
			c0-4.834,1.392-8.789,4.248-11.865s6.592-4.614,11.206-4.614c4.834,0,8.569,1.172,11.279,3.516s4.028,5.64,3.955,9.961
			l-0.073,0.146h-7.617c0-2.563-0.586-4.395-1.831-5.64s-3.076-1.831-5.64-1.831c-2.344,0-4.248,0.952-5.566,2.856
			s-1.978,4.395-1.978,7.397v7.91c0,3.076,0.732,5.493,2.124,7.471c1.392,1.904,3.369,2.856,5.859,2.856
			c2.344,0,4.175-0.586,5.347-1.831s1.758-3.149,1.758-5.713h7.617V541.352z"/>
	</g>
</g>
</svg>
