<?xml version="1.0" ?><svg id="Layer_1" style="enable-background:new 0 0 512 512;" version="1.1" viewBox="0 0 512 512" xml:space="preserve" xmlns="http://www.w3.org/2000/svg" xmlns:xlink="http://www.w3.org/1999/xlink"><style type="text/css">
	.st0{fill:#ED746B;}
	.st1{fill:#D32D33;}
	.st2{fill:#008282;}
	.st3{fill:#FADB00;}
	.st4{fill:#13283B;}
	.st5{fill:#2A3F52;}
	.st6{fill:#F6A507;}
	.st7{fill:#01BDB3;}
</style><g id="XMLID_497_"><g id="XMLID_499_"><path class="st0" d="M266.7,68.5c0-3.4-2.8-6.2-6.2-6.2c-3.4,0-6.2,2.8-6.2,6.2c0,2.8,1.8,5.1,4.3,5.9v37h3.7v-37    C264.9,73.6,266.7,71.3,266.7,68.5z" id="XMLID_511_"/><path class="st1" d="M266.7,442.6c0,3.4-2.8,6.2-6.2,6.2c-3.4,0-6.2-2.8-6.2-6.2c0-2.8,1.8-5.1,4.3-5.9v-37h3.7    v37C264.9,437.5,266.7,439.8,266.7,442.6z" id="XMLID_502_"/></g><path class="st2" d="M132.6,118.9c-2.4-2.4-6.3-2.4-8.7,0c-2.4,2.4-2.4,6.3,0,8.7c1.9,1.9,4.9,2.3,7.2,1.1   l26.1,26.1l2.6-2.6l-26.1-26.1C135,123.8,134.6,120.9,132.6,118.9z" id="XMLID_525_"/><path class="st3" d="M397.1,383.4c2.4,2.4,2.4,6.3,0,8.7s-6.3,2.4-8.7,0c-1.9-1.9-2.3-4.9-1.1-7.2l-26.1-26.1   l2.6-2.6l26.1,26.1C392.2,381.1,395.2,381.5,397.1,383.4z" id="XMLID_520_"/><path class="st4" d="M73.5,249.4c-3.4,0-6.2,2.8-6.2,6.2c0,3.4,2.8,6.2,6.2,6.2c2.8,0,5.1-1.8,5.9-4.3h37v-3.7h-37   C78.6,251.2,76.3,249.4,73.5,249.4z" id="XMLID_545_"/><path class="st5" d="M447.6,249.4c3.4,0,6.2,2.8,6.2,6.2c0,3.4-2.8,6.2-6.2,6.2c-2.8,0-5.1-1.8-5.9-4.3h-37v-3.7   h37C442.5,251.2,444.8,249.4,447.6,249.4z" id="XMLID_544_"/><path class="st6" d="M123.9,383.4c-2.4,2.4-2.4,6.3,0,8.7c2.4,2.4,6.3,2.4,8.7,0c1.9-1.9,2.3-4.9,1.1-7.2   l26.1-26.1l-2.6-2.6l-26.1,26.1C128.8,381.1,125.9,381.5,123.9,383.4z" id="XMLID_548_"/><path class="st7" d="M388.4,118.9c2.4-2.4,6.3-2.4,8.7,0s2.4,6.3,0,8.7c-1.9,1.9-4.9,2.3-7.2,1.1l-26.1,26.1   l-2.6-2.6l26.1-26.1C386.1,123.8,386.5,120.9,388.4,118.9z" id="XMLID_547_"/><g id="XMLID_473_"><path class="st7" d="M385.4,76c-3.5,0-6.2,1.1-8.3,3.3c-2.1,2.2-3.1,5.3-3.1,9.2v8.7c0,3.9,1,7,3.1,9.2    c2.1,2.2,4.9,3.3,8.3,3.3c3.4,0,6.2-1.1,8.3-3.3c2.1-2.2,3.1-5.3,3.1-9.2v-8.7c0-3.9-1.1-7-3.2-9.2C391.6,77.1,388.8,76,385.4,76z     M389.2,97.7c0,2-0.3,3.6-1,4.6c-0.7,1-1.6,1.6-2.8,1.6c-1.2,0-2.2-0.5-2.9-1.6c-0.7-1-1-2.6-1-4.6V88c0-2,0.3-3.5,1-4.6    c0.7-1.1,1.6-1.6,2.8-1.6c1.2,0,2.1,0.5,2.8,1.6c0.7,1.1,1,2.6,1,4.6V97.7z" id="XMLID_535_"/><path class="st7" d="M411.2,103.4l0-0.1l4-4.8c2.9-3.1,4.9-5.5,6-7.1c1.1-1.6,1.6-3.4,1.6-5.5    c0-3.1-1-5.5-2.9-7.3c-2-1.8-4.7-2.6-8.3-2.6c-3.4,0-6.2,1.1-8.3,3.2c-2.1,2.1-3.1,4.7-3,7.7l0,0.1h7.5c0-1.5,0.3-2.7,1-3.7    s1.6-1.5,2.8-1.5c1.3,0,2.2,0.4,2.8,1.1c0.6,0.7,0.9,1.8,0.9,3c0,0.9-0.3,1.9-0.9,3.1c-0.6,1.2-1.6,2.6-3,4.1l-10.1,11.1v5h22.8    v-5.9H411.2z" id="XMLID_536_"/></g><g id="XMLID_514_"><path class="st3" d="M385.4,398c-3.5,0-6.2,1.1-8.3,3.3c-2.1,2.2-3.1,5.3-3.1,9.2v8.7c0,3.9,1,7,3.1,9.2    c2.1,2.2,4.9,3.3,8.3,3.3c3.4,0,6.2-1.1,8.3-3.3c2.1-2.2,3.1-5.3,3.1-9.2v-8.7c0-3.9-1.1-7-3.2-9.2    C391.6,399.1,388.8,398,385.4,398z M389.2,419.7c0,2-0.3,3.6-1,4.6c-0.7,1-1.6,1.6-2.8,1.6c-1.2,0-2.2-0.5-2.9-1.6    c-0.7-1-1-2.6-1-4.6V410c0-2,0.3-3.5,1-4.6c0.7-1.1,1.6-1.6,2.8-1.6c1.2,0,2.1,0.5,2.8,1.6c0.7,1.1,1,2.6,1,4.6V419.7z" id="XMLID_517_"/><path class="st3" d="M421,418.5v-20h-7.6v0.1l-13.5,21.2l0.5,4.7h13.1v6.9h7.6v-6.9h3.3v-5.9H421z M413.4,418.5    h-7l6-8.5l0.8-1.7l0.1,0V418.5z" id="XMLID_540_"/></g><g id="XMLID_503_"><path class="st6" d="M92.2,398c-3.5,0-6.2,1.1-8.3,3.3c-2.1,2.2-3.1,5.3-3.1,9.2v8.7c0,3.9,1,7,3.1,9.2    c2.1,2.2,4.9,3.3,8.3,3.3c3.4,0,6.2-1.1,8.3-3.3c2.1-2.2,3.1-5.3,3.1-9.2v-8.7c0-3.9-1.1-7-3.2-9.2C98.4,399.1,95.7,398,92.2,398z     M96.1,419.7c0,2-0.3,3.6-1,4.6c-0.7,1-1.6,1.6-2.8,1.6c-1.2,0-2.2-0.5-2.9-1.6c-0.7-1-1-2.6-1-4.6V410c0-2,0.3-3.5,1-4.6    c0.7-1.1,1.6-1.6,2.8-1.6c1.2,0,2.1,0.5,2.8,1.6c0.7,1.1,1,2.6,1,4.6V419.7z" id="XMLID_506_"/><path class="st6" d="M128.5,412.7c-1.5-2-3.7-3.1-6.5-3.1c-1.5,0-2.9,0.2-4.1,0.7s-2.2,1.1-3.1,1.9v-0.3    c0-2.6,0.6-4.6,1.7-5.9s2.6-2,4.5-2c1,0,1.9,0.1,2.6,0.2c0.8,0.2,1.7,0.4,2.7,0.7l1.3-5.5c-1.2-0.5-2.3-0.8-3.3-1    c-1-0.2-2.1-0.3-3.4-0.3c-4,0-7.3,1.2-9.9,3.7c-2.6,2.5-3.8,5.9-3.8,10.2v6.6c0,4.1,1.1,7.3,3.3,9.7c2.2,2.4,5.1,3.5,8.7,3.5    c3.4,0,6.1-1,8.3-3.1c2.1-2.1,3.2-4.8,3.2-8C130.9,417.4,130.1,414.7,128.5,412.7z M122.1,424.4c-0.7,1-1.7,1.5-2.8,1.5    c-1.4,0-2.5-0.6-3.3-1.9c-0.8-1.3-1.2-3.1-1.2-5.5v-1.5c0.4-0.5,1-0.9,1.8-1.2c0.8-0.3,1.7-0.4,2.8-0.4c1.1,0,2,0.5,2.7,1.4    c0.7,0.9,1,2.2,1,3.9C123.2,422.1,122.9,423.4,122.1,424.4z" id="XMLID_541_"/></g><g id="XMLID_491_"><path class="st2" d="M91.9,78.3c-3.5,0-6.2,1.1-8.3,3.3c-2.1,2.2-3.1,5.3-3.1,9.2v8.7c0,3.9,1,7,3.1,9.2    c2.1,2.2,4.9,3.3,8.3,3.3c3.4,0,6.2-1.1,8.3-3.3c2.1-2.2,3.1-5.3,3.1-9.2v-8.7c0-3.9-1.1-7-3.2-9.2C98.1,79.4,95.4,78.3,91.9,78.3    z M95.8,100c0,2-0.3,3.6-1,4.6c-0.7,1-1.6,1.6-2.8,1.6c-1.2,0-2.2-0.5-2.9-1.6c-0.7-1-1-2.6-1-4.6v-9.7c0-2,0.3-3.5,1-4.6    c0.7-1.1,1.6-1.6,2.8-1.6c1.2,0,2.1,0.5,2.8,1.6c0.7,1.1,1,2.6,1,4.6V100z" id="XMLID_494_"/><path class="st2" d="M129.3,97.7c-1-1.4-2.4-2.4-4.1-3.2c1.4-0.7,2.5-1.7,3.3-3c0.8-1.2,1.2-2.6,1.2-4.2    c0-2.9-1-5.2-2.9-6.7c-1.9-1.6-4.5-2.3-7.6-2.3c-3.3,0-5.9,0.8-7.9,2.4c-2,1.6-3,3.8-3,6.7c0,1.6,0.4,3,1.3,4.2    c0.8,1.2,2,2.2,3.5,2.9c-1.8,0.8-3.3,1.8-4.3,3.2c-1.1,1.4-1.6,2.9-1.6,4.7c0,3.1,1.1,5.4,3.4,7.1c2.3,1.7,5.2,2.6,8.8,2.6    c3.4,0,6.2-0.9,8.4-2.6c2.2-1.7,3.3-4.1,3.3-7.2C130.9,100.6,130.3,99.1,129.3,97.7z M116.7,85.1c0.6-0.6,1.4-0.9,2.4-0.9    c0.9,0,1.6,0.3,2.2,0.9c0.5,0.6,0.8,1.5,0.8,2.7c0,1.2-0.3,2.1-0.8,2.8s-1.2,1-2.1,1c-1,0-1.9-0.3-2.5-1s-0.9-1.6-0.9-2.8    C115.8,86.6,116.1,85.7,116.7,85.1z M122.1,105.1c-0.8,0.8-1.7,1.2-2.9,1.2c-1.3,0-2.4-0.4-3.3-1.2c-0.9-0.8-1.3-1.8-1.3-3.1    c0-1.3,0.4-2.4,1.3-3.2c0.9-0.8,1.9-1.2,3.2-1.2c1.2,0,2.2,0.4,2.9,1.2c0.8,0.8,1.2,1.9,1.2,3.2    C123.2,103.3,122.8,104.3,122.1,105.1z" id="XMLID_542_"/></g><path class="st0" d="M245.5,23.7c-3.5,0-6.2,1.1-8.3,3.3c-2.1,2.2-3.1,5.3-3.1,9.2V45c0,3.9,1,7,3.1,9.2   c2.1,2.2,4.9,3.3,8.3,3.3c3.4,0,6.2-1.1,8.3-3.3C256,52,257,48.9,257,45v-8.7c0-3.9-1.1-7-3.2-9.2C251.7,24.8,249,23.7,245.5,23.7z    M249.4,45.4c0,2-0.3,3.6-1,4.6c-0.7,1-1.6,1.6-2.8,1.6c-1.2,0-2.2-0.5-2.9-1.6c-0.7-1-1-2.6-1-4.6v-9.7c0-2,0.3-3.5,1-4.6   c0.7-1.1,1.6-1.6,2.8-1.6c1.2,0,2.1,0.5,2.8,1.6c0.7,1.1,1,2.6,1,4.6V45.4z" id="XMLID_513_"/><polygon class="st0" id="XMLID_530_" points="270.2,57 277.9,57 277.9,23.7 263.6,24.9 263.6,30.7 270.2,30.7  "/><path class="st1" d="M242.5,454.5c-3.5,0-6.2,1.1-8.3,3.3c-2.1,2.2-3.1,5.3-3.1,9.2v8.7c0,3.9,1,7,3.1,9.2   c2.1,2.2,4.9,3.3,8.3,3.3c3.4,0,6.2-1.1,8.3-3.3c2.1-2.2,3.1-5.3,3.1-9.2V467c0-3.9-1.1-7-3.2-9.2   C248.7,455.6,246,454.5,242.5,454.5z M246.4,476.2c0,2-0.3,3.6-1,4.6c-0.7,1-1.6,1.6-2.8,1.6c-1.2,0-2.2-0.5-2.9-1.6   c-0.7-1-1-2.6-1-4.6v-9.7c0-2,0.3-3.5,1-4.6c0.7-1.1,1.6-1.6,2.8-1.6c1.2,0,2.1,0.5,2.8,1.6c0.7,1.1,1,2.6,1,4.6V476.2z" id="XMLID_534_"/><path class="st1" d="M278.4,469c-1.6-1.9-4-2.9-7-2.8c-1.1,0-2.2,0.2-3.1,0.5c-1,0.3-1.7,0.6-2.4,1.1l0.8-6.8h13.1   V455h-19.2l-1.9,18.4l6.8,0.4c0.2-0.7,0.7-1.2,1.3-1.6c0.6-0.4,1.4-0.7,2.4-0.7c1.4,0,2.4,0.5,3.1,1.6c0.6,1,1,2.5,1,4.3   c0,1.7-0.3,3-0.8,3.9c-0.6,0.9-1.5,1.3-3,1.3c-1.2,0-2.2-0.3-2.9-1c-0.7-0.7-1.1-1.6-1.1-2.7l-7.5,0.5l0,0.1   c-0.1,2.7,1,4.9,3.3,6.5c2.3,1.6,5,2.5,8.2,2.5c3.9,0,6.8-1,8.7-3.1c1.8-2.1,2.8-4.7,2.8-7.9C280.9,473.7,280.1,470.9,278.4,469z" id="XMLID_537_"/><g id="XMLID_495_"><path class="st5" d="M467.2,239.1c-3.5,0-6.2,1.1-8.3,3.3c-2.1,2.2-3.1,5.3-3.1,9.2v8.7c0,3.9,1,7,3.1,9.2    c2.1,2.2,4.9,3.3,8.3,3.3c3.4,0,6.2-1.1,8.3-3.3c2.1-2.2,3.1-5.3,3.1-9.2v-8.7c0-3.9-1.1-7-3.2-9.2    C473.4,240.2,470.6,239.1,467.2,239.1z M471,260.8c0,2-0.3,3.6-1,4.6c-0.7,1-1.6,1.6-2.8,1.6c-1.2,0-2.2-0.5-2.9-1.6    c-0.7-1-1-2.6-1-4.6v-9.7c0-2,0.3-3.5,1-4.6c0.7-1.1,1.6-1.6,2.8-1.6c1.2,0,2.1,0.5,2.8,1.6c0.7,1.1,1,2.6,1,4.6V260.8z" id="XMLID_507_"/><path class="st5" d="M504.6,258.5c-1-1.3-2.3-2.3-4.1-2.9c1.5-0.7,2.8-1.7,3.7-3c0.9-1.2,1.4-2.6,1.4-4.1    c0-3-1.1-5.3-3.2-6.9c-2.1-1.6-5-2.4-8.6-2.4c-3.1,0-5.7,0.8-7.8,2.4s-3.2,3.7-3.1,6.4l0,0.1h7.4c0-0.9,0.3-1.7,1-2.2    c0.7-0.6,1.5-0.8,2.4-0.8c1.3,0,2.3,0.4,3,1.1c0.8,0.7,1.1,1.6,1.1,2.6c0,1.3-0.4,2.3-1.1,3.1c-0.7,0.7-1.8,1.1-3.2,1.1H490v5.7    h3.6c1.5,0,2.7,0.4,3.5,1.1c0.8,0.7,1.3,1.9,1.3,3.5c0,1.1-0.4,2.1-1.3,2.8c-0.9,0.8-2,1.1-3.4,1.1c-1.1,0-2.1-0.4-2.8-1.1    c-0.7-0.7-1.1-1.6-1.1-2.7h-7.4l0,0.1c-0.1,3.1,1,5.4,3.3,7c2.3,1.6,5,2.4,8.1,2.4c3.6,0,6.5-0.9,8.8-2.6c2.3-1.7,3.5-4.1,3.5-7.1    C506,261.4,505.5,259.8,504.6,258.5z" id="XMLID_518_"/></g><path class="st4" d="M17.4,239.1c-3.5,0-6.2,1.1-8.3,3.3C7,244.7,6,247.7,6,251.6v8.7c0,3.9,1,7,3.1,9.2   c2.1,2.2,4.9,3.3,8.3,3.3c3.4,0,6.2-1.1,8.3-3.3c2.1-2.2,3.1-5.3,3.1-9.2v-8.7c0-3.9-1.1-7-3.2-9.2   C23.6,240.2,20.8,239.1,17.4,239.1z M21.3,260.8c0,2-0.3,3.6-1,4.6c-0.7,1-1.6,1.6-2.8,1.6c-1.2,0-2.2-0.5-2.9-1.6   c-0.7-1-1-2.6-1-4.6v-9.7c0-2,0.3-3.5,1-4.6c0.7-1.1,1.6-1.6,2.8-1.6c1.2,0,2.1,0.5,2.8,1.6c0.7,1.1,1,2.6,1,4.6V260.8z" id="XMLID_524_"/><path class="st4" d="M32.1,245.4h16.4c-3.1,3.4-5.4,6.9-7,10.6c-1.6,3.7-2.4,7.7-2.4,12.1v4.3h7.6v-4.3   c0-4.5,0.6-8.3,1.9-11.7c1.3-3.3,3.7-7,7.2-11v-5.9H32.1V245.4z" id="XMLID_526_"/><g id="XMLID_454_"><polygon class="st5" id="XMLID_478_" points="391.5,200 391.5,312.2 419.2,323.7 419.2,188.5   "/><polygon class="st0" id="XMLID_471_" points="188.4,92.9 199.9,120.6 312.1,120.6 323.6,92.9   "/><polygon class="st7" id="XMLID_472_" points="323.6,92.9 312.1,120.6 391.5,200 419.2,188.5   "/><polygon class="st2" id="XMLID_480_" points="188.4,92.9 199.9,120.6 120.5,200 92.8,188.5   "/><polygon class="st1" id="XMLID_484_" points="188.4,419.1 199.9,391.4 312.1,391.4 323.6,419.1   "/><polygon class="st3" id="XMLID_483_" points="323.6,419.1 312.1,391.4 391.5,312 419.2,323.5   "/><polygon class="st6" id="XMLID_482_" points="188.4,419.1 199.9,391.4 120.5,312 92.8,323.5   "/><polygon class="st4" id="XMLID_479_" points="120.5,200 120.5,312.2 92.8,323.7 92.8,188.5   "/></g></g></svg>