<?xml version="1.0" encoding="utf-8"?>
<!-- Generator: Adobe Illustrator 16.0.0, SVG Export Plug-In . SVG Version: 6.00 Build 0)  -->
<!DOCTYPE svg PUBLIC "-//W3C//DTD SVG 1.1//EN" "http://www.w3.org/Graphics/SVG/1.1/DTD/svg11.dtd">
<svg version="1.1" id="Layer_1" xmlns="http://www.w3.org/2000/svg" xmlns:xlink="http://www.w3.org/1999/xlink" x="0px" y="0px"
	 width="371.191px" height="365.918px" viewBox="0 223.114 371.191 365.918" enable-background="new 0 223.114 371.191 365.918"
	 xml:space="preserve">
<g id="XMLID_612_">
	<g id="XMLID_593_">
		<path id="XMLID_621_" fill="#FFFFFF" d="M146.411,373.7h-15.015v0.146l-26.587,41.602l0.879,9.229h25.635v13.55h15.015v-13.623
			h6.519v-11.646h-6.519V373.7H146.411z M131.396,413.031H117.7l11.792-16.772l1.611-3.296l0.293,0.073V413.031z"/>
		<path id="XMLID_639_" fill="#FFFFFF" d="M181.567,372.748c-6.812,0-12.231,2.197-16.333,6.519
			c-4.102,4.395-6.152,10.4-6.152,18.091v17.139c0,7.69,2.051,13.77,6.152,18.091c4.102,4.395,9.595,6.519,16.333,6.519
			s12.158-2.197,16.26-6.519c4.102-4.395,6.152-10.4,6.152-18.091v-17.139c0-7.69-2.051-13.696-6.226-18.091
			C193.726,374.945,188.306,372.748,181.567,372.748z M189.111,415.448c0,4.028-0.659,7.031-1.978,9.082s-3.149,3.076-5.493,3.076
			c-2.417,0-4.321-1.025-5.64-3.076s-1.978-5.127-1.978-9.082v-19.043c0-3.955,0.659-6.958,1.978-9.009s3.149-3.076,5.566-3.076
			c2.344,0,4.248,1.025,5.566,3.076s2.051,5.054,2.051,9.009v19.043H189.111z"/>
		<polygon id="XMLID_640_" fill="#FFFFFF" points="252.905,379.413 221.411,429.877 228.369,433.393 259.863,382.929 		"/>
		<path id="XMLID_643_" fill="#FFFFFF" d="M267.627,412.885c-2.49-2.49-6.006-3.735-10.693-3.735c-4.614,0-8.13,1.245-10.62,3.809
			c-2.49,2.49-3.735,5.713-3.735,9.521v3.442c0,3.809,1.245,7.031,3.809,9.521c2.49,2.49,6.079,3.735,10.693,3.735
			s8.13-1.245,10.547-3.735c2.49-2.49,3.735-5.713,3.735-9.521v-3.442C271.362,418.524,270.117,415.375,267.627,412.885z
			 M261.768,425.849c0,1.685-0.293,2.93-0.952,3.882s-1.904,1.392-3.735,1.392c-1.392,0-2.49-0.513-3.442-1.538
			s-1.392-2.271-1.392-3.662v-3.442c0-1.465,0.439-2.71,1.245-3.735s1.978-1.538,3.516-1.538s2.71,0.513,3.516,1.538
			s1.245,2.271,1.245,3.735V425.849z"/>
		<path id="XMLID_646_" fill="#FFFFFF" d="M236.938,399.042c2.49-2.49,3.735-5.64,3.735-9.521v-3.442
			c0-3.809-1.245-7.031-3.735-9.521s-6.079-3.809-10.693-3.809s-8.13,1.245-10.62,3.809c-2.49,2.49-3.735,5.713-3.735,9.521v3.442
			c0,3.809,1.245,6.958,3.735,9.521c2.49,2.49,6.079,3.735,10.693,3.735S234.448,401.532,236.938,399.042z M221.484,389.521v-3.442
			c0-1.465,0.439-2.71,1.245-3.735s1.978-1.538,3.516-1.538s2.71,0.513,3.516,1.538s1.245,2.271,1.245,3.735v3.442
			c0,1.465-0.439,2.71-1.245,3.735s-1.978,1.465-3.516,1.465s-2.783-0.513-3.589-1.465
			C221.924,392.23,221.484,390.985,221.484,389.521z"/>
	</g>
	<g id="XMLID_611_">
		<g id="XMLID_577_">
			<path id="XMLID_581_" fill="#E7EBEC" d="M188.086,589.032c-48.926,0-94.922-19.043-129.492-53.613S4.98,454.853,4.98,405.927
				s19.043-94.849,53.613-129.419c34.644-34.644,80.566-53.687,129.492-53.687s94.922,19.043,129.492,53.613
				s53.613,80.566,53.613,129.492s-19.043,94.922-53.613,129.492S237.012,589.032,188.086,589.032z M188.086,256.146
				c-82.617,0-149.78,67.236-149.78,149.78s67.163,149.854,149.78,149.854s149.78-67.236,149.78-149.78
				S270.703,256.146,188.086,256.146z"/>
		</g>
		<g id="XMLID_578_">
			<path id="XMLID_580_" fill="#00B5FF" d="M288.428,559.149l-18.237-27.832c25.342-16.626,44.824-40.137,56.396-68.042
				c7.544-18.164,11.353-37.5,11.353-57.349c0-11.865-1.392-23.584-4.102-35.01c-7.69-32.007-26.074-61.011-51.855-81.812
				c-26.88-21.533-59.326-32.959-93.896-32.959v-33.325c21.24,0,42.041,3.589,61.816,10.693
				c19.116,6.885,36.914,16.846,52.808,29.663c31.494,25.342,54.053,60.864,63.428,99.976c3.296,13.916,5.054,28.345,5.054,42.773
				c0,24.243-4.688,47.827-13.916,70.093C343.213,510.077,319.336,538.861,288.428,559.149z"/>
		</g>
	</g>
</g>
</svg>
