<?xml version="1.0" encoding="utf-8"?>
<!-- Generator: Adobe Illustrator 16.0.0, SVG Export Plug-In . SVG Version: 6.00 Build 0)  -->
<!DOCTYPE svg PUBLIC "-//W3C//DTD SVG 1.1//EN" "http://www.w3.org/Graphics/SVG/1.1/DTD/svg11.dtd">
<svg version="1.1" id="Layer_1" xmlns="http://www.w3.org/2000/svg" xmlns:xlink="http://www.w3.org/1999/xlink" x="0px" y="0px"
	 width="375px" height="357.794px" viewBox="0 229.706 375 357.794" enable-background="new 0 229.706 375 357.794"
	 xml:space="preserve">
<g>
	<g>
		<g>
			<polygon id="XMLID_93_" fill="#FFFFFF" points="34.79,382.489 45.117,405.854 34.79,429.218 36.621,436.322 50.098,405.854 
				36.621,375.385 			"/>
		</g>
		<g>
			<polygon id="XMLID_92_" fill="#FFFFFF" points="19.629,382.489 29.883,405.854 19.629,429.218 21.387,436.322 34.863,405.854 
				21.387,375.385 			"/>
		</g>
		<g>
			<polygon id="XMLID_91_" fill="#FFFFFF" points="4.395,382.489 14.722,405.854 4.395,429.218 6.226,436.322 19.629,405.854 
				6.226,375.385 			"/>
		</g>
	</g>
	<g>
		<g>
			<polygon id="XMLID_90_" fill="#FFFFFF" points="80.42,382.489 90.674,405.854 80.42,429.218 82.178,436.322 95.654,405.854 
				82.178,375.385 			"/>
		</g>
		<g>
			<polygon id="XMLID_89_" fill="#FFFFFF" points="65.186,382.489 75.513,405.854 65.186,429.218 67.017,436.322 80.42,405.854 
				67.017,375.385 			"/>
		</g>
		<g>
			<polygon id="XMLID_88_" fill="#FFFFFF" points="49.951,382.489 60.278,405.854 49.951,429.218 51.782,436.322 65.259,405.854 
				51.782,375.385 			"/>
		</g>
	</g>
	<g>
		<g>
			<polygon id="XMLID_87_" fill="#FFFFFF" points="126.05,382.489 136.377,405.854 126.05,429.218 127.881,436.322 141.357,405.854 
				127.881,375.385 			"/>
		</g>
		<g>
			<polygon id="XMLID_86_" fill="#FFFFFF" points="110.889,382.489 121.216,405.854 110.889,429.218 112.72,436.322 
				126.123,405.854 112.72,375.385 			"/>
		</g>
		<g>
			<polygon id="XMLID_85_" fill="#FFFFFF" points="95.654,382.489 105.981,405.854 95.654,429.218 97.485,436.322 110.962,405.854 
				97.485,375.385 			"/>
		</g>
	</g>
	<g>
		<g>
			<polygon id="XMLID_84_" fill="#FFFFFF" points="65.186,501.874 67.017,508.905 80.42,478.583 67.017,448.188 65.186,455.292 
				75.513,478.583 			"/>
		</g>
		<g>
			<polygon id="XMLID_83_" fill="#FFFFFF" points="50.024,501.874 51.782,508.905 65.186,478.583 51.782,448.188 50.024,455.292 
				60.278,478.583 			"/>
		</g>
		<g>
			<polygon id="XMLID_82_" fill="#FFFFFF" points="34.79,501.874 36.621,508.905 50.024,478.583 36.621,448.188 34.79,455.292 
				45.044,478.583 			"/>
		</g>
		<g>
			<polygon id="XMLID_81_" fill="#FFFFFF" points="19.629,501.874 21.387,508.905 34.79,478.583 21.387,448.188 19.629,455.292 
				29.883,478.583 			"/>
		</g>
		<g>
			<polygon id="XMLID_80_" fill="#FFFFFF" points="4.395,501.874 6.226,508.905 19.629,478.583 6.226,448.188 4.395,455.292 
				14.648,478.583 			"/>
		</g>
	</g>
	<g>
		<g>
			<polygon id="XMLID_79_" fill="#FFFFFF" points="80.42,236.737 90.747,260.102 80.42,283.466 82.251,290.57 95.654,260.102 
				82.251,229.706 			"/>
		</g>
		<g>
			<polygon id="XMLID_78_" fill="#FFFFFF" points="65.186,236.737 75.513,260.102 65.186,283.466 67.017,290.57 80.493,260.102 
				67.017,229.706 			"/>
		</g>
		<g>
			<polygon id="XMLID_77_" fill="#FFFFFF" points="50.024,236.737 60.352,260.102 50.024,283.466 51.782,290.57 65.259,260.102 
				51.782,229.706 			"/>
		</g>
		<g>
			<polygon id="XMLID_76_" fill="#FFFFFF" points="34.79,236.737 45.117,260.102 34.79,283.466 36.621,290.57 50.024,260.102 
				36.621,229.706 			"/>
		</g>
		<g>
			<polygon id="XMLID_75_" fill="#FFFFFF" points="19.629,236.737 29.883,260.102 19.629,283.466 21.387,290.57 34.863,260.102 
				21.387,229.706 			"/>
		</g>
		<g>
			<polygon id="XMLID_74_" fill="#FFFFFF" points="4.395,236.737 14.722,260.102 4.395,283.466 6.226,290.57 19.629,260.102 
				6.226,229.706 			"/>
		</g>
	</g>
	<g>
		<g>
			<polygon id="XMLID_73_" fill="#FFFFFF" points="110.815,309.613 121.143,332.978 110.815,356.415 112.646,363.446 
				126.05,332.978 112.646,302.509 			"/>
		</g>
		<g>
			<polygon id="XMLID_72_" fill="#FFFFFF" points="95.581,309.613 105.908,332.978 95.581,356.415 97.412,363.446 110.889,332.978 
				97.412,302.509 			"/>
		</g>
		<g>
			<polygon id="XMLID_71_" fill="#FFFFFF" points="80.42,309.613 90.747,332.978 80.42,356.415 82.251,363.446 95.654,332.978 
				82.251,302.509 			"/>
		</g>
		<g>
			<polygon id="XMLID_70_" fill="#FFFFFF" points="65.186,309.613 75.513,332.978 65.186,356.415 67.017,363.446 80.493,332.978 
				67.017,302.509 			"/>
		</g>
		<g>
			<polygon id="XMLID_69_" fill="#FFFFFF" points="50.024,309.613 60.352,332.978 50.024,356.415 51.782,363.446 65.259,332.978 
				51.782,302.509 			"/>
		</g>
		<g>
			<polygon id="XMLID_68_" fill="#FFFFFF" points="34.79,309.613 45.117,332.978 34.79,356.415 36.621,363.446 50.098,332.978 
				36.621,302.509 			"/>
		</g>
		<g>
			<polygon id="XMLID_67_" fill="#FFFFFF" points="19.629,309.613 29.956,332.978 19.629,356.415 21.387,363.446 34.863,332.978 
				21.387,302.509 			"/>
		</g>
		<g>
			<polygon id="XMLID_66_" fill="#FFFFFF" points="4.395,309.613 14.722,332.978 4.395,356.415 6.226,363.446 19.629,332.978 
				6.226,302.509 			"/>
		</g>
	</g>
	<g>
		<g>
			<polygon id="XMLID_65_" fill="#FFFFFF" points="95.581,528.168 105.981,551.679 95.581,575.263 97.412,582.294 110.962,551.679 
				97.412,521.063 			"/>
		</g>
		<g>
			<polygon id="XMLID_64_" fill="#FFFFFF" points="80.42,528.168 90.82,551.679 80.42,575.263 82.251,582.294 95.728,551.679 
				82.251,521.063 			"/>
		</g>
		<g>
			<polygon id="XMLID_63_" fill="#FFFFFF" points="65.186,528.168 75.586,551.679 65.186,575.263 67.017,582.294 80.566,551.679 
				67.017,521.063 			"/>
		</g>
		<g>
			<polygon id="XMLID_62_" fill="#FFFFFF" points="50.024,528.168 60.425,551.679 50.024,575.263 51.782,582.294 65.332,551.679 
				51.782,521.063 			"/>
		</g>
		<g>
			<polygon id="XMLID_61_" fill="#FFFFFF" points="34.79,528.168 45.19,551.679 34.79,575.263 36.621,582.294 50.171,551.679 
				36.621,521.063 			"/>
		</g>
		<g>
			<polygon id="XMLID_60_" fill="#FFFFFF" points="19.629,528.168 29.956,551.679 19.629,575.263 21.387,582.294 34.937,551.679 
				21.387,521.063 			"/>
		</g>
		<g>
			<polygon id="XMLID_59_" fill="#FFFFFF" points="4.395,528.168 14.795,551.679 4.395,575.263 6.226,582.294 19.702,551.679 
				6.226,521.063 			"/>
		</g>
	</g>
	<g>
		<g>
			<polygon id="XMLID_58_" fill="#FFFFFF" points="141.284,501.288 143.115,508.393 156.519,477.997 143.115,447.675 
				141.284,454.706 151.538,477.997 			"/>
		</g>
		<g>
			<polygon id="XMLID_57_" fill="#FFFFFF" points="126.05,501.288 127.881,508.393 141.284,477.997 127.881,447.675 126.05,454.706 
				136.377,477.997 			"/>
		</g>
		<g>
			<polygon id="XMLID_56_" fill="#FFFFFF" points="110.889,501.288 112.72,508.393 126.123,477.997 112.72,447.675 110.889,454.706 
				121.143,477.997 			"/>
		</g>
		<g>
			<polygon id="XMLID_55_" fill="#FFFFFF" points="95.654,501.288 97.485,508.393 110.889,477.997 97.485,447.675 95.654,454.706 
				105.981,477.997 			"/>
		</g>
		<g>
			<polygon id="XMLID_54_" fill="#FFFFFF" points="80.493,501.288 82.251,508.393 95.654,477.997 82.251,447.675 80.493,454.706 
				90.747,477.997 			"/>
		</g>
	</g>
	<g>
		<g>
			<polygon id="XMLID_53_" fill="#FFFFFF" points="217.31,501.288 219.141,508.393 232.544,477.997 219.141,447.675 217.31,454.706 
				227.563,477.997 			"/>
		</g>
		<g>
			<polygon id="XMLID_52_" fill="#FFFFFF" points="202.075,501.288 203.906,508.393 217.31,477.997 203.906,447.675 
				202.075,454.706 212.402,477.997 			"/>
		</g>
		<g>
			<polygon id="XMLID_51_" fill="#FFFFFF" points="186.914,501.288 188.672,508.393 202.075,477.997 188.672,447.675 
				186.914,454.706 197.168,477.997 			"/>
		</g>
		<g>
			<polygon id="XMLID_50_" fill="#FFFFFF" points="171.68,501.288 173.511,508.393 186.914,477.997 173.511,447.675 171.68,454.706 
				181.934,477.997 			"/>
		</g>
		<g>
			<polygon id="XMLID_49_" fill="#FFFFFF" points="156.519,501.288 158.276,508.393 171.68,477.997 158.276,447.675 
				156.519,454.706 166.772,477.997 			"/>
		</g>
	</g>
	<g>
		<g>
			<polygon id="XMLID_48_" fill="#FFFFFF" points="171.68,236.737 182.007,260.102 171.68,283.466 173.438,290.57 186.914,260.102 
				173.438,229.706 			"/>
		</g>
		<g>
			<polygon id="XMLID_47_" fill="#FFFFFF" points="156.445,236.737 166.772,260.102 156.445,283.466 158.276,290.57 171.68,260.102 
				158.276,229.706 			"/>
		</g>
		<g>
			<polygon id="XMLID_46_" fill="#FFFFFF" points="141.284,236.737 151.538,260.102 141.284,283.466 143.042,290.57 
				156.519,260.102 143.042,229.706 			"/>
		</g>
		<g>
			<polygon id="XMLID_45_" fill="#FFFFFF" points="126.05,236.737 136.377,260.102 126.05,283.466 127.881,290.57 141.284,260.102 
				127.881,229.706 			"/>
		</g>
		<g>
			<polygon id="XMLID_44_" fill="#FFFFFF" points="110.815,236.737 121.143,260.102 110.815,283.466 112.646,290.57 
				126.123,260.102 112.646,229.706 			"/>
		</g>
		<g>
			<polygon id="XMLID_43_" fill="#FFFFFF" points="95.654,236.737 105.981,260.102 95.654,283.466 97.485,290.57 110.889,260.102 
				97.485,229.706 			"/>
		</g>
	</g>
	<g>
		<g>
			<polygon id="XMLID_42_" fill="#FFFFFF" points="247.705,236.737 257.959,260.102 247.705,283.466 249.463,290.57 
				262.939,260.102 249.463,229.706 			"/>
		</g>
		<g>
			<polygon id="XMLID_41_" fill="#FFFFFF" points="232.471,236.737 242.798,260.102 232.471,283.466 234.302,290.57 
				247.705,260.102 234.302,229.706 			"/>
		</g>
		<g>
			<polygon id="XMLID_40_" fill="#FFFFFF" points="217.236,236.737 227.563,260.102 217.236,283.466 219.067,290.57 
				232.544,260.102 219.067,229.706 			"/>
		</g>
		<g>
			<polygon id="XMLID_39_" fill="#FFFFFF" points="202.075,236.737 212.402,260.102 202.075,283.466 203.906,290.57 217.31,260.102 
				203.906,229.706 			"/>
		</g>
		<g>
			<polygon id="XMLID_38_" fill="#FFFFFF" points="186.841,236.737 197.168,260.102 186.841,283.466 188.672,290.57 
				202.148,260.102 188.672,229.706 			"/>
		</g>
		<g>
			<polygon id="XMLID_37_" fill="#FFFFFF" points="171.68,236.737 182.007,260.102 171.68,283.466 173.438,290.57 186.914,260.102 
				173.438,229.706 			"/>
		</g>
	</g>
	<g>
		<g>
			<polygon id="XMLID_36_" fill="#FFFFFF" points="262.866,236.737 273.193,260.102 262.866,283.466 264.624,290.57 
				278.101,260.102 264.624,229.706 			"/>
		</g>
		<g>
			<polygon id="XMLID_35_" fill="#FFFFFF" points="247.632,236.737 257.959,260.102 247.632,283.466 249.463,290.57 
				262.866,260.102 249.463,229.706 			"/>
		</g>
		<g>
			<polygon id="XMLID_34_" fill="#FFFFFF" points="232.471,236.737 242.725,260.102 232.471,283.466 234.229,290.57 
				247.705,260.102 234.229,229.706 			"/>
		</g>
		<g>
			<polygon id="XMLID_33_" fill="#FFFFFF" points="217.236,236.737 227.563,260.102 217.236,283.466 219.067,290.57 
				232.471,260.102 219.067,229.706 			"/>
		</g>
		<g>
			<polygon id="XMLID_32_" fill="#FFFFFF" points="202.002,236.737 212.329,260.102 202.002,283.466 203.833,290.57 217.31,260.102 
				203.833,229.706 			"/>
		</g>
		<g>
			<polygon id="XMLID_31_" fill="#FFFFFF" points="186.841,236.737 197.168,260.102 186.841,283.466 188.672,290.57 
				202.075,260.102 188.672,229.706 			"/>
		</g>
	</g>
	<g>
		<g>
			<polygon id="XMLID_30_" fill="#FFFFFF" points="233.569,309.027 243.896,332.392 233.569,355.829 235.4,362.934 248.877,332.392 
				235.4,301.923 			"/>
		</g>
		<g>
			<polygon id="XMLID_29_" fill="#FFFFFF" points="218.408,309.027 228.735,332.392 218.408,355.829 220.166,362.934 
				233.643,332.392 220.166,301.923 			"/>
		</g>
		<g>
			<polygon id="XMLID_28_" fill="#FFFFFF" points="203.174,309.027 213.501,332.392 203.174,355.829 205.005,362.934 
				218.408,332.392 205.005,301.923 			"/>
		</g>
		<g>
			<polygon id="XMLID_27_" fill="#FFFFFF" points="187.939,309.027 198.267,332.392 187.939,355.829 189.771,362.934 
				203.247,332.392 189.771,301.923 			"/>
		</g>
		<g>
			<polygon id="XMLID_26_" fill="#FFFFFF" points="172.778,309.027 183.105,332.392 172.778,355.829 174.609,362.934 
				188.013,332.392 174.609,301.923 			"/>
		</g>
		<g>
			<polygon id="XMLID_25_" fill="#FFFFFF" points="157.544,309.027 167.871,332.392 157.544,355.829 159.375,362.934 
				172.852,332.392 159.375,301.923 			"/>
		</g>
		<g>
			<polygon id="XMLID_24_" fill="#FFFFFF" points="142.383,309.027 152.71,332.392 142.383,355.829 144.141,362.934 
				157.617,332.392 144.141,301.923 			"/>
		</g>
		<g>
			<polygon id="XMLID_23_" fill="#FFFFFF" points="127.148,309.027 137.476,332.392 127.148,355.829 128.979,362.934 
				142.456,332.392 128.979,301.923 			"/>
		</g>
	</g>
	<g>
		<g>
			<polygon id="XMLID_22_" fill="#FFFFFF" points="355.371,309.027 365.698,332.392 355.371,355.829 357.129,362.934 
				370.605,332.392 357.129,301.923 			"/>
		</g>
		<g>
			<polygon id="XMLID_21_" fill="#FFFFFF" points="340.137,309.027 350.464,332.392 340.137,355.829 341.968,362.934 
				355.371,332.392 341.968,301.923 			"/>
		</g>
		<g>
			<polygon id="XMLID_20_" fill="#FFFFFF" points="324.902,309.027 335.229,332.392 324.902,355.829 326.733,362.934 
				340.21,332.392 326.733,301.923 			"/>
		</g>
		<g>
			<polygon id="XMLID_19_" fill="#FFFFFF" points="309.741,309.027 320.068,332.392 309.741,355.829 311.499,362.934 
				324.976,332.392 311.499,301.923 			"/>
		</g>
		<g>
			<polygon id="XMLID_18_" fill="#FFFFFF" points="294.507,309.027 304.834,332.392 294.507,355.829 296.338,362.934 
				309.814,332.392 296.338,301.923 			"/>
		</g>
		<g>
			<polygon id="XMLID_17_" fill="#FFFFFF" points="279.346,309.027 289.673,332.392 279.346,355.829 281.104,362.934 
				294.58,332.392 281.104,301.923 			"/>
		</g>
		<g>
			<polygon id="XMLID_16_" fill="#FFFFFF" points="264.111,309.027 274.438,332.392 264.111,355.829 265.942,362.934 
				279.419,332.392 265.942,301.923 			"/>
		</g>
		<g>
			<polygon id="XMLID_15_" fill="#FFFFFF" points="248.95,309.027 259.277,332.392 248.95,355.829 250.708,362.934 264.185,332.392 
				250.708,301.923 			"/>
		</g>
	</g>
	<g>
		<g>
			<polygon id="XMLID_14_" fill="#FFFFFF" points="203.174,527.582 213.501,551.093 203.174,574.677 204.932,581.781 
				218.481,551.093 204.932,520.478 			"/>
		</g>
		<g>
			<polygon id="XMLID_13_" fill="#FFFFFF" points="187.939,527.582 198.34,551.093 187.939,574.677 189.771,581.781 
				203.247,551.093 189.771,520.478 			"/>
		</g>
		<g>
			<polygon id="XMLID_12_" fill="#FFFFFF" points="172.705,527.582 183.105,551.093 172.705,574.677 174.536,581.781 
				188.086,551.093 174.536,520.478 			"/>
		</g>
		<g>
			<polygon id="XMLID_11_" fill="#FFFFFF" points="157.544,527.582 167.944,551.093 157.544,574.677 159.302,581.781 
				172.852,551.093 159.302,520.478 			"/>
		</g>
		<g>
			<polygon id="XMLID_10_" fill="#FFFFFF" points="142.31,527.582 152.71,551.093 142.31,574.677 144.141,581.781 157.69,551.093 
				144.141,520.478 			"/>
		</g>
		<g>
			<polygon id="XMLID_9_" fill="#FFFFFF" points="127.148,527.582 137.549,551.093 127.148,574.677 128.906,581.781 
				142.456,551.093 128.906,520.478 			"/>
		</g>
		<g>
			<polygon id="XMLID_8_" fill="#FFFFFF" points="111.914,527.582 122.314,551.093 111.914,574.677 113.745,581.781 
				127.222,551.093 113.745,520.478 			"/>
		</g>
	</g>
	<g>
		<g>
			<polygon id="XMLID_7_" fill="#FFFFFF" points="309.595,527.582 319.922,551.093 309.595,574.677 311.353,581.781 
				324.902,551.093 311.353,520.478 			"/>
		</g>
		<g>
			<polygon id="XMLID_6_" fill="#FFFFFF" points="294.36,527.582 304.761,551.093 294.36,574.677 296.191,581.781 309.668,551.093 
				296.191,520.478 			"/>
		</g>
		<g>
			<polygon id="XMLID_5_" fill="#FFFFFF" points="279.126,527.582 289.526,551.093 279.126,574.677 280.957,581.781 
				294.507,551.093 280.957,520.478 			"/>
		</g>
		<g>
			<polygon id="XMLID_4_" fill="#FFFFFF" points="263.965,527.582 274.365,551.093 263.965,574.677 265.723,581.781 
				279.272,551.093 265.723,520.478 			"/>
		</g>
		<g>
			<polygon id="XMLID_3_" fill="#FFFFFF" points="248.73,527.582 259.131,551.093 248.73,574.677 250.562,581.781 264.111,551.093 
				250.562,520.478 			"/>
		</g>
		<g>
			<polygon id="XMLID_2_" fill="#FFFFFF" points="233.569,527.582 243.97,551.093 233.569,574.677 235.327,581.781 248.877,551.093 
				235.327,520.478 			"/>
		</g>
		<g>
			<polygon id="XMLID_1_" fill="#FFFFFF" points="218.335,527.582 228.735,551.093 218.335,574.677 220.166,581.781 
				233.643,551.093 220.166,520.478 			"/>
		</g>
	</g>
</g>
</svg>
