<?xml version="1.0" encoding="utf-8"?>
<!-- Generator: Adobe Illustrator 16.0.0, SVG Export Plug-In . SVG Version: 6.00 Build 0)  -->
<!DOCTYPE svg PUBLIC "-//W3C//DTD SVG 1.1//EN" "http://www.w3.org/Graphics/SVG/1.1/DTD/svg11.dtd">
<svg version="1.1" id="Layer_1" xmlns="http://www.w3.org/2000/svg" xmlns:xlink="http://www.w3.org/1999/xlink" x="0px" y="0px"
	 width="375px" height="346px" viewBox="0 232.5 375 346" enable-background="new 0 232.5 375 346" xml:space="preserve">
<g>
	<rect id="XMLID_43_" x="4.395" y="412.519" fill="#FFFFFF" width="60.498" height="13.696"/>
	<rect id="XMLID_42_" x="4.395" y="467.377" fill="#FFFFFF" width="60.498" height="13.696"/>
	<rect id="XMLID_41_" x="4.395" y="494.77" fill="#FFFFFF" width="60.498" height="13.696"/>
	<rect id="XMLID_40_" x="4.395" y="330.194" fill="#FFFFFF" width="60.498" height="13.696"/>
	<rect id="XMLID_39_" x="4.395" y="357.66" fill="#FFFFFF" width="60.498" height="13.696"/>
	<rect id="XMLID_38_" x="4.395" y="385.053" fill="#FFFFFF" width="60.498" height="13.696"/>
	<rect id="XMLID_37_" x="4.395" y="439.911" fill="#FFFFFF" width="60.498" height="13.696"/>
	<rect id="XMLID_36_" x="4.395" y="522.235" fill="#FFFFFF" width="60.498" height="13.696"/>
	<rect id="XMLID_35_" x="4.395" y="549.628" fill="#FFFFFF" width="60.498" height="14.429"/>
	<rect id="XMLID_34_" x="80.786" y="275.336" fill="#FFFFFF" width="60.498" height="13.696"/>
	<rect id="XMLID_33_" x="80.786" y="385.053" fill="#FFFFFF" width="60.498" height="13.696"/>
	<rect id="XMLID_32_" x="80.786" y="412.519" fill="#FFFFFF" width="60.498" height="13.696"/>
	<rect id="XMLID_31_" x="80.786" y="302.802" fill="#FFFFFF" width="60.498" height="13.696"/>
	<rect id="XMLID_30_" x="80.786" y="549.628" fill="#FFFFFF" width="60.498" height="14.429"/>
	<rect id="XMLID_29_" x="80.786" y="522.235" fill="#FFFFFF" width="60.498" height="13.696"/>
	<rect id="XMLID_28_" x="80.786" y="330.194" fill="#FFFFFF" width="60.498" height="13.696"/>
	<rect id="XMLID_27_" x="80.786" y="494.77" fill="#FFFFFF" width="60.498" height="13.696"/>
	<rect id="XMLID_26_" x="80.786" y="439.911" fill="#FFFFFF" width="60.498" height="13.696"/>
	<rect id="XMLID_25_" x="80.786" y="467.377" fill="#FFFFFF" width="60.498" height="13.696"/>
	<rect id="XMLID_24_" x="80.786" y="357.66" fill="#FFFFFF" width="60.498" height="13.696"/>
	<rect id="XMLID_23_" x="80.786" y="247.943" fill="#FFFFFF" width="60.498" height="13.696"/>
	<rect id="XMLID_22_" x="157.251" y="468.402" fill="#FFFFFF" width="60.498" height="12.671"/>
	<rect id="XMLID_21_" x="157.251" y="522.235" fill="#FFFFFF" width="60.498" height="13.696"/>
	<rect id="XMLID_20_" x="157.251" y="494.77" fill="#FFFFFF" width="60.498" height="13.696"/>
	<rect id="XMLID_19_" x="157.251" y="549.628" fill="#FFFFFF" width="60.498" height="14.429"/>
	<rect id="XMLID_18_" x="233.643" y="385.053" fill="#FFFFFF" width="60.498" height="13.696"/>
	<rect id="XMLID_17_" x="233.643" y="522.235" fill="#FFFFFF" width="60.498" height="13.696"/>
	<rect id="XMLID_16_" x="233.643" y="549.628" fill="#FFFFFF" width="60.498" height="14.429"/>
	<rect id="XMLID_15_" x="233.643" y="494.77" fill="#FFFFFF" width="60.498" height="13.696"/>
	<rect id="XMLID_14_" x="233.643" y="439.911" fill="#FFFFFF" width="60.498" height="13.696"/>
	<rect id="XMLID_13_" x="233.643" y="467.377" fill="#FFFFFF" width="60.498" height="13.696"/>
	<rect id="XMLID_12_" x="233.643" y="412.519" fill="#FFFFFF" width="60.498" height="13.696"/>
	<rect id="XMLID_11_" x="310.107" y="412.519" fill="#FFFFFF" width="60.498" height="13.696"/>
	<rect id="XMLID_10_" x="310.107" y="385.053" fill="#FFFFFF" width="60.498" height="13.696"/>
	<rect id="XMLID_9_" x="310.107" y="357.66" fill="#FFFFFF" width="60.498" height="13.696"/>
	<rect id="XMLID_8_" x="310.107" y="302.802" fill="#FFFFFF" width="60.498" height="13.696"/>
	<rect id="XMLID_7_" x="310.107" y="275.336" fill="#FFFFFF" width="60.498" height="13.696"/>
	<rect id="XMLID_6_" x="310.107" y="330.194" fill="#FFFFFF" width="60.498" height="13.696"/>
	<rect id="XMLID_5_" x="310.107" y="549.628" fill="#FFFFFF" width="60.498" height="14.429"/>
	<rect id="XMLID_4_" x="310.107" y="467.377" fill="#FFFFFF" width="60.498" height="13.696"/>
	<rect id="XMLID_3_" x="310.107" y="494.77" fill="#FFFFFF" width="60.498" height="13.696"/>
	<rect id="XMLID_2_" x="310.107" y="522.235" fill="#FFFFFF" width="60.498" height="13.696"/>
	<rect id="XMLID_1_" x="310.107" y="439.911" fill="#FFFFFF" width="60.498" height="13.696"/>
</g>
</svg>
