<?xml version="1.0" encoding="utf-8"?>
<!-- Generator: Adobe Illustrator 16.0.0, SVG Export Plug-In . SVG Version: 6.00 Build 0)  -->
<!DOCTYPE svg PUBLIC "-//W3C//DTD SVG 1.1//EN" "http://www.w3.org/Graphics/SVG/1.1/DTD/svg11.dtd">
<svg version="1.1" id="Capa_1" xmlns="http://www.w3.org/2000/svg" xmlns:xlink="http://www.w3.org/1999/xlink" x="0px" y="0px"
	 width="468.067px" height="468.067px" viewBox="0 0 468.067 468.067" enable-background="new 0 0 468.067 468.067"
	 xml:space="preserve">
<g>
	<path fill="#00AAF1" d="M431.379,0.225H36.685C16.458,0.225,0,16.674,0,36.898v394.269c0,20.221,16.458,36.676,36.685,36.676
		h394.694c20.232,0,36.689-16.455,36.689-36.676V36.898C468.063,16.668,451.606,0.225,431.379,0.225z M406.518,41.969
		c8.68,0,15.713,7.04,15.713,15.72c0,8.683-7.033,15.717-15.713,15.717c-8.688,0-15.723-7.04-15.723-15.717
		C390.795,49.009,397.831,41.969,406.518,41.969z M350.19,41.969c8.688,0,15.723,7.04,15.723,15.72
		c0,8.683-7.035,15.717-15.723,15.717c-8.686,0-15.713-7.04-15.713-15.717C334.479,49.009,341.512,41.969,350.19,41.969z
		 M426.143,112.429v143.519H41.919V112.429H426.143z M41.919,425.924V272.09h384.224v153.84H41.919V425.924z"/>
</g>
</svg>
