<?xml version="1.0" encoding="utf-8"?>
<!-- Generator: Adobe Illustrator 16.0.0, SVG Export Plug-In . SVG Version: 6.00 Build 0)  -->
<!DOCTYPE svg PUBLIC "-//W3C//DTD SVG 1.1//EN" "http://www.w3.org/Graphics/SVG/1.1/DTD/svg11.dtd">
<svg version="1.1" id="Layer_1_1_" xmlns="http://www.w3.org/2000/svg" xmlns:xlink="http://www.w3.org/1999/xlink" x="0px" y="0px"
	 width="375px" height="376px" viewBox="0 218.5 375 376" enable-background="new 0 218.5 375 376" xml:space="preserve">
<g>
	<g>
		<g>
			<path fill="#E5D500" d="M227.232,587.641h-79.465l-9.346-37.395c-6.152-2.098-12.246-4.629-18.188-7.564l-33.082,19.852
				l-52.951-52.951l8.285-8.285l46.488,46.488l30.82-18.498l2.912,1.518c7.26,3.779,14.789,6.908,22.377,9.299l3.123,0.99
				l8.713,34.828h61.16l8.713-34.834l3.123-0.99c7.588-2.391,15.117-5.52,22.377-9.299l2.912-1.518l30.82,18.498l43.254-43.254
				l-18.498-30.82l1.518-2.912c3.773-7.248,6.902-14.777,9.305-22.377l0.984-3.129l34.834-8.707v-61.16l-34.834-8.713l-0.99-3.123
				c-2.391-7.588-5.52-15.117-9.299-22.377l10.389-5.414c3.574,6.867,6.615,13.957,9.059,21.129l37.395,9.346v79.465l-37.395,9.346
				c-2.098,6.158-4.635,12.252-7.564,18.188l19.852,33.082l-56.186,56.186l-33.082-19.852c-5.941,2.936-12.035,5.467-18.188,7.564
				L227.232,587.641z"/>
		</g>
		<g>
			<path fill="#E5D500" d="M52.312,476.207c-3.568-6.861-6.609-13.951-9.059-21.129l-37.395-9.346v-79.465l37.395-9.346
				c2.098-6.152,4.629-12.246,7.564-18.188l-19.852-33.082l56.186-56.186l33.082,19.852c5.941-2.936,12.035-5.467,18.188-7.564
				l9.346-37.395h79.465l9.346,37.395c6.152,2.098,12.246,4.629,18.188,7.564l33.082-19.852l52.951,52.951l-8.285,8.285
				l-46.488-46.488l-30.82,18.498l-2.912-1.518c-7.26-3.779-14.789-6.908-22.377-9.299l-3.123-0.99l-8.713-34.828h-61.16
				l-8.713,34.834l-3.123,0.99c-7.588,2.391-15.117,5.52-22.377,9.299l-2.912,1.518l-30.82-18.498l-43.254,43.254l18.498,30.82
				l-1.518,2.912c-3.779,7.26-6.908,14.789-9.299,22.377l-0.99,3.123l-34.834,8.713v61.16l34.834,8.707l0.984,3.129
				c2.402,7.6,5.531,15.129,9.305,22.377L52.312,476.207z"/>
		</g>
		<g>
			<path fill="#E5D500" d="M187.5,534.906c-71.08,0-128.906-57.826-128.906-128.906S116.42,277.094,187.5,277.094
				S316.406,334.92,316.406,406S258.58,534.906,187.5,534.906z M187.5,288.812c-64.617,0-117.188,52.57-117.188,117.188
				s52.57,117.188,117.188,117.188S304.688,470.617,304.688,406S252.117,288.812,187.5,288.812z"/>
		</g>
		<g>
			<rect x="181.641" y="247.797" fill="#E5D500" width="11.719" height="11.719"/>
		</g>
		<g>
			
				<rect x="73.914" y="292.417" transform="matrix(-0.7071 0.7071 -0.7071 -0.7071 347.0909 452.789)" fill="#E5D500" width="11.719" height="11.718"/>
		</g>
		<g>
			<rect x="29.297" y="400.141" fill="#E5D500" width="11.719" height="11.719"/>
		</g>
		<g>
			
				<rect x="73.915" y="507.864" transform="matrix(-0.7071 0.7071 -0.7071 -0.7071 499.4314 820.5847)" fill="#E5D500" width="11.719" height="11.718"/>
		</g>
		<g>
			<rect x="181.641" y="552.484" fill="#E5D500" width="11.719" height="11.719"/>
		</g>
		<g>
			
				<rect x="289.362" y="507.864" transform="matrix(-0.7071 0.7071 -0.7071 -0.7071 867.2316 668.2281)" fill="#E5D500" width="11.718" height="11.719"/>
		</g>
		<g>
			<rect x="333.984" y="400.141" fill="#E5D500" width="11.719" height="11.719"/>
		</g>
		<g>
			
				<rect x="289.361" y="292.417" transform="matrix(-0.7071 0.7071 -0.7071 -0.7071 714.8856 300.4498)" fill="#E5D500" width="11.719" height="11.719"/>
		</g>
		<g>
			<path fill="#E5D500" d="M222.656,441.156h-70.312v-70.312h70.312V441.156z M164.062,429.438h46.875v-46.875h-46.875V429.438z"/>
		</g>
		<g>
			<path fill="#E56565" d="M246.094,347.406h-29.297v-17.578h-11.719v17.578h-11.719v-17.578h-11.719v17.578h-11.719v-17.578
				h-11.719v17.578h-29.297v29.297h-17.578v11.719h17.578v11.719h-17.578v11.719h17.578v11.719h-17.578v11.719h17.578v29.297h29.297
				v17.578h11.719v-17.578h11.719v17.578h11.719v-17.578h11.719v17.578h11.719v-17.578h29.297v-29.297h17.578v-11.719h-17.578
				v-11.719h17.578v-11.719h-17.578v-11.719h17.578v-11.719h-17.578V347.406z M234.375,452.875h-93.75v-93.75h93.75V452.875z"/>
			<rect x="158.203" y="306.391" fill="#E56565" width="11.719" height="11.719"/>
			<rect x="181.641" y="306.391" fill="#E56565" width="11.719" height="11.719"/>
			<rect x="205.078" y="306.391" fill="#E56565" width="11.719" height="11.719"/>
			<rect x="87.891" y="423.578" fill="#E56565" width="11.719" height="11.719"/>
			<rect x="87.891" y="400.141" fill="#E56565" width="11.719" height="11.719"/>
			<rect x="87.891" y="376.703" fill="#E56565" width="11.719" height="11.719"/>
			<rect x="205.078" y="493.891" fill="#E56565" width="11.719" height="11.719"/>
			<rect x="181.641" y="493.891" fill="#E56565" width="11.719" height="11.719"/>
			<rect x="158.203" y="493.891" fill="#E56565" width="11.719" height="11.719"/>
			<rect x="275.391" y="376.703" fill="#E56565" width="11.719" height="11.719"/>
			<rect x="275.391" y="400.141" fill="#E56565" width="11.719" height="11.719"/>
			<rect x="275.391" y="423.578" fill="#E56565" width="11.719" height="11.719"/>
		</g>
	</g>
	<line stroke="#E5D500" stroke-width="12" stroke-miterlimit="10" x1="58.214" y1="467.167" x2="34.201" y2="509.582"/>
	<line stroke="#E5D500" stroke-width="12" stroke-miterlimit="10" x1="340.419" y1="301.37" x2="316.406" y2="343.785"/>
</g>
</svg>
