<?xml version="1.0" encoding="utf-8"?>
<!-- Generator: Adobe Illustrator 16.0.0, SVG Export Plug-In . SVG Version: 6.00 Build 0)  -->
<!DOCTYPE svg PUBLIC "-//W3C//DTD SVG 1.1//EN" "http://www.w3.org/Graphics/SVG/1.1/DTD/svg11.dtd">
<svg version="1.1" id="Layer_1_1_" xmlns="http://www.w3.org/2000/svg" xmlns:xlink="http://www.w3.org/1999/xlink" x="0px" y="0px"
	 width="375px" height="374.141px" viewBox="0 224.359 375 374.141" enable-background="new 0 224.359 375 374.141"
	 xml:space="preserve">
<g>
	<g>
		<path fill="#FFFFFF" d="M351.562,253.656h-23.438c-3.24,0-5.859,2.619-5.859,5.859v152.344h11.719h11.719h11.719V259.516
			C357.422,256.275,354.803,253.656,351.562,253.656z"/>
	</g>
	<g>
		<path fill="#FFFFFF" d="M304.688,294.672H281.25c-3.24,0-5.859,2.619-5.859,5.859v111.328h11.719h11.719h11.719V300.531
			C310.547,297.291,307.928,294.672,304.688,294.672z"/>
	</g>
	<g>
		<path fill="#FFFFFF" d="M257.812,312.25h-23.438c-3.24,0-5.859,2.619-5.859,5.859v93.75h11.719h11.719h11.719v-93.75
			C263.672,314.869,261.053,312.25,257.812,312.25z"/>
	</g>
	<g>
		<path fill="#FFFFFF" d="M210.938,329.828H187.5c-3.24,0-5.859,2.619-5.859,5.859v76.172h11.719h11.719h11.719v-76.172
			C216.797,332.447,214.178,329.828,210.938,329.828z"/>
	</g>
	<g>
		<circle fill="#FFFFFF" cx="87.891" cy="558.344" r="5.859"/>
	</g>
	<g>
		<path fill="#FFFFFF" d="M363.281,417.719h-187.5c-3.24,0-5.859-2.619-5.859-5.859c0-3.234,2.619-5.859,5.859-5.859h187.5
			c3.24,0,5.859,2.625,5.859,5.859C369.141,415.1,366.521,417.719,363.281,417.719z"/>
	</g>
	<path fill="#FFFFFF" d="M287.109,224.359h-35.156c-3.24,0-5.859,2.625-5.859,5.859s2.619,5.859,5.859,5.859h18.07
		c-28.459,39.809-68.543,68.725-114.053,83.203c-14.742-21.896-39.756-36.328-68.08-36.328c-45.234,0-82.031,36.797-82.031,82.031
		c0,39.193,27.645,72.012,64.453,80.086v25.383h-5.859c-3.24,0-5.859,2.619-5.859,5.859v82.031
		c0,16.154,13.143,29.297,29.297,29.297s29.297-13.143,29.297-29.297v-82.031c0-3.24-2.619-5.859-5.859-5.859h-5.859V445.07
		c36.809-8.074,64.453-40.893,64.453-80.086c0-12.662-2.971-24.615-8.115-35.332c47.848-15.768,89.877-46.693,119.443-89.145v24.867
		c0,3.234,2.619,5.859,5.859,5.859s5.859-2.625,5.859-5.859v-35.156C292.969,226.984,290.35,224.359,287.109,224.359z
		 M105.469,558.344c0,9.691-7.887,17.578-17.578,17.578s-17.578-7.887-17.578-17.578v-76.172h35.156V558.344z M93.75,470.453H82.031
		v-23.736c1.945,0.141,3.879,0.299,5.859,0.299s3.914-0.158,5.859-0.299V470.453z M158.203,364.984
		c0,38.771-31.541,70.312-70.312,70.312s-70.312-31.541-70.312-70.312s31.541-70.312,70.312-70.312
		c22.893,0,43.207,11.045,56.051,28.037c-4.23,1.09-8.496,2.039-12.803,2.883c-10.723-11.76-26.115-19.201-43.248-19.201
		c-32.309,0-58.594,26.285-58.594,58.594s26.285,58.594,58.594,58.594s58.594-26.285,58.594-58.594
		c0-10.576-2.859-20.484-7.781-29.057c3.949-0.867,7.863-1.822,11.748-2.889C155.373,342.637,158.203,353.477,158.203,364.984z
		 M87.891,341.547c13.031,0,25.875-1.166,38.49-3.246c5.273,7.582,8.385,16.77,8.385,26.684c0,25.846-21.029,46.875-46.875,46.875
		s-46.875-21.029-46.875-46.875s21.029-46.875,46.875-46.875c10.799,0,20.73,3.709,28.664,9.867
		c-9.434,1.213-19.002,1.852-28.664,1.852c-3.24,0-5.859,2.625-5.859,5.859S84.65,341.547,87.891,341.547z"/>
	<g>
		<circle fill="#FFFFFF" cx="193.359" cy="452.875" r="5.859"/>
	</g>
	<g>
		<circle fill="#FFFFFF" cx="193.359" cy="488.031" r="5.859"/>
	</g>
	<g>
		<circle fill="#FFFFFF" cx="193.359" cy="523.188" r="5.859"/>
	</g>
	<g>
		<circle fill="#FFFFFF" cx="193.359" cy="558.344" r="5.859"/>
	</g>
	<g>
		<path fill="#FFFFFF" d="M345.703,458.734H216.797c-3.24,0-5.859-2.619-5.859-5.859s2.619-5.859,5.859-5.859h128.906
			c3.24,0,5.859,2.619,5.859,5.859S348.943,458.734,345.703,458.734z"/>
	</g>
	<g>
		<path fill="#FFFFFF" d="M345.703,529.047H216.797c-3.24,0-5.859-2.619-5.859-5.859s2.619-5.859,5.859-5.859h128.906
			c3.24,0,5.859,2.619,5.859,5.859S348.943,529.047,345.703,529.047z"/>
	</g>
	<g>
		<path fill="#FFFFFF" d="M269.531,493.891h-52.734c-3.24,0-5.859-2.619-5.859-5.859s2.619-5.859,5.859-5.859h52.734
			c3.24,0,5.859,2.619,5.859,5.859S272.771,493.891,269.531,493.891z"/>
	</g>
	<g>
		<path fill="#FFFFFF" d="M345.703,493.891h-52.734c-3.24,0-5.859-2.619-5.859-5.859s2.619-5.859,5.859-5.859h52.734
			c3.24,0,5.859,2.619,5.859,5.859S348.943,493.891,345.703,493.891z"/>
	</g>
	<g>
		<path fill="#FFFFFF" d="M269.531,564.203h-52.734c-3.24,0-5.859-2.619-5.859-5.859s2.619-5.859,5.859-5.859h52.734
			c3.24,0,5.859,2.619,5.859,5.859S272.771,564.203,269.531,564.203z"/>
	</g>
	<g>
		<path fill="#FFFFFF" d="M345.703,564.203h-52.734c-3.24,0-5.859-2.619-5.859-5.859s2.619-5.859,5.859-5.859h52.734
			c3.24,0,5.859,2.619,5.859,5.859S348.943,564.203,345.703,564.203z"/>
	</g>
</g>
</svg>
