<?xml version="1.0" encoding="utf-8"?>
<!-- Generator: Adobe Illustrator 16.0.0, SVG Export Plug-In . SVG Version: 6.00 Build 0)  -->
<!DOCTYPE svg PUBLIC "-//W3C//DTD SVG 1.1//EN" "http://www.w3.org/Graphics/SVG/1.1/DTD/svg11.dtd">
<svg version="1.1" id="Layer_1" xmlns="http://www.w3.org/2000/svg" xmlns:xlink="http://www.w3.org/1999/xlink" x="0px" y="0px"
	 width="512px" height="412px" viewBox="0 48.5 512 412" enable-background="new 0 48.5 512 412" xml:space="preserve">
<g>
	<path fill="#FFFFFF" d="M368,224c26.5,0,48-21.5,48-48s-21.5-48-48-48s-48,21.5-48,48S341.5,224,368,224z"/>
	<path fill="#FFFFFF" d="M452,64H60c-15.6,0-28,12.7-28,28.3v327.4c0,15.6,12.4,28.3,28,28.3h392c15.6,0,28-12.7,28-28.3V92.3
		C480,76.7,467.6,64,452,64z M348.9,261.7c-3-3.5-7.601-6.2-12.801-6.2c-5.1,0-8.699,2.4-12.8,5.7L304.6,277
		c-3.899,2.8-7,4.7-11.5,4.7c-4.3,0-8.199-1.601-11-4.101c-1-0.899-2.8-2.6-4.3-4.1L224,215.3c-4-4.6-10-7.5-16.7-7.5
		c-6.7,0-12.9,3.3-16.8,7.8L64,368.2V107.7c1-6.8,6.3-11.7,13.1-11.7h357.7c6.9,0,12.5,5.1,12.9,12l0.3,260.4L348.9,261.7z"/>
</g>
</svg>
