<?xml version="1.0" encoding="utf-8"?>
<!-- Generator: Adobe Illustrator 16.0.0, SVG Export Plug-In . SVG Version: 6.00 Build 0)  -->
<!DOCTYPE svg PUBLIC "-//W3C//DTD SVG 1.1//EN" "http://www.w3.org/Graphics/SVG/1.1/DTD/svg11.dtd">
<svg version="1.1" id="Layer_1" xmlns="http://www.w3.org/2000/svg" xmlns:xlink="http://www.w3.org/1999/xlink" x="0px" y="0px"
	 width="375px" height="354px" viewBox="0 230.5 375 354" enable-background="new 0 230.5 375 354" xml:space="preserve">
<g>
	<path fill="#00AAF1" d="M99.097,389.154l0.879,0.146c8.35,1.465,16.187,5.2,22.559,10.767c1.538,1.318,3.003,2.783,4.395,4.321
		l18.677-44.824l4.541-10.913c0.366-0.073,0.659-0.146,1.025-0.22c6.958-1.904,12.451-6.445,15.747-12.231s4.395-12.817,2.49-19.775
		c-0.659-2.271-1.538-4.468-2.71-6.372c-5.859-9.814-17.725-15.015-29.297-11.865c-13.843,3.809-22.046,18.091-18.237,32.007
		c0.659,2.563,1.758,4.907,3.076,7.031l-5.42,9.888l-22.778,41.528C95.728,388.788,97.412,388.935,99.097,389.154L99.097,389.154z"
		/>
	<path fill="#00AAF1" d="M281.47,322.211c0.073,4.834-1.099,9.375-3.223,13.403c-4.102,7.983-11.938,13.77-21.167,15.161
		c-1.318,0.22-2.637,0.293-4.028,0.293c-12.598,0.146-23.291-7.91-27.246-19.116l0,0l-10.474,0.732l-36.841,2.71
		c2.417-6.885,2.71-14.355,0.732-21.606c-0.293-1.025-0.586-2.051-0.952-3.076l36.914,2.051l10.547,0.586
		c3.735-11.279,14.355-19.409,26.88-19.556c1.538,0,3.003,0.073,4.468,0.293c9.229,1.392,16.992,7.178,21.167,15.161
		C280.298,313.202,281.47,317.597,281.47,322.211z"/>
	<path fill="#00AAF1" d="M285.645,301.557l16.333-17.505l24.609,24.39l12.085-12.231l-22.412-27.393l-16.479-20.142l-16.113,17.212
		l-18.53,19.775C273.56,288.446,280.811,294.086,285.645,301.557z"/>
	<path fill="#00AAF1" d="M301.904,360.956l-16.333-17.505c-4.834,7.471-12.085,13.11-20.435,15.894l18.457,19.702l16.113,17.212
		l16.479-20.142l22.412-27.393l-12.085-12.231L301.904,360.956z"/>
	<path fill="#00AAF1" d="M276.416,493.524H147.217v-58.081h-18.823c0-3.882-0.586-7.69-1.831-11.353
		c-1.025-3.076-2.417-6.006-4.248-8.789c-1.758-2.71-3.955-5.273-6.592-7.471c-5.2-4.541-11.279-7.324-17.651-8.423l0,0
		c-3.223-0.586-6.519-0.732-9.741-0.366c-9.082,0.806-17.798,5.054-24.243,12.451c-6.006,6.958-9.009,15.527-9.009,24.023H36.401
		v58.081v69.727h240.015c19.263,0,34.863-15.601,34.863-34.863l0,0C311.279,509.198,295.679,493.524,276.416,493.524z
		 M232.178,532.343H60.791c-2.856,0-5.127-2.271-5.127-5.127s2.271-5.127,5.127-5.127h171.387c2.856,0,5.127,2.271,5.127,5.127
		S235.034,532.343,232.178,532.343z M272.021,543.256c-8.203,0-14.868-6.665-14.868-14.868s6.665-14.868,14.868-14.868
		s14.868,6.665,14.868,14.868S280.225,543.256,272.021,543.256z"/>
</g>
</svg>
