<?xml version="1.0" encoding="utf-8"?>
<!-- Generator: Adobe Illustrator 16.0.0, SVG Export Plug-In . SVG Version: 6.00 Build 0)  -->
<!DOCTYPE svg PUBLIC "-//W3C//DTD SVG 1.1//EN" "http://www.w3.org/Graphics/SVG/1.1/DTD/svg11.dtd">
<svg version="1.1" id="Capa_1" xmlns="http://www.w3.org/2000/svg" xmlns:xlink="http://www.w3.org/1999/xlink" x="0px" y="0px"
	 width="418px" height="408px" viewBox="-22 200.5 418 408" enable-background="new -22 200.5 418 408" xml:space="preserve">
<g>
	<g>
		<path fill="#00AAF1" d="M250,429.872V281c0-34.518-27.982-62.5-62.5-62.5S125,246.482,125,281v148.871
			c-19.18,17.166-31.25,42.113-31.25,69.879c0,51.777,41.974,93.75,93.75,93.75s93.75-41.973,93.75-93.75
			C281.25,471.984,269.18,447.037,250,429.872z M187.5,562.25c-34.518,0-62.5-27.982-62.5-62.5c0-18.045,7.647-34.784,20.841-46.593
			l10.409-9.316V281c0-17.259,13.992-31.25,31.25-31.25s31.25,13.991,31.25,31.25v162.841l10.409,9.316
			c13.193,11.809,20.841,28.548,20.841,46.593C250,534.268,222.018,562.25,187.5,562.25z"/>
	</g>
</g>
<g>
	<g>
		<rect x="171.875" y="343.5" fill="#00AAF1" width="31.25" height="187.5"/>
	</g>
</g>
<g>
	<g>
		<circle fill="#00AAF1" cx="187.5" cy="499.75" r="46.875"/>
	</g>
</g>
</svg>
