<?xml version="1.0" encoding="utf-8"?>
<!-- Generator: Adobe Illustrator 16.0.0, SVG Export Plug-In . SVG Version: 6.00 Build 0)  -->
<!DOCTYPE svg PUBLIC "-//W3C//DTD SVG 1.1//EN" "http://www.w3.org/Graphics/SVG/1.1/DTD/svg11.dtd">
<svg version="1.1" id="Layer_1" xmlns="http://www.w3.org/2000/svg" xmlns:xlink="http://www.w3.org/1999/xlink" x="0px" y="0px"
	 width="302px" height="296px" viewBox="36 256.5 302 296" enable-background="new 36 256.5 302 296" xml:space="preserve">
<path fill="#00AAF1" d="M175,368.5v-75c0-13.812-11.188-25-25-25H75c-13.812,0-25,11.188-25,25v75c0,13.812,11.188,25,25,25h75
	C163.812,393.5,175,382.312,175,368.5z"/>
<path fill="#00AAF1" d="M225,393.5h75c13.812,0,25-11.188,25-25v-75c0-13.812-11.188-25-25-25h-75c-13.812,0-25,11.188-25,25v75
	C200,382.312,211.188,393.5,225,393.5z"/>
<path fill="#00AAF1" d="M150,418.5H75c-13.812,0-25,11.188-25,25v75c0,13.812,11.188,25,25,25h75c13.812,0,25-11.188,25-25v-75
	C175,429.688,163.812,418.5,150,418.5z"/>
<path fill="#00AAF1" d="M200,443.5v75c0,13.812,11.188,25,25,25h75c13.812,0,25-11.188,25-25v-75c0-13.812-11.188-25-25-25h-75
	C211.188,418.5,200,429.688,200,443.5z"/>
</svg>
