<?xml version="1.0" encoding="utf-8"?>
<!-- Generator: Adobe Illustrator 16.0.0, SVG Export Plug-In . SVG Version: 6.00 Build 0)  -->
<!DOCTYPE svg PUBLIC "-//W3C//DTD SVG 1.1//EN" "http://www.w3.org/Graphics/SVG/1.1/DTD/svg11.dtd">
<svg version="1.1" id="Layer_1" xmlns="http://www.w3.org/2000/svg" xmlns:xlink="http://www.w3.org/1999/xlink" x="0px" y="0px"
	 width="302px" height="296px" viewBox="0 0 302 296" enable-background="new 0 0 302 296" xml:space="preserve">
<path fill="#011F2B" d="M140.5,110.5v-75c0-13.812-11.188-25-25-25h-75c-13.812,0-25,11.188-25,25v75c0,13.812,11.188,25,25,25h75
	C129.312,135.5,140.5,124.312,140.5,110.5z"/>
<path fill="#011F2B" d="M190.5,135.5h75c13.812,0,25-11.188,25-25v-75c0-13.812-11.188-25-25-25h-75c-13.812,0-25,11.188-25,25v75
	C165.5,124.312,176.688,135.5,190.5,135.5z"/>
<path fill="#011F2B" d="M115.5,160.5h-75c-13.812,0-25,11.188-25,25v75c0,13.812,11.188,25,25,25h75c13.812,0,25-11.188,25-25v-75
	C140.5,171.688,129.312,160.5,115.5,160.5z"/>
<path fill="#011F2B" d="M165.5,185.5v75c0,13.812,11.188,25,25,25h75c13.812,0,25-11.188,25-25v-75c0-13.812-11.188-25-25-25h-75
	C176.688,160.5,165.5,171.688,165.5,185.5z"/>
</svg>
