<?xml version="1.0" ?><svg id="Layer_1" style="enable-background:new 0 0 512 512;" version="1.1" viewBox="0 0 512 512" xml:space="preserve" xmlns="http://www.w3.org/2000/svg" xmlns:xlink="http://www.w3.org/1999/xlink"><style type="text/css">
	.st0{fill:#8EC63F;}
	.st1{fill:#FFFFFF;}
</style><g id="XMLID_1762_"><circle class="st0" cx="256" cy="256" id="XMLID_1748_" r="256"/><g id="XMLID_1435_"><g id="XMLID_1450_"><path class="st1" d="M165.5,388.6l-10.5-8.5c-37.5-30.6-59-75.8-59-124.1c0-84.8,66.3-155,150.9-159.7l0.1,0     l10-0.2c0.9,0,1.8,0.3,2.4,1c0.6,0.6,1,1.5,1,2.4l0.1,37.6l-12.1,0.8c-62.3,3.9-111,55.9-111,118.3c0,35.5,15.7,68.9,43.2,91.5     l9.4,7.7L165.5,388.6z M247.2,102.5c-81.3,4.6-145,72-145,153.5c0,46.4,20.7,89.9,56.7,119.2l5.4,4.4l17.1-23.3l-4.8-4     c-28.9-23.8-45.5-59-45.5-96.4c0-65.7,51.3-120.5,116.9-124.6l6.2-0.4l0-28.7L247.2,102.5z M163.7,374.6l-2.6-2.1     c-35.2-28.7-55.4-71.2-55.4-116.6c0-79.7,62.3-145.6,141.8-150l3.3-0.2v22l-2.9,0.2c-67.4,4.2-120.1,60.5-120.1,128     c0,38.4,17,74.5,46.7,99l2.3,1.9L163.7,374.6z M244.5,112.5C169.9,118.3,112,180.8,112,256c0,42.4,18.4,82.1,50.6,109.6l5.6-7.6     c-29.7-25.6-46.7-62.6-46.7-101.9c0-34.5,13-67.2,36.6-92.3c22.8-24.2,53.4-39,86.4-41.8V112.5z" id="XMLID_1678_"/></g><g id="XMLID_1449_"><path class="st1" d="M256,416c-32.9,0-64.5-9.9-91.5-28.8l-2.6-1.8l24.5-33.4l2.5,1.7     c20.4,14.1,44.4,21.3,69.2,20.9c63.7-1.1,115.9-53.8,116.5-117.5c0.6-64.3-51.3-118-115.6-119.6c-1.9,0-3.4-1.6-3.4-3.5V99.5     c0-0.9,0.4-1.8,1-2.4c0.7-0.6,1.5-1,2.5-1c41.7,0.8,80.8,17.6,110.3,47.2c29.5,29.7,46,69,46.6,110.7     c0.5,42.8-15.5,83.2-45.2,113.7c-29.7,30.5-69.6,47.7-112.4,48.3C257.6,416,256.8,416,256,416z M170.7,383.8     c26,17.4,56.2,26.3,87.5,25.9c84.6-1.2,152.5-71.1,151.4-155.7c-1-82.5-65.7-148.6-147.8-151.6v28.9     c31.8,1.5,61.4,14.9,83.7,37.9c23,23.7,35.5,55,35.2,87.9c-0.3,32.6-13.2,63.4-36.3,86.7c-23.1,23.3-53.8,36.4-86.4,37     c-25.1,0.4-49.4-6.6-70.3-20.3L170.7,383.8z" id="XMLID_1433_"/></g><g id="XMLID_1436_"><path class="st1" d="M207.6,226.2c2.4,0,4.6,0.2,6.8,0.7c2.2,0.5,4.2,1.1,5.9,1.8l-2,7.8     c-1.7-0.7-3.4-1.2-5-1.6c-1.6-0.4-3.6-0.6-5.8-0.6c-3.7,0-6.7,1.5-8.9,4.5c-2.3,3-3.4,6.9-3.4,11.8v3.2c1.6-1.6,3.6-2.9,5.9-3.8     c2.3-0.9,4.8-1.4,7.5-1.4c5.2,0,9.3,1.8,12.3,5.4c3,3.6,4.5,8.3,4.5,14.1c0,6.1-1.8,11.1-5.4,14.9s-8.3,5.7-14.2,5.7     c-6,0-10.9-2.2-14.8-6.5c-3.9-4.3-5.8-10.2-5.8-17.7v-13.2c0-7.5,2.1-13.5,6.4-18.1C195.9,228.5,201.2,226.2,207.6,226.2z      M205.4,256.5c-2.4,0-4.5,0.4-6.2,1.3c-1.7,0.9-3,2.1-3.9,3.6v3.6c0,4.8,1,8.6,3,11.4c2,2.8,4.5,4.1,7.5,4.1c3,0,5.3-1.2,7-3.5     c1.7-2.3,2.5-5.3,2.5-9c0-3.6-0.9-6.4-2.6-8.5C210.9,257.5,208.5,256.5,205.4,256.5z" id="XMLID_1446_"/><path class="st1" d="M273,266c0,7-1.8,12.5-5.4,16.6c-3.6,4-8.4,6-14.4,6c-6,0-10.9-2-14.5-6.1     c-3.6-4-5.5-9.6-5.5-16.5v-17.2c0-7,1.8-12.5,5.4-16.6c3.6-4.1,8.4-6.1,14.5-6.1c6,0,10.9,2,14.5,6.1c3.6,4.1,5.4,9.6,5.4,16.6     V266z M262.9,247.3c0-4.1-0.9-7.2-2.6-9.5c-1.7-2.3-4.1-3.4-7.2-3.4c-3.1,0-5.5,1.1-7.2,3.4c-1.7,2.3-2.5,5.5-2.5,9.5v20.2     c0,4.1,0.9,7.3,2.6,9.6c1.7,2.3,4.1,3.4,7.3,3.4c3.1,0,5.5-1.1,7.2-3.4c1.7-2.3,2.5-5.5,2.5-9.6V247.3z" id="XMLID_1443_"/><path class="st1" d="M281.6,238.7c0-3.6,1.1-6.5,3.4-8.9c2.3-2.4,5.4-3.6,9.4-3.6c4,0,7.2,1.2,9.4,3.6     c2.3,2.4,3.4,5.4,3.4,9v3.2c0,3.6-1.1,6.5-3.4,8.9c-2.3,2.4-5.4,3.6-9.4,3.6c-4,0-7.2-1.2-9.5-3.6c-2.3-2.4-3.5-5.3-3.5-8.9     V238.7z M288.6,241.9c0,1.8,0.5,3.3,1.5,4.5c1,1.2,2.5,1.9,4.4,1.9c1.8,0,3.2-0.6,4.2-1.8c1-1.2,1.5-2.7,1.5-4.5v-3.2     c0-1.8-0.5-3.3-1.5-4.6c-1-1.3-2.4-1.9-4.3-1.9c-1.9,0-3.3,0.6-4.3,1.9c-1,1.3-1.5,2.8-1.5,4.6V241.9z M296.6,283.2l-5.2-3     l29.6-47.5l5.2,3L296.6,283.2z M310.8,272.9c0-3.5,1.2-6.5,3.5-8.9c2.3-2.4,5.4-3.6,9.4-3.6c4,0,7.2,1.2,9.4,3.6     c2.3,2.4,3.4,5.4,3.4,8.9v3.3c0,3.6-1.1,6.6-3.4,8.9c-2.3,2.4-5.4,3.6-9.4,3.6c-4,0-7.2-1.2-9.5-3.6c-2.3-2.4-3.5-5.4-3.5-8.9     V272.9z M317.8,276.1c0,1.8,0.5,3.3,1.6,4.5c1,1.3,2.5,1.9,4.3,1.9c1.9,0,3.4-0.6,4.3-1.8c0.9-1.2,1.4-2.7,1.4-4.6v-3.3     c0-1.8-0.5-3.3-1.5-4.5c-1-1.3-2.5-1.9-4.3-1.9c-1.9,0-3.3,0.6-4.3,1.9c-1,1.3-1.5,2.8-1.5,4.5V276.1z" id="XMLID_1437_"/></g></g></g></svg>