<?xml version="1.0" encoding="utf-8"?>
<!-- Generator: Adobe Illustrator 16.0.0, SVG Export Plug-In . SVG Version: 6.00 Build 0)  -->
<!DOCTYPE svg PUBLIC "-//W3C//DTD SVG 1.1//EN" "http://www.w3.org/Graphics/SVG/1.1/DTD/svg11.dtd">
<svg version="1.1" id="Layer_1" xmlns="http://www.w3.org/2000/svg" xmlns:xlink="http://www.w3.org/1999/xlink" x="0px" y="0px"
	 width="375px" height="372px" viewBox="0 0 375 372" enable-background="new 0 0 375 372" xml:space="preserve">
<g id="XMLID_497_">
	<g id="XMLID_499_">
		<path id="XMLID_511_" fill="#01293F" d="M194.661,51.599c0-2.489-2.051-4.541-4.541-4.541c-2.489,0-4.541,2.052-4.541,4.541
			c0,2.052,1.318,3.735,3.149,4.321v27.1h2.71v-27.1C193.344,55.334,194.661,53.65,194.661,51.599z"/>
		<path id="XMLID_502_" fill="#01293F" d="M194.661,325.598c0,2.49-2.051,4.541-4.541,4.541c-2.489,0-4.541-2.051-4.541-4.541
			c0-2.051,1.318-3.735,3.149-4.321v-27.1h2.71v27.1C193.344,321.862,194.661,323.547,194.661,325.598z"/>
	</g>
	<path id="XMLID_525_" fill="#00B5FF" d="M96.443,88.513c-1.758-1.758-4.614-1.758-6.372,0c-1.758,1.758-1.758,4.614,0,6.372
		c1.392,1.393,3.589,1.686,5.273,0.807l19.116,19.115l1.904-1.904L97.248,93.787C98.201,92.102,97.908,89.978,96.443,88.513z"/>
	<path id="XMLID_520_" fill="#00FFB2" d="M290.17,282.238c1.758,1.759,1.758,4.614,0,6.372c-1.759,1.759-4.615,1.759-6.373,0
		c-1.392-1.392-1.685-3.589-0.806-5.272l-19.116-19.116l1.904-1.904l19.115,19.116C286.58,280.554,288.777,280.847,290.17,282.238z"
		/>
	<path id="XMLID_545_" fill="#FFFFFF" d="M53.157,184.094c-2.49,0-4.541,2.051-4.541,4.541s2.051,4.541,4.541,4.541
		c2.051,0,3.735-1.318,4.321-3.149h27.1v-2.71h-27.1C56.892,185.412,55.208,184.094,53.157,184.094z"/>
	<path id="XMLID_544_" fill="#FFFFFF" d="M327.156,184.094c2.49,0,4.541,2.051,4.541,4.541s-2.051,4.541-4.541,4.541
		c-2.051,0-3.735-1.318-4.321-3.149h-27.1v-2.71h27.1C323.421,185.412,325.105,184.094,327.156,184.094z"/>
	<path id="XMLID_548_" fill="#00FFB2" d="M90.071,282.238c-1.758,1.759-1.758,4.614,0,6.372c1.758,1.759,4.614,1.759,6.372,0
		c1.392-1.392,1.685-3.589,0.806-5.272l19.116-19.116l-1.904-1.904l-19.116,19.116C93.66,280.554,91.536,280.847,90.071,282.238z"/>
	<path id="XMLID_547_" fill="#00B5FF" d="M283.797,88.513c1.758-1.758,4.614-1.758,6.373,0c1.758,1.758,1.758,4.614,0,6.372
		c-1.393,1.393-3.59,1.686-5.273,0.807l-19.116,19.115l-1.904-1.904l19.116-19.115C282.112,92.102,282.405,89.978,283.797,88.513z"
		/>
	<g id="XMLID_473_">
		<path id="XMLID_535_" fill="#00B5FF" d="M281.6,57.092c-2.563,0-4.541,0.806-6.08,2.417c-1.537,1.61-2.271,3.882-2.271,6.737
			v6.373c0,2.855,0.732,5.127,2.271,6.738c1.539,1.61,3.59,2.416,6.08,2.416s4.541-0.806,6.078-2.416
			c1.539-1.611,2.271-3.883,2.271-6.738v-6.373c0-2.855-0.807-5.127-2.344-6.737C286.141,57.897,284.09,57.092,281.6,57.092z
			 M284.383,72.986c0,1.465-0.22,2.637-0.731,3.368c-0.513,0.732-1.173,1.173-2.052,1.173s-1.61-0.367-2.123-1.173
			c-0.514-0.731-0.732-1.903-0.732-3.368v-7.104c0-1.465,0.221-2.563,0.732-3.369s1.172-1.172,2.051-1.172s1.538,0.366,2.051,1.172
			c0.514,0.806,0.732,1.904,0.732,3.369v7.104H284.383z"/>
		<path id="XMLID_536_" fill="#00B5FF" d="M300.496,77.16v-0.073l2.93-3.517c2.125-2.271,3.59-4.027,4.396-5.199
			s1.172-2.49,1.172-4.028c0-2.271-0.732-4.028-2.124-5.347c-1.465-1.318-3.441-1.904-6.079-1.904c-2.489,0-4.541,0.806-6.079,2.344
			c-1.537,1.538-2.271,3.442-2.197,5.641v0.072h5.494c0-1.099,0.219-1.978,0.731-2.71c0.512-0.731,1.172-1.099,2.051-1.099
			c0.952,0,1.611,0.293,2.052,0.806c0.439,0.513,0.658,1.318,0.658,2.197c0,0.659-0.22,1.392-0.658,2.271
			c-0.439,0.879-1.173,1.904-2.197,3.004l-7.397,8.129v3.662h16.699v-4.32h-9.448v0.072H300.496z"/>
	</g>
	<g id="XMLID_514_">
		<path id="XMLID_517_" fill="#00FFB2" d="M281.6,292.932c-2.563,0-4.541,0.806-6.08,2.417c-1.537,1.611-2.271,3.882-2.271,6.738
			v6.372c0,2.855,0.732,5.127,2.271,6.737c1.539,1.611,3.59,2.417,6.08,2.417s4.541-0.806,6.078-2.417
			c1.539-1.61,2.271-3.882,2.271-6.737v-6.372c0-2.856-0.807-5.127-2.344-6.738C286.141,293.737,284.09,292.932,281.6,292.932z
			 M284.383,308.824c0,1.466-0.22,2.638-0.731,3.369c-0.513,0.732-1.173,1.172-2.052,1.172s-1.61-0.365-2.123-1.172
			c-0.514-0.731-0.732-1.903-0.732-3.369v-7.104c0-1.465,0.221-2.562,0.732-3.369c0.512-0.806,1.172-1.172,2.051-1.172
			s1.538,0.366,2.051,1.172c0.514,0.806,0.732,1.904,0.732,3.369v7.104H284.383z"/>
		<path id="XMLID_540_" fill="#00FFB2" d="M307.674,307.946v-14.648h-5.565v0.073l-9.888,15.526l0.365,3.442h9.596v5.054h5.565
			v-5.054h2.417v-4.321h-2.49V307.946z M302.107,307.946h-5.127l4.395-6.226l0.586-1.245h0.073v7.471H302.107z"/>
	</g>
	<g id="XMLID_503_">
		<path id="XMLID_506_" fill="#00FFB2" d="M66.853,292.932c-2.563,0-4.541,0.806-6.079,2.417c-1.538,1.611-2.271,3.882-2.271,6.738
			v6.372c0,2.855,0.732,5.127,2.271,6.737c1.539,1.611,3.589,2.417,6.079,2.417c2.49,0,4.541-0.806,6.079-2.417
			c1.538-1.61,2.271-3.882,2.271-6.737v-6.372c0-2.856-0.806-5.127-2.344-6.738C71.394,293.737,69.417,292.932,66.853,292.932z
			 M69.71,308.824c0,1.466-0.22,2.638-0.732,3.369c-0.512,0.732-1.172,1.172-2.051,1.172s-1.611-0.365-2.124-1.172
			c-0.513-0.731-0.732-1.903-0.732-3.369v-7.104c0-1.465,0.22-2.562,0.732-3.369c0.512-0.806,1.172-1.172,2.051-1.172
			c0.879,0,1.538,0.366,2.051,1.172s0.732,1.904,0.732,3.369v7.104H69.71z"/>
		<path id="XMLID_541_" fill="#00FFB2" d="M93.44,303.699c-1.099-1.466-2.71-2.271-4.761-2.271c-1.099,0-2.124,0.146-3.003,0.513
			c-0.879,0.367-1.611,0.807-2.271,1.393v-0.22c0-1.904,0.439-3.369,1.245-4.321c0.806-0.952,1.904-1.465,3.296-1.465
			c0.732,0,1.392,0.072,1.904,0.146c0.586,0.146,1.245,0.293,1.978,0.513l0.952-4.027c-0.879-0.366-1.685-0.586-2.417-0.732
			c-0.732-0.146-1.538-0.22-2.49-0.22c-2.93,0-5.347,0.879-7.251,2.71c-1.904,1.831-2.783,4.321-2.783,7.471v4.834
			c0,3.003,0.806,5.348,2.417,7.104c1.611,1.757,3.735,2.562,6.372,2.562c2.49,0,4.468-0.731,6.079-2.271
			c1.538-1.538,2.344-3.517,2.344-5.859C95.198,307.141,94.612,305.163,93.44,303.699z M88.753,312.268
			c-0.513,0.732-1.245,1.1-2.051,1.1c-1.025,0-1.831-0.439-2.417-1.393s-0.879-2.271-0.879-4.028v-1.099
			c0.293-0.366,0.732-0.659,1.318-0.879s1.245-0.293,2.051-0.293c0.806,0,1.465,0.366,1.978,1.025
			c0.513,0.658,0.732,1.61,0.732,2.855C89.558,310.583,89.339,311.535,88.753,312.268z"/>
	</g>
	<g id="XMLID_491_">
		<path id="XMLID_494_" fill="#00B5FF" d="M66.634,58.777c-2.563,0-4.541,0.806-6.079,2.416c-1.538,1.611-2.271,3.883-2.271,6.738
			v6.372c0,2.856,0.732,5.127,2.271,6.738c1.539,1.61,3.589,2.417,6.079,2.417c2.49,0,4.541-0.807,6.079-2.417
			c1.538-1.611,2.271-3.882,2.271-6.738v-6.372c0-2.855-0.806-5.127-2.344-6.738C71.175,59.582,69.197,58.777,66.634,58.777z
			 M69.49,74.67c0,1.465-0.22,2.637-0.732,3.369c-0.512,0.731-1.172,1.172-2.051,1.172c-0.879,0-1.611-0.366-2.124-1.172
			c-0.513-0.732-0.732-1.904-0.732-3.369v-7.104c0-1.466,0.22-2.563,0.732-3.369c0.512-0.807,1.172-1.172,2.051-1.172
			s1.538,0.365,2.051,1.172c0.513,0.806,0.732,1.903,0.732,3.369v7.104H69.49z"/>
		<path id="XMLID_542_" fill="#00B5FF" d="M94.026,72.986c-0.732-1.025-1.758-1.759-3.003-2.345
			c1.025-0.513,1.831-1.245,2.417-2.196c0.586-0.879,0.879-1.904,0.879-3.076c0-2.125-0.732-3.81-2.124-4.907
			c-1.392-1.172-3.296-1.685-5.566-1.685c-2.417,0-4.321,0.586-5.786,1.758s-2.197,2.783-2.197,4.906
			c0,1.172,0.293,2.197,0.952,3.076c0.586,0.879,1.465,1.611,2.563,2.124c-1.318,0.586-2.417,1.318-3.149,2.345
			c-0.806,1.024-1.172,2.123-1.172,3.441c0,2.271,0.806,3.955,2.49,5.2s3.809,1.903,6.445,1.903c2.49,0,4.541-0.658,6.152-1.903
			s2.417-3.003,2.417-5.273C95.198,75.109,94.759,74.011,94.026,72.986z M84.798,63.757c0.439-0.438,1.025-0.659,1.758-0.659
			c0.659,0,1.172,0.221,1.611,0.659c0.366,0.438,0.586,1.099,0.586,1.978s-0.22,1.538-0.586,2.051
			c-0.366,0.514-0.879,0.732-1.538,0.732c-0.732,0-1.392-0.22-1.831-0.732c-0.439-0.512-0.659-1.172-0.659-2.051
			S84.358,64.197,84.798,63.757z M88.753,78.406c-0.586,0.586-1.245,0.879-2.124,0.879c-0.952,0-1.758-0.293-2.417-0.879
			c-0.659-0.586-0.952-1.318-0.952-2.271s0.293-1.758,0.952-2.344c0.659-0.586,1.392-0.879,2.344-0.879
			c0.879,0,1.611,0.293,2.124,0.879c0.586,0.586,0.879,1.392,0.879,2.344S89.265,77.82,88.753,78.406z"/>
	</g>
	<path id="XMLID_513_" fill="#01293F" d="M179.134,18.785c-2.563,0-4.541,0.807-6.079,2.418c-1.538,1.61-2.271,3.882-2.271,6.738
		v6.444c0,2.856,0.732,5.127,2.271,6.738c1.539,1.61,3.589,2.417,6.079,2.417c2.49,0,4.542-0.807,6.079-2.417
		c1.611-1.611,2.344-3.882,2.344-6.738v-6.372c0-2.855-0.806-5.127-2.344-6.738C183.676,19.592,181.697,18.785,179.134,18.785z
		 M181.99,34.68c0,1.465-0.22,2.637-0.732,3.369c-0.512,0.732-1.172,1.172-2.051,1.172c-0.879,0-1.611-0.366-2.124-1.172
		c-0.513-0.732-0.732-1.904-0.732-3.369v-7.104c0-1.465,0.22-2.563,0.732-3.369c0.512-0.807,1.172-1.172,2.051-1.172
		s1.538,0.365,2.051,1.172c0.513,0.806,0.732,1.904,0.732,3.369v7.104H181.99z"/>
	<polygon id="XMLID_530_" fill="#01293F" points="197.225,43.176 202.864,43.176 202.864,18.785 192.391,19.664 192.391,23.912 
		197.225,23.912 	"/>
	<path id="XMLID_534_" fill="#01293F" d="M176.936,334.313c-2.563,0-4.541,0.807-6.079,2.417c-1.538,1.611-2.271,3.882-2.271,6.738
		v6.372c0,2.855,0.732,5.127,2.271,6.738c1.539,1.61,3.589,2.417,6.079,2.417c2.49,0,4.541-0.807,6.08-2.417
		c1.537-1.611,2.271-3.883,2.271-6.738v-6.372c0-2.856-0.806-5.127-2.344-6.738C181.477,335.119,179.5,334.313,176.936,334.313z
		 M179.793,350.207c0,1.465-0.22,2.637-0.732,3.369c-0.512,0.731-1.172,1.172-2.051,1.172s-1.611-0.366-2.124-1.172
		c-0.513-0.732-0.732-1.904-0.732-3.369v-7.104c0-1.465,0.22-2.562,0.732-3.369c0.512-0.806,1.172-1.172,2.051-1.172
		c0.879,0,1.538,0.366,2.051,1.172c0.513,0.807,0.732,1.904,0.732,3.369v7.104H179.793z"/>
	<path id="XMLID_537_" fill="#01293F" d="M203.23,344.934c-1.172-1.392-2.93-2.124-5.127-2.051c-0.807,0-1.611,0.146-2.271,0.366
		c-0.732,0.22-1.244,0.438-1.758,0.806l0.586-4.979h9.596v-4.396h-14.062l-1.393,13.477l4.98,0.294
		c0.146-0.514,0.514-0.88,0.952-1.173s1.024-0.513,1.758-0.513c1.024,0,1.758,0.366,2.271,1.172
		c0.439,0.732,0.732,1.831,0.732,3.149c0,1.245-0.22,2.197-0.586,2.855c-0.439,0.659-1.1,0.952-2.197,0.952
		c-0.879,0-1.611-0.22-2.123-0.731c-0.514-0.513-0.807-1.172-0.807-1.979l-5.493,0.366v0.073c-0.073,1.978,0.731,3.589,2.417,4.761
		s3.662,1.831,6.006,1.831c2.856,0,4.98-0.732,6.372-2.271c1.318-1.537,2.052-3.441,2.052-5.785
		C205.061,348.376,204.475,346.324,203.23,344.934z"/>
	<g id="XMLID_495_">
		<path id="XMLID_507_" fill="#FFFFFF" d="M341.512,176.55c-2.562,0-4.54,0.806-6.078,2.417s-2.271,3.882-2.271,6.738v6.372
			c0,2.855,0.732,5.127,2.271,6.737c1.539,1.611,3.589,2.417,6.078,2.417c2.49,0,4.541-0.806,6.079-2.417
			c1.538-1.61,2.271-3.882,2.271-6.737v-6.372c0-2.856-0.806-5.127-2.344-6.738C346.053,177.355,344.002,176.55,341.512,176.55z
			 M344.295,192.443c0,1.466-0.22,2.638-0.731,3.369c-0.513,0.732-1.172,1.172-2.051,1.172c-0.88,0-1.611-0.365-2.124-1.172
			c-0.514-0.731-0.732-1.903-0.732-3.369v-7.104c0-1.465,0.22-2.563,0.732-3.369c0.512-0.806,1.172-1.172,2.051-1.172
			s1.538,0.366,2.051,1.172s0.732,1.904,0.732,3.369v7.104H344.295z"/>
		<path id="XMLID_518_" fill="#FFFFFF" d="M368.904,190.759c-0.732-0.952-1.686-1.685-3.003-2.124
			c1.099-0.513,2.051-1.245,2.71-2.197c0.659-0.879,1.024-1.903,1.024-3.003c0-2.197-0.806-3.882-2.344-5.054
			s-3.662-1.758-6.299-1.758c-2.271,0-4.175,0.586-5.713,1.758s-2.344,2.71-2.271,4.688v0.073h5.421c0-0.659,0.22-1.245,0.731-1.61
			c0.513-0.439,1.099-0.587,1.758-0.587c0.952,0,1.686,0.293,2.197,0.807c0.586,0.513,0.806,1.172,0.806,1.903
			c0,0.952-0.293,1.686-0.806,2.271c-0.513,0.513-1.318,0.806-2.344,0.806h-2.563v4.175h2.637c1.1,0,1.979,0.294,2.563,0.807
			s0.952,1.392,0.952,2.562c0,0.807-0.293,1.538-0.952,2.052c-0.659,0.586-1.465,0.806-2.49,0.806c-0.806,0-1.538-0.293-2.051-0.806
			c-0.513-0.514-0.806-1.173-0.806-1.979h-5.42v0.073c-0.073,2.271,0.731,3.955,2.417,5.127c1.685,1.172,3.661,1.758,5.933,1.758
			c2.637,0,4.761-0.659,6.445-1.904c1.684-1.244,2.562-3.003,2.562-5.199C369.93,192.883,369.563,191.711,368.904,190.759z"/>
	</g>
	<path id="XMLID_524_" fill="#FFFFFF" d="M12.068,176.55c-2.563,0-4.541,0.806-6.079,2.417c-1.538,1.685-2.271,3.882-2.271,6.738
		v6.372c0,2.855,0.732,5.127,2.271,6.737c1.539,1.611,3.589,2.417,6.079,2.417c2.49,0,4.541-0.806,6.079-2.417
		c1.538-1.61,2.271-3.882,2.271-6.737v-6.372c0-2.856-0.806-5.127-2.344-6.738C16.609,177.355,14.558,176.55,12.068,176.55z
		 M14.925,192.443c0,1.466-0.22,2.638-0.732,3.369c-0.512,0.732-1.172,1.172-2.051,1.172s-1.611-0.365-2.124-1.172
		c-0.513-0.731-0.732-1.903-0.732-3.369v-7.104c0-1.465,0.22-2.563,0.732-3.369c0.512-0.806,1.172-1.172,2.051-1.172
		s1.538,0.366,2.051,1.172c0.513,0.806,0.732,1.904,0.732,3.369v7.104H14.925z"/>
	<path id="XMLID_526_" fill="#FFFFFF" d="M22.835,181.164h12.012c-2.271,2.489-3.955,5.054-5.127,7.764s-1.758,5.64-1.758,8.862
		v3.148h5.566v-3.148c0-3.296,0.439-6.079,1.392-8.569c0.952-2.417,2.71-5.127,5.273-8.057v-4.321H22.835V181.164z"/>
	<g id="XMLID_454_">
		<polygon id="XMLID_478_" fill="#FFFFFF" points="286.067,147.912 286.067,230.09 306.355,238.513 306.355,139.49 		"/>
		<polygon id="XMLID_471_" fill="#01293F" points="137.312,69.47 145.735,89.758 227.913,89.758 236.336,69.47 		"/>
		<polygon id="XMLID_472_" fill="#00B5FF" points="236.336,69.47 227.913,89.758 286.067,147.912 306.355,139.49 		"/>
		<polygon id="XMLID_480_" fill="#00B5FF" points="137.312,69.47 145.735,89.758 87.581,147.912 67.293,139.49 		"/>
		<polygon id="XMLID_484_" fill="#01293F" points="137.312,308.386 145.735,288.098 227.913,288.098 236.336,308.386 		"/>
		<polygon id="XMLID_483_" fill="#00FFB2" points="236.336,308.386 227.913,288.098 286.067,229.943 306.355,238.365 		"/>
		<polygon id="XMLID_482_" fill="#00FFB2" points="137.312,308.386 145.735,288.098 87.581,229.943 67.293,238.365 		"/>
		<polygon id="XMLID_479_" fill="#FFFFFF" points="87.581,147.912 87.581,230.09 67.293,238.513 67.293,139.49 		"/>
	</g>
</g>
</svg>
