<?xml version="1.0" ?><svg id="Layer_1" style="enable-background:new 0 0 512 512;" version="1.1" viewBox="0 0 512 512" xml:space="preserve" xmlns="http://www.w3.org/2000/svg" xmlns:xlink="http://www.w3.org/1999/xlink"><style type="text/css">
	.st0{fill:#E7EBEC;}
	.st1{fill:#008282;}
</style><g id="XMLID_612_"><g id="XMLID_593_"><path d="M199.9,211.9h-20.5v0.2l-36.3,56.8l1.2,12.6h35V300h20.5v-18.6h8.9v-15.9h-8.9V211.9z M179.4,265.6h-18.7    l16.1-22.9l2.2-4.5l0.4,0.1V265.6z" id="XMLID_621_"/><path d="M247.9,210.6c-9.3,0-16.7,3-22.3,8.9c-5.6,6-8.4,14.2-8.4,24.7v23.4c0,10.5,2.8,18.8,8.4,24.7    c5.6,6,13.1,8.9,22.3,8.9c9.2,0,16.6-3,22.2-8.9c5.6-6,8.4-14.2,8.4-24.7v-23.4c0-10.5-2.8-18.7-8.5-24.7    C264.5,213.6,257.1,210.6,247.9,210.6z M258.2,268.9c0,5.5-0.9,9.6-2.7,12.4c-1.8,2.8-4.3,4.2-7.5,4.2c-3.3,0-5.9-1.4-7.7-4.2    c-1.8-2.8-2.7-7-2.7-12.4v-26c0-5.4,0.9-9.5,2.7-12.3c1.8-2.8,4.3-4.2,7.6-4.2c3.2,0,5.8,1.4,7.6,4.2c1.8,2.8,2.8,6.9,2.8,12.3    V268.9z" id="XMLID_639_"/><polygon id="XMLID_640_" points="345.3,219.7 302.3,288.6 311.8,293.4 354.8,224.5   "/><path d="M365.4,265.4c-3.4-3.4-8.2-5.1-14.6-5.1c-6.3,0-11.1,1.7-14.5,5.2c-3.4,3.4-5.1,7.8-5.1,13v4.7    c0,5.2,1.7,9.6,5.2,13c3.4,3.4,8.3,5.1,14.6,5.1c6.3,0,11.1-1.7,14.4-5.1c3.4-3.4,5.1-7.8,5.1-13v-4.7    C370.5,273.1,368.8,268.8,365.4,265.4z M357.4,283.1c0,2.3-0.4,4-1.3,5.3c-0.9,1.3-2.6,1.9-5.1,1.9c-1.9,0-3.4-0.7-4.7-2.1    c-1.3-1.4-1.9-3.1-1.9-5v-4.7c0-2,0.6-3.7,1.7-5.1c1.1-1.4,2.7-2.1,4.8-2.1c2.1,0,3.7,0.7,4.8,2.1c1.1,1.4,1.7,3.1,1.7,5.1V283.1z    " id="XMLID_643_"/><path d="M323.5,246.5c3.4-3.4,5.1-7.7,5.1-13v-4.7c0-5.2-1.7-9.6-5.1-13c-3.4-3.4-8.3-5.2-14.6-5.2    c-6.3,0-11.1,1.7-14.5,5.2c-3.4,3.4-5.1,7.8-5.1,13v4.7c0,5.2,1.7,9.5,5.1,13c3.4,3.4,8.3,5.1,14.6,5.1    C315.3,251.6,320.1,249.9,323.5,246.5z M302.4,233.5v-4.7c0-2,0.6-3.7,1.7-5.1c1.1-1.4,2.7-2.1,4.8-2.1c2.1,0,3.7,0.7,4.8,2.1    c1.1,1.4,1.7,3.1,1.7,5.1v4.7c0,2-0.6,3.7-1.7,5.1c-1.1,1.4-2.7,2-4.8,2c-2.1,0-3.8-0.7-4.9-2C303,237.2,302.4,235.5,302.4,233.5z    " id="XMLID_646_"/></g><g id="XMLID_611_"><g id="XMLID_577_"><path class="st0" d="M256.8,505.9c-66.8,0-129.6-26-176.8-73.2c-47.2-47.2-73.2-110-73.2-176.8     S32.8,126.4,80,79.2C127.3,31.9,190,5.9,256.8,5.9s129.6,26,176.8,73.2c47.2,47.2,73.2,110,73.2,176.8s-26,129.6-73.2,176.8     C386.4,479.9,323.6,505.9,256.8,505.9z M256.8,51.4C144,51.4,52.3,143.2,52.3,255.9S144,460.5,256.8,460.5     s204.5-91.8,204.5-204.5S369.6,51.4,256.8,51.4z" id="XMLID_581_"/></g><g id="XMLID_578_"><path class="st1" d="M393.8,465.1l-24.9-38c34.6-22.7,61.2-54.8,77-92.9c10.3-24.8,15.5-51.2,15.5-78.3     c0-16.2-1.9-32.2-5.6-47.8c-10.5-43.7-35.6-83.3-70.8-111.7C348.3,67,304,51.4,256.8,51.4V5.9c29,0,57.4,4.9,84.4,14.6     c26.1,9.4,50.4,23,72.1,40.5c43,34.6,73.8,83.1,86.6,136.5c4.5,19,6.9,38.7,6.9,58.4c0,33.1-6.4,65.3-19,95.7     C468.6,398.1,436,437.4,393.8,465.1z" id="XMLID_580_"/></g></g></g></svg>