<?xml version="1.0" encoding="utf-8"?>
<!-- Generator: Adobe Illustrator 16.0.0, SVG Export Plug-In . SVG Version: 6.00 Build 0)  -->
<!DOCTYPE svg PUBLIC "-//W3C//DTD SVG 1.1//EN" "http://www.w3.org/Graphics/SVG/1.1/DTD/svg11.dtd">
<svg version="1.1" id="Layer_1_1_" xmlns="http://www.w3.org/2000/svg" xmlns:xlink="http://www.w3.org/1999/xlink" x="0px" y="0px"
	 width="375px" height="381px" viewBox="0 216.5 375 381" enable-background="new 0 216.5 375 381" xml:space="preserve">
<g>
	<path fill="#00AAF1" d="M240.234,359.125c-16.154,0-29.297,13.143-29.297,29.297s13.143,29.297,29.297,29.297
		s29.297-13.143,29.297-29.297S256.389,359.125,240.234,359.125z M257.812,388.422c0,2.707-0.662,5.238-1.764,7.529l-7.529-7.529
		l7.529-7.529C257.15,383.184,257.812,385.715,257.812,388.422z M247.764,372.607l-7.529,7.529l-7.529-7.529
		c2.291-1.102,4.822-1.764,7.529-1.764S245.473,371.506,247.764,372.607z M224.42,395.951c-1.102-2.291-1.764-4.822-1.764-7.529
		s0.662-5.238,1.764-7.529l7.529,7.529L224.42,395.951z M232.705,404.236l7.529-7.529l7.529,7.529
		c-2.291,1.102-4.822,1.764-7.529,1.764S234.996,405.338,232.705,404.236z"/>
	<g>
		<path fill="#00AAF1" d="M35.156,353.266h11.719c0-64.617,52.57-117.188,117.188-117.188h5.859v61.723
			c-25.072,20.672-56.637,32.027-89.18,32.027H64.453v111.328c0,38.004,28.008,69.51,64.453,75.176v71.309h52.734v-58.594h-11.719
			v46.875h-29.297v-58.594h41.016V224.359h-17.578C92.982,224.359,35.156,282.186,35.156,353.266z M140.625,505.609
			c-35.537,0-64.453-28.916-64.453-64.453v-99.609h4.57c32.109,0,63.34-10.201,89.18-28.934v157.008
			c-10.078-2.619-17.578-11.713-17.578-22.605h-11.719c0,17.385,12.697,31.822,29.297,34.629v23.965H140.625z"/>
		<path fill="#00AAF1" d="M5.859,406c0,22.611,18.398,41.016,41.016,41.016h5.859v-82.031h-5.859
			C24.258,364.984,5.859,383.383,5.859,406z M41.016,434.705C27.662,431.986,17.578,420.15,17.578,406s10.084-25.986,23.438-28.705
			V434.705z"/>
		<path fill="#00AAF1" d="M123.047,376.703c-9.691,0-17.578,7.887-17.578,17.578s7.887,17.578,17.578,17.578
			s17.578-7.887,17.578-17.578S132.738,376.703,123.047,376.703z M123.047,400.141c-3.229,0-5.859-2.631-5.859-5.859
			s2.631-5.859,5.859-5.859s5.859,2.631,5.859,5.859S126.275,400.141,123.047,400.141z"/>
		<path fill="#00AAF1" d="M328.125,364.984h-5.859v82.031h5.859c22.617,0,41.016-18.404,41.016-41.016
			C369.141,383.383,350.742,364.984,328.125,364.984z M333.984,434.705v-57.416c13.354,2.719,23.438,14.561,23.438,28.705
			C357.422,420.15,347.338,431.986,333.984,434.705z"/>
		<path fill="#00AAF1" d="M193.359,341.547h105.469v99.609c0,35.537-28.916,64.453-64.453,64.453h-41.016v11.719h41.016
			c42,0,76.172-34.172,76.172-76.172V329.828H193.359V341.547z"/>
		<path fill="#00AAF1" d="M234.375,224.359h-41.016v11.719h11.719v23.438h-11.719v11.719h23.438v-35.156h11.719v46.875h-35.156
			v11.719h46.875v-58.295c32.801,2.971,58.594,30.592,58.594,64.154v17.578h11.719v-17.578
			C310.547,258.531,276.375,224.359,234.375,224.359z"/>
		<path fill="#00AAF1" d="M322.266,282.953h11.719v-24.516c6.803-2.426,11.719-8.871,11.719-16.5
			c0-9.691-7.887-17.578-17.578-17.578s-17.578,7.887-17.578,17.578c0,7.629,4.916,14.074,11.719,16.5V282.953z M328.125,236.078
			c3.229,0,5.859,2.631,5.859,5.859s-2.631,5.859-5.859,5.859s-5.859-2.631-5.859-5.859S324.896,236.078,328.125,236.078z"/>
		<path fill="#00AAF1" d="M263.672,458.734c0-12.926-10.512-23.438-23.438-23.438h-46.875v11.719h11.719v23.438h-11.719v11.719
			h46.875C253.16,482.172,263.672,471.66,263.672,458.734z M251.953,458.734c0,6.463-5.256,11.719-11.719,11.719v-23.438
			C246.697,447.016,251.953,452.271,251.953,458.734z M216.797,447.016h11.719v23.438h-11.719V447.016z"/>
		<rect x="199.219" y="306.391" fill="#00AAF1" width="11.719" height="11.719"/>
		<rect x="228.516" y="306.391" fill="#00AAF1" width="11.719" height="11.719"/>
		<rect x="257.812" y="306.391" fill="#00AAF1" width="11.719" height="11.719"/>
		<polygon fill="#00AAF1" points="240.234,529.047 228.516,529.047 228.516,552.484 193.359,552.484 193.359,564.203 
			269.531,564.203 269.531,575.922 193.359,575.922 193.359,587.641 281.25,587.641 281.25,552.484 240.234,552.484 		"/>
		<rect x="322.266" y="294.672" fill="#00AAF1" width="11.719" height="58.594"/>
	</g>
</g>
</svg>
