<?xml version="1.0" encoding="utf-8"?>
<!-- Generator: Adobe Illustrator 16.0.0, SVG Export Plug-In . SVG Version: 6.00 Build 0)  -->
<!DOCTYPE svg PUBLIC "-//W3C//DTD SVG 1.1//EN" "http://www.w3.org/Graphics/SVG/1.1/DTD/svg11.dtd">
<svg version="1.1" id="Layer_1" xmlns="http://www.w3.org/2000/svg" xmlns:xlink="http://www.w3.org/1999/xlink" x="0px" y="0px"
	 width="375px" height="317.984px" viewBox="0 254.098 375 317.984" enable-background="new 0 254.098 375 317.984"
	 xml:space="preserve">
<g>
	<path fill="#00AAF1" d="M352.89,554.509H22.335c-2.966,0-5.371-2.404-5.371-5.37v-0.62c0-2.966,2.404-5.37,5.371-5.37H352.89
		c2.967,0,5.371,2.404,5.371,5.37v0.62C358.26,552.105,355.856,554.509,352.89,554.509z"/>
	<g>
		<rect x="47.687" y="471.151" fill="#00AAF1" width="16.791" height="71.998"/>
		<rect x="100.299" y="436.464" fill="#00AAF1" width="16.791" height="106.686"/>
		<rect x="152.911" y="439.91" fill="#00AAF1" width="16.791" height="103.238"/>
		<rect x="205.522" y="378.744" fill="#00AAF1" width="16.791" height="164.405"/>
		<rect x="258.135" y="356.356" fill="#00AAF1" width="16.791" height="186.792"/>
		<rect x="310.746" y="313.179" fill="#00AAF1" width="16.791" height="229.969"/>
	</g>
	<path fill="#FFFFFF" d="M56.083,453.851c-1.732,0-3.448-0.751-4.624-2.201c-2.07-2.552-1.68-6.299,0.872-8.368l52.611-42.678
		c1.317-1.069,3.029-1.525,4.703-1.252l48.796,7.933l50.495-77.132c0.903-1.38,2.339-2.323,3.964-2.604l50.664-8.758l51.253-54.155
		c2.259-2.388,6.024-2.49,8.41-0.232c2.387,2.258,2.491,6.024,0.231,8.411l-52.611,55.591c-0.881,0.932-2.043,1.554-3.307,1.773
		l-50.064,8.653l-51.195,78.202c-1.289,1.966-3.62,2.99-5.933,2.613l-49.98-8.124l-50.541,40.998
		C58.725,453.416,57.4,453.851,56.083,453.851z"/>
</g>
</svg>
