<?xml version="1.0" encoding="utf-8"?>
<!-- Generator: Adobe Illustrator 16.0.0, SVG Export Plug-In . SVG Version: 6.00 Build 0)  -->
<!DOCTYPE svg PUBLIC "-//W3C//DTD SVG 1.1//EN" "http://www.w3.org/Graphics/SVG/1.1/DTD/svg11.dtd">
<svg version="1.1" id="Layer_1_1_" xmlns="http://www.w3.org/2000/svg" xmlns:xlink="http://www.w3.org/1999/xlink" x="0px" y="0px"
	 width="375px" height="369.141px" viewBox="0 224.359 375 369.141" enable-background="new 0 224.359 375 369.141"
	 xml:space="preserve">
<g>
	<path fill="#00FFB2" d="M187.5,321.109c-48.463,0-87.891,39.428-87.891,87.891s39.428,87.891,87.891,87.891
		s87.891-39.428,87.891-87.891S235.963,321.109,187.5,321.109z M187.5,485.172c-21.533,0-40.969-9.023-54.838-23.438h109.676
		C228.469,476.148,209.033,485.172,187.5,485.172z M178.729,400.686c-5.514-3.211-8.807-8.865-8.807-15.123v-11.719
		c0-4.91,2.08-9.639,5.707-12.961c3.668-3.369,8.426-4.986,13.465-4.547c8.959,0.779,15.984,9,15.984,18.727v10.5
		c0,6.258-3.293,11.912-8.807,15.123l-2.912,1.693v16.898l28.359,8.104c7.453,2.127,12.656,9.029,12.656,16.775v5.859h-93.75v-5.859
		c0-7.746,5.203-14.648,12.656-16.775l28.359-8.104v-16.898L178.729,400.686z M246.094,457.604v-13.447
		c0-12.949-8.695-24.486-21.152-28.043l-19.863-5.672v-1.559c7.301-5.502,11.719-14.156,11.719-23.314v-10.5
		c0-15.75-11.725-29.098-26.695-30.398c-8.209-0.732-16.365,2.051-22.395,7.582c-6.041,5.531-9.504,13.406-9.504,21.592v11.719
		c0,9.158,4.418,17.818,11.719,23.314v1.559l-19.863,5.678c-12.457,3.557-21.152,15.094-21.152,28.043v13.447
		c-10.969-13.201-17.578-30.141-17.578-48.604c0-42,34.172-76.172,76.172-76.172S263.672,367,263.672,409
		C263.672,427.463,257.062,444.402,246.094,457.604z"/>
	<path fill="#00FFB2" d="M316.406,262.516h-53.812c-2.426-6.803-8.871-11.719-16.5-11.719h-19.822
		c-7.594-14.479-22.371-23.438-38.771-23.438s-31.178,8.953-38.771,23.438h-19.822c-7.629,0-14.074,4.916-16.5,11.719H58.594
		c-9.691,0-17.578,7.887-17.578,17.578v292.969c0,9.691,7.887,17.578,17.578,17.578h257.812c9.691,0,17.578-7.887,17.578-17.578
		V280.094C333.984,270.402,326.098,262.516,316.406,262.516z M298.828,508.609h-46.875v46.875H76.172V297.672h35.156v11.719h152.344
		v-11.719h35.156V508.609z M290.543,520.328l-26.871,26.871v-26.871H290.543z M123.047,268.375c0-3.229,2.631-5.859,5.859-5.859
		h27.059l2.854-5.713c5.473-10.934,16.459-17.725,28.682-17.725s23.209,6.791,28.682,17.719l2.854,5.719h27.059
		c3.229,0,5.859,2.631,5.859,5.859v29.297H123.047V268.375z M322.266,573.062c0,3.229-2.631,5.859-5.859,5.859H58.594
		c-3.229,0-5.859-2.631-5.859-5.859V280.094c0-3.229,2.631-5.859,5.859-5.859h52.734v11.719H64.453v281.25h195.785l50.309-50.309
		V285.953h-46.875v-11.719h52.734c3.229,0,5.859,2.631,5.859,5.859V573.062z"/>
	<rect x="228.516" y="508.609" fill="#00FFB2" width="11.719" height="11.719"/>
	<rect x="87.891" y="508.609" fill="#00FFB2" width="128.906" height="11.719"/>
	<rect x="87.891" y="532.047" fill="#00FFB2" width="128.906" height="11.719"/>
	<rect x="228.516" y="532.047" fill="#00FFB2" width="11.719" height="11.719"/>
	<path fill="#00FFB2" d="M187.5,250.797c-9.691,0-17.578,7.887-17.578,17.578s7.887,17.578,17.578,17.578
		s17.578-7.887,17.578-17.578S197.191,250.797,187.5,250.797z M187.5,274.234c-3.229,0-5.859-2.631-5.859-5.859
		s2.631-5.859,5.859-5.859s5.859,2.631,5.859,5.859S190.729,274.234,187.5,274.234z"/>
	<rect x="140.625" y="274.234" fill="#00FFB2" width="11.719" height="11.719"/>
	<rect x="222.656" y="274.234" fill="#00FFB2" width="11.719" height="11.719"/>
</g>
</svg>
