<?xml version="1.0" encoding="utf-8"?>
<!-- Generator: Adobe Illustrator 16.0.0, SVG Export Plug-In . SVG Version: 6.00 Build 0)  -->
<!DOCTYPE svg PUBLIC "-//W3C//DTD SVG 1.1//EN" "http://www.w3.org/Graphics/SVG/1.1/DTD/svg11.dtd">
<svg version="1.1" id="Layer_1_1_" xmlns="http://www.w3.org/2000/svg" xmlns:xlink="http://www.w3.org/1999/xlink" x="0px" y="0px"
	 width="375px" height="384px" viewBox="0 214.5 375 384" enable-background="new 0 214.5 375 384" xml:space="preserve">
<g>
	<path fill="none" stroke="#FC478F" stroke-width="7" stroke-miterlimit="10" d="M339.844,224.359H187.5
		c-3.24,0-5.859,2.619-5.859,5.859v99.609l52.734,35.156h3.146c6.434-7.178,15.75-11.719,26.15-11.719s19.717,4.541,26.156,11.719
		h3.141l52.734-35.156v-99.609C345.703,226.979,343.084,224.359,339.844,224.359z"/>
	<path fill="#FC478F" d="M35.156,300.531c3.234,0,5.859-2.625,5.859-5.859c0-19.389,15.768-35.156,35.156-35.156
		c3.234,0,5.859-2.625,5.859-5.859s-2.625-5.859-5.859-5.859c-25.846,0-46.875,21.029-46.875,46.875
		C29.297,297.906,31.922,300.531,35.156,300.531z"/>
	<path fill="#FC478F" d="M368.971,447.859c0.041-0.287,0.17-0.545,0.17-0.844V318.109c0-0.182-0.088-0.352-0.105-0.533
		c-0.035-0.381-0.111-0.744-0.223-1.119c-0.111-0.381-0.252-0.727-0.439-1.078c-0.094-0.17-0.105-0.363-0.217-0.527
		s-0.281-0.258-0.41-0.404c-0.123-0.152-0.182-0.346-0.322-0.486l-21.721-21.715v16.57l8.379,8.379l-62.221,41.484
		c-7.652-7.254-17.602-11.273-28.184-11.273c-0.006,0-0.006,0-0.006,0c-10.91,0-20.812,4.312-28.172,11.285l-62.238-41.49
		l8.379-8.379v-16.57l-21.721,21.721c-0.141,0.141-0.199,0.334-0.322,0.486s-0.299,0.24-0.41,0.41
		c-0.111,0.164-0.123,0.352-0.217,0.527c-0.188,0.352-0.328,0.697-0.439,1.078c-0.111,0.375-0.188,0.732-0.223,1.119
		c-0.018,0.164-0.105,0.334-0.105,0.516v128.906c0,0.299,0.129,0.557,0.17,0.844c0.064,0.428,0.094,0.85,0.252,1.254
		c0.158,0.416,0.422,0.756,0.668,1.119c0.158,0.234,0.234,0.504,0.434,0.721c0.029,0.035,0.076,0.041,0.105,0.076
		c0.463,0.486,1.02,0.855,1.623,1.166c0.105,0.053,0.188,0.152,0.299,0.199c0.709,0.305,1.488,0.48,2.309,0.48h93.75v96.68
		c0,14.537-11.83,26.367-26.367,26.367s-26.367-11.83-26.367-26.367V499.75c0-19.389-15.768-35.156-35.156-35.156
		s-35.156,15.768-35.156,35.156v49.805c0,14.537-11.83,26.367-26.367,26.367s-26.367-11.83-26.367-26.367V447.016h5.859
		c3.234,0,5.859-2.619,5.859-5.859v-19.893c30.275-7.834,52.734-35.309,52.734-67.998v-58.594c0-38.771-31.541-70.312-70.312-70.312
		S5.859,255.9,5.859,294.672v58.594c0,32.689,22.459,60.164,52.734,67.998v19.893c0,3.24,2.625,5.859,5.859,5.859h5.859v102.539
		c0,21,17.086,38.086,38.086,38.086s38.086-17.086,38.086-38.086V499.75c0-12.926,10.512-23.438,23.438-23.438
		s23.438,10.512,23.438,23.438v49.805c0,21,17.086,38.086,38.086,38.086s38.086-17.086,38.086-38.086v-96.68h93.75
		c0.82,0,1.6-0.176,2.303-0.475c0.111-0.047,0.188-0.146,0.299-0.199c0.604-0.305,1.166-0.68,1.623-1.166
		c0.029-0.035,0.076-0.041,0.105-0.076c0.199-0.217,0.275-0.486,0.434-0.721c0.246-0.363,0.51-0.703,0.668-1.119
		C368.877,448.709,368.906,448.287,368.971,447.859z M58.594,409.158v-55.893H93.75v55.893c-5.555,1.752-11.455,2.701-17.578,2.701
		S64.148,410.91,58.594,409.158z M105.469,403.932v-50.666h29.297C134.766,374.898,122.953,393.783,105.469,403.932z
		 M76.172,236.078c32.309,0,58.594,26.285,58.594,58.594v46.875H17.578v-46.875C17.578,262.363,43.863,236.078,76.172,236.078z
		 M17.578,353.266h29.297v50.666C29.391,393.783,17.578,374.898,17.578,353.266z M76.172,423.578c1.98,0,3.92-0.135,5.859-0.299
		v12.018H70.312v-12.018C72.252,423.443,74.191,423.578,76.172,423.578z M304.553,385.709c-0.41-6.346-2.262-12.404-5.402-17.807
		l58.271-38.848v104.713L304.553,385.709z M263.672,359.125L263.672,359.125c7.828,0,15.182,3.047,20.719,8.578
		c5.531,5.531,8.578,12.891,8.578,20.713v5.871c0,3.229-2.625,5.859-5.859,5.859l0,0c-1.564,0-3.035-0.609-4.143-1.717
		c-1.107-1.102-1.717-2.578-1.717-4.143v-5.865v-0.006c-0.006-9.691-7.887-17.572-17.578-17.572s-17.578,7.887-17.578,17.578
		S253.98,406,263.672,406c3.129,0,6.064-0.82,8.613-2.256c0.68,1.066,1.482,2.062,2.402,2.977c3.316,3.316,7.729,5.145,12.428,5.145
		h0.006c7.471-0.006,13.822-4.711,16.359-11.297l44.643,40.588H179.221l45.152-41.051c5.045,16.939,20.736,29.332,39.293,29.332
		h17.584c3.234,0,5.859-2.619,5.859-5.859s-2.625-5.859-5.859-5.859h-17.584c-16.148,0-29.291-13.143-29.291-29.291
		C234.375,372.273,247.518,359.125,263.672,359.125z M269.531,388.422c0,3.229-2.631,5.859-5.859,5.859s-5.859-2.631-5.859-5.859
		s2.631-5.859,5.859-5.859S269.531,385.193,269.531,388.422z M222.797,385.703l-52.875,48.064V329.055l58.289,38.859
		C225.129,373.217,223.219,379.252,222.797,385.703z"/>
	<path fill="#FC478F" d="M82.031,394.281v-23.438c0-3.234-2.625-5.859-5.859-5.859s-5.859,2.625-5.859,5.859v23.438
		c0,3.234,2.625,5.859,5.859,5.859S82.031,397.516,82.031,394.281z"/>
	<path fill="#FC478F" d="M210.938,282.953h41.016c3.234,0,5.859-2.625,5.859-5.859s-2.625-5.859-5.859-5.859h-41.016
		c-3.234,0-5.859,2.625-5.859,5.859S207.703,282.953,210.938,282.953z"/>
	<path fill="#FC478F" d="M316.406,271.234h-41.016c-3.234,0-5.859,2.625-5.859,5.859s2.625,5.859,5.859,5.859h41.016
		c3.234,0,5.859-2.625,5.859-5.859S319.641,271.234,316.406,271.234z"/>
	<path fill="#FC478F" d="M210.938,259.516h105.469c3.234,0,5.859-2.625,5.859-5.859s-2.625-5.859-5.859-5.859H210.938
		c-3.234,0-5.859,2.625-5.859,5.859S207.703,259.516,210.938,259.516z"/>
	<path fill="#FC478F" d="M210.938,306.391h105.469c3.234,0,5.859-2.625,5.859-5.859s-2.625-5.859-5.859-5.859H210.938
		c-3.234,0-5.859,2.625-5.859,5.859S207.703,306.391,210.938,306.391z"/>
	<circle fill="#FC478F" cx="263.672" cy="323.969" r="5.859"/>
	<circle fill="#FC478F" cx="298.828" cy="323.969" r="5.859"/>
	<circle fill="#FC478F" cx="228.516" cy="323.969" r="5.859"/>
</g>
</svg>
