<?xml version="1.0" encoding="utf-8"?>
<!-- Generator: Adobe Illustrator 16.0.0, SVG Export Plug-In . SVG Version: 6.00 Build 0)  -->
<!DOCTYPE svg PUBLIC "-//W3C//DTD SVG 1.1//EN" "http://www.w3.org/Graphics/SVG/1.1/DTD/svg11.dtd">
<svg version="1.1" id="Layer_1_1_" xmlns="http://www.w3.org/2000/svg" xmlns:xlink="http://www.w3.org/1999/xlink" x="0px" y="0px"
	 width="375px" height="342.667px" viewBox="0 212.5 375 342.667" enable-background="new 0 212.5 375 342.667"
	 xml:space="preserve">
<g>
	<g>
		<rect x="216.797" y="534.906" fill="#FFFFFF" width="11.719" height="11.719"/>
	</g>
	<g>
		<rect x="193.359" y="534.906" fill="#FFFFFF" width="11.719" height="11.719"/>
	</g>
	<g>
		<rect x="146.484" y="534.906" fill="#FFFFFF" width="11.719" height="11.719"/>
	</g>
	<g>
		<rect x="169.922" y="534.906" fill="#FFFFFF" width="11.719" height="11.719"/>
	</g>
	<g>
		<path fill="#FFFFFF" d="M358.641,308.975l-146.326-78.387c-15.211-8.15-34.424-8.15-49.635,0l-146.32,78.387
			c-6.475,3.469-10.5,10.189-10.5,17.543v0.99c0,10.975,8.924,19.898,19.898,19.898c3.281,0,6.539-0.826,9.434-2.379l144.07-77.578
			c5.045-2.719,11.432-2.719,16.477,0l144.07,77.572c2.895,1.559,6.152,2.379,9.434,2.379c10.975,0.006,19.898-8.918,19.898-19.893
			v-0.99C369.141,319.164,365.115,312.443,358.641,308.975z M357.422,327.508c0,4.512-3.668,8.18-8.18,8.18
			c-1.348,0-2.684-0.34-3.879-0.979l-144.07-77.572c-4.225-2.279-8.994-3.48-13.793-3.48s-9.568,1.201-13.793,3.48l-144.07,77.572
			c-1.195,0.639-2.531,0.979-3.879,0.979c-4.512,0-8.18-3.668-8.18-8.18v-0.99c0-3.023,1.652-5.783,4.318-7.207l146.32-78.393
			c11.824-6.328,26.742-6.328,38.566,0l146.32,78.387c2.666,1.43,4.318,4.189,4.318,7.213V327.508z"/>
		<polygon fill="#FFFFFF" points="41.016,359.125 29.297,359.125 29.297,546.625 134.766,546.625 134.766,534.906 41.016,534.906 		
			"/>
		<polygon fill="#FFFFFF" points="333.984,534.906 240.234,534.906 240.234,546.625 345.703,546.625 345.703,359.125 
			333.984,359.125 		"/>
		<path fill="#FFFFFF" d="M263.672,370.844H144.428l-33.1,26.484v114.141h152.344V370.844z M251.953,499.75H123.047v-96.797
			l25.494-20.391h103.412V499.75z"/>
	</g>
	
		<image overflow="visible" width="62" height="70" xlink:href="logoIcon.png"  transform="matrix(1.1919 0 0 1.1919 150.6406 403.1562)">
	</image>
</g>
</svg>
