<?xml version="1.0" encoding="utf-8"?>
<!-- Generator: Adobe Illustrator 16.0.0, SVG Export Plug-In . SVG Version: 6.00 Build 0)  -->
<!DOCTYPE svg PUBLIC "-//W3C//DTD SVG 1.1//EN" "http://www.w3.org/Graphics/SVG/1.1/DTD/svg11.dtd">
<svg version="1.1" id="Layer_1_1_" xmlns="http://www.w3.org/2000/svg" xmlns:xlink="http://www.w3.org/1999/xlink" x="0px" y="0px"
	 width="382.081px" height="380.981px" viewBox="0 216.6 382.081 380.981" enable-background="new 0 216.6 382.081 380.981"
	 xml:space="preserve">
<g>
	<path fill="#FF9300" d="M363.281,224.359H11.719c-3.24,0-5.859,2.625-5.859,5.859v281.25c0,3.234,2.619,5.859,5.859,5.859h64.453
		c3.24,0,5.859-2.625,5.859-5.859s-2.619-5.859-5.859-5.859H17.578V282.953h339.844v222.656h-41.016V329.828
		c0-19.389-15.768-35.156-35.156-35.156s-35.156,15.768-35.156,35.156v175.781h-29.297c-3.24,0-5.859,2.625-5.859,5.859
		s2.619,5.859,5.859,5.859h29.297v17.578c0,0.697,0.164,1.371,0.41,2.016c0.07,0.193,0.152,0.363,0.246,0.545
		c0.088,0.176,0.135,0.369,0.24,0.539l29.297,46.875c1.066,1.717,2.941,2.76,4.963,2.76s3.896-1.043,4.969-2.754l29.297-46.875
		c0.105-0.17,0.152-0.363,0.24-0.539c0.088-0.182,0.176-0.357,0.246-0.551c0.24-0.645,0.404-1.318,0.404-2.016v-17.578h46.875
		c3.24,0,5.859-2.625,5.859-5.859v-281.25C369.141,226.984,366.521,224.359,363.281,224.359z M287.109,529.047V382.562h17.578
		v146.484H287.109z M257.812,529.047V382.562h17.578v146.484H257.812z M304.688,370.844h-46.875v-11.719h46.875V370.844z
		 M281.25,306.391c12.926,0,23.438,10.512,23.438,23.438v17.578h-46.875v-17.578C257.812,316.902,268.324,306.391,281.25,306.391z
		 M281.25,570.725l-18.727-29.959h37.453L281.25,570.725z M17.578,271.234v-35.156h339.844v35.156H17.578z"/>
	<g>
		<path fill="none" stroke="#FF9300" stroke-width="10" stroke-miterlimit="10" d="M222.656,417.719H58.594
			c-3.24,0-5.859-2.619-5.859-5.859v-93.75c0-3.24,2.619-5.859,5.859-5.859h164.062c3.24,0,5.859,2.619,5.859,5.859v93.75
			C228.516,415.1,225.896,417.719,222.656,417.719z"/>
	</g>
	<g>
		<circle fill="#FF9300" cx="41.016" cy="253.656" r="5.859"/>
	</g>
	<g>
		<circle fill="#FF9300" cx="64.453" cy="253.656" r="5.859"/>
	</g>
	<g>
		<circle fill="#FF9300" cx="87.891" cy="253.656" r="5.859"/>
	</g>
	<g>
		<circle fill="#FF9300" cx="99.609" cy="388.422" r="5.859"/>
	</g>
	<g>
		<circle fill="#FF9300" cx="140.625" cy="388.422" r="5.859"/>
	</g>
	<g>
		<circle fill="#FF9300" cx="181.641" cy="388.422" r="5.859"/>
	</g>
	<g>
		<path fill="#FF9300" d="M199.219,347.406H82.031c-3.24,0-5.859-2.625-5.859-5.859s2.619-5.859,5.859-5.859h117.188
			c3.24,0,5.859,2.625,5.859,5.859S202.459,347.406,199.219,347.406z"/>
	</g>
	<g>
		<path fill="#FF9300" d="M199.219,370.844H82.031c-3.24,0-5.859-2.625-5.859-5.859s2.619-5.859,5.859-5.859h117.188
			c3.24,0,5.859,2.625,5.859,5.859S202.459,370.844,199.219,370.844z"/>
	</g>
	<g>
		<path fill="none" stroke="#FF9300" stroke-width="10" stroke-miterlimit="10" d="M218.309,491.746l-11.561-3.076
			c-0.463-1.23-0.979-2.455-1.535-3.674l6-10.365c1.336-2.297,0.949-5.203-0.926-7.078l-19.893-19.893
			c-1.875-1.875-4.787-2.262-7.078-0.926l-10.365,6c-1.219-0.557-2.443-1.072-3.674-1.535l-3.076-11.561
			c-0.674-2.555-2.994-4.342-5.654-4.342h-28.125c-2.654,0-4.98,1.787-5.66,4.348l-3.076,11.561
			c-1.23,0.463-2.455,0.979-3.674,1.535l-10.365-6c-2.297-1.336-5.203-0.949-7.078,0.926l-19.893,19.893
			c-1.875,1.875-2.262,4.781-0.926,7.078l6,10.365c-0.557,1.219-1.072,2.443-1.535,3.674l-11.561,3.076
			c-2.555,0.674-4.342,2.994-4.342,5.654v28.125c0,2.654,1.787,4.98,4.348,5.66l11.561,3.076c0.463,1.23,0.979,2.455,1.535,3.674
			l-6,10.365c-1.336,2.297-0.949,5.203,0.926,7.078l19.893,19.893c1.875,1.875,4.781,2.262,7.078,0.926l10.365-6
			c1.219,0.557,2.443,1.072,3.674,1.535l3.076,11.561c0.674,2.555,2.994,4.342,5.654,4.342h28.125c2.654,0,4.98-1.787,5.66-4.348
			l3.076-11.561c1.23-0.463,2.455-0.979,3.674-1.535l10.365,6c2.291,1.336,5.203,0.949,7.078-0.926l19.893-19.893
			c1.875-1.875,2.262-4.781,0.926-7.078l-6-10.365c0.557-1.219,1.072-2.443,1.535-3.674l11.561-3.076
			c2.555-0.674,4.342-2.994,4.342-5.654v-28.125C222.656,494.746,220.869,492.426,218.309,491.746z M146.484,546.625
			c-19.418,0-35.156-15.738-35.156-35.156s15.738-35.156,35.156-35.156s35.156,15.738,35.156,35.156
			S165.902,546.625,146.484,546.625z"/>
	</g>
	<g>
		<path fill="#FF9300" d="M146.484,552.484c-22.611,0-41.016-18.398-41.016-41.016s18.404-41.016,41.016-41.016
			s41.016,18.398,41.016,41.016S169.096,552.484,146.484,552.484z M146.484,482.172c-16.154,0-29.297,13.143-29.297,29.297
			s13.143,29.297,29.297,29.297s29.297-13.143,29.297-29.297S162.639,482.172,146.484,482.172z"/>
	</g>
</g>
</svg>
