<?xml version="1.0" encoding="utf-8"?>
<!-- Generator: Adobe Illustrator 16.0.0, SVG Export Plug-In . SVG Version: 6.00 Build 0)  -->
<!DOCTYPE svg PUBLIC "-//W3C//DTD SVG 1.1//EN" "http://www.w3.org/Graphics/SVG/1.1/DTD/svg11.dtd">
<svg version="1.1" id="Layer_1" xmlns="http://www.w3.org/2000/svg" xmlns:xlink="http://www.w3.org/1999/xlink" x="0px" y="0px"
	 width="318.75px" height="316.75px" viewBox="25 249.75 318.75 316.75" enable-background="new 25 249.75 318.75 316.75"
	 xml:space="preserve">
<g id="info">
</g>
<g id="icons">
	<g id="exit2">
		<path fill="#00B5FF" d="M187.5,374.75c17.188,0,31.25-14.062,31.25-31.25V281c0-17.188-14.062-31.25-31.25-31.25
			s-31.25,14.062-31.25,31.25v62.5C156.25,360.688,170.312,374.75,187.5,374.75z"/>
		<path fill="#00B5FF" d="M298.438,295.062L298.438,295.062c-4.688-4.688-9.375-6.25-17.188-6.25
			c-12.5,0-23.438,10.938-23.438,23.438c0,6.25,3.125,12.5,6.25,17.188l0,0l0,0l0,0c20.312,20.312,31.25,46.875,31.25,76.562
			c0,60.938-48.438,109.375-109.375,109.375S76.562,466.938,76.562,406c0-29.688,12.5-57.812,32.812-76.562l0,0
			c4.688-4.688,7.812-10.938,7.812-17.188c0-12.5-10.938-23.438-23.438-23.438c-6.25,0-12.5,3.125-17.188,6.25l0,0
			C48.438,323.188,31.25,362.25,31.25,406c0,85.938,70.312,156.25,156.25,156.25S343.75,491.938,343.75,406
			C343.75,362.25,326.562,323.188,298.438,295.062z"/>
	</g>
</g>
</svg>
