<?xml version="1.0" encoding="utf-8"?>
<!-- Generator: Adobe Illustrator 16.0.0, SVG Export Plug-In . SVG Version: 6.00 Build 0)  -->
<!DOCTYPE svg PUBLIC "-//W3C//DTD SVG 1.1//EN" "http://www.w3.org/Graphics/SVG/1.1/DTD/svg11.dtd">
<svg version="1.1" id="Layer_1" xmlns="http://www.w3.org/2000/svg" xmlns:xlink="http://www.w3.org/1999/xlink" x="0px" y="0px"
	 width="375px" height="362px" viewBox="0 222.5 375 362" enable-background="new 0 222.5 375 362" xml:space="preserve">
<g id="info">
</g>
<g id="icons">
	<path id="search" fill="#FFFFFF" d="M350,524.75l-75-75c14.062-21.875,21.875-46.875,21.875-75
		c0-78.125-62.5-140.625-140.625-140.625S15.625,296.625,15.625,374.75s62.5,140.625,140.625,140.625
		c28.125,0,53.125-7.812,75-21.875l75,75c6.25,6.25,14.062,9.375,21.875,9.375c17.188,0,31.25-14.062,31.25-31.25
		C359.375,537.25,356.25,529.438,350,524.75z M78.125,374.75c0-43.75,34.375-78.125,78.125-78.125S234.375,331,234.375,374.75
		S200,452.875,156.25,452.875S78.125,418.5,78.125,374.75z"/>
</g>
</svg>
