<?xml version="1.0" encoding="utf-8"?>
<!-- Generator: Adobe Illustrator 16.0.0, SVG Export Plug-In . SVG Version: 6.00 Build 0)  -->
<!DOCTYPE svg PUBLIC "-//W3C//DTD SVG 1.1//EN" "http://www.w3.org/Graphics/SVG/1.1/DTD/svg11.dtd">
<svg version="1.1" id="Layer_1" xmlns="http://www.w3.org/2000/svg" xmlns:xlink="http://www.w3.org/1999/xlink" x="0px" y="0px"
	 width="974.727px" height="876.088px" viewBox="49.273 34.271 974.727 876.088"
	 enable-background="new 49.273 34.271 974.727 876.088" xml:space="preserve">
<path fill="#FFFFFF" d="M576,192c-35.347,0-64,28.653-64,64s28.653,64,64,64s64-28.653,64-64S611.347,192,576,192z M896,384L768,512
	v-64c0-30.625-21.515-56.21-50.25-62.503C748.958,351.354,768,305.903,768,256.002C768,149.962,682.039,64,576,64
	c-101.123,0-183.986,78.178-191.45,177.393C350.516,210.694,305.442,192,256,192c-106.038,0-192,85.962-192,192.002
	C64,490.039,149.962,576,256,576h-64v128h64v128c0,35.347,28.653,64,64,64h384c35.347,0,64-28.653,64-64v-64l128,128h64V384H896z
	 M256,320c-35.347,0-64,28.653-64,64c0,35.347,28.653,64,64,64v64c-70.692,0-128-57.308-128-127.999
	C128,313.308,185.308,256,256,256c70.692,0,128,57.307,128,128h-64C320,348.653,291.347,320,256,320z M576,704H448V576h128V704z
	 M704,594.787c-33.526-33.547-70.276-70.317-73.373-73.414C624.837,515.582,616.837,512,608,512H416c-17.674,0-32,14.326-32,32v192
	c0,8.329,3.183,15.915,8.396,21.607c0.529,0.58,39.122,39.164,74.408,74.393H352c-17.674,0-32-14.326-32-32V480
	c0-17.674,14.326-32,32-32h320c17.674,0,32,14.326,32,32V594.787z M576,384c-70.692,0-128-57.308-128-127.999
	C448,185.308,505.308,128,576,128s128,57.308,128,128.001C704,326.692,646.692,384,576,384z M896,704l-64-64l0.082-128.084
	L896,447.998V704z"/>
</svg>
